<!--?xml version="1.0" standalone="yes"?--><svg xmlns="http://www.w3.org/2000/svg" preserveAspectRatio="xMidYMid meet" style="zoom: 1;" id="eaf-f3e7-0" repeatCount="1" overflow="hidden" viewBox="0 0 1920 1080" width="1920" height="1080"><animate attributeName="x" attributeType="XML" begin="0s" dur="1s" calcMode="linear" values="100;200;100" repeatCount="1" additive="replace" accumulate="none" fill="remove" id="animate1"></animate><defs><clipPath id="eaf-f3e7-1"><rect x="0" y="0" width="1920" height="1080" class="svg-elem-1"></rect></clipPath><clipPath id="eaf-f3e7-2"><path d="m0 0l1429.7977 0l0 17.811l-1429.7977 0l0 -17.811z" clip-rule="evenodd" transform="matrix(1 0 0 -1 251.009 316.6815)" class="svg-elem-2"></path></clipPath><clipPath id="eaf-f3e7-3"><path d="m0 0l1429.7977 0l0 17.811l-1429.7977 0l0 -17.811z" clip-rule="evenodd" transform="matrix(1 0 0 -1 251.009 333.6815)" class="svg-elem-3"></path></clipPath><clipPath id="eaf-f3e7-4"><path d="m0 0l1429.7977 0l0 17.811l-1429.7977 0l0 -17.811z" clip-rule="evenodd" transform="matrix(1 0 0 -1 251.0089 350.587)" class="svg-elem-4"></path></clipPath><clipPath id="eaf-f3e7-5"><path d="m0 0l1429.7977 0l0 17.811l-1429.7977 0l0 -17.811z" clip-rule="evenodd" transform="matrix(1 0 0 -1 251.0089 367.587)" class="svg-elem-5"></path></clipPath><clipPath id="eaf-f3e7-6"><path d="m0 0l1429.7977 0l0 17.811l-1429.7977 0l0 -17.811z" clip-rule="evenodd" transform="matrix(1 0 0 -0.97 251.0089 385.587)" class="svg-elem-6"></path></clipPath><clipPath id="eaf-f3e7-7"><path d="m0 0l1429.7977 0l0 17.811l-1429.7977 0l0 -17.811z" clip-rule="evenodd" transform="matrix(1 0 0 -0.96 251.0089 402)" class="svg-elem-7"></path></clipPath><clipPath id="eaf-f3e7-8"><path d="m0 0l1429.7977 0l0 17.811l-1429.7977 0l0 -17.811z" clip-rule="evenodd" transform="matrix(1 0 0 -1 251.0089 419)" class="svg-elem-8"></path></clipPath><clipPath id="eaf-f3e7-9"><path d="m0 0l1429.7977 0l0 17.811l-1429.7977 0l0 -17.811z" clip-rule="evenodd" transform="matrix(1 0 0 -1 251.0089 436)" class="svg-elem-9"></path></clipPath><clipPath id="eaf-f3e7-10"><path d="m0 0l1429.7977 0l0 17.811l-1429.7977 0l0 -17.811z" clip-rule="evenodd" transform="matrix(1 0 0 -1 251.0089 453)" class="svg-elem-10"></path></clipPath><clipPath id="eaf-f3e7-11"><path d="m0 0l1429.7977 0l0 17.811l-1429.7977 0l0 -17.811z" clip-rule="evenodd" transform="matrix(1 0 0 -1 251.0089 470)" class="svg-elem-11"></path></clipPath><clipPath id="eaf-f3e7-12"><path d="m0 0l1429.7977 0l0 17.811l-1429.7977 0l0 -17.811z" clip-rule="evenodd" transform="matrix(1 0 0 -1 251.0089 487)" class="svg-elem-12"></path></clipPath><clipPath id="eaf-f3e7-13"><path d="m0 0l1429.7977 0l0 17.811l-1429.7977 0l0 -17.811z" clip-rule="evenodd" transform="matrix(1 0 0 -1 251.0089 504)" class="svg-elem-13"></path></clipPath><clipPath id="eaf-f3e7-14"><path d="m0 0l1429.7977 0l0 17.811l-1429.7977 0l0 -17.811z" clip-rule="evenodd" transform="matrix(1 0 0 -1 251.0089 521)" class="svg-elem-14"></path></clipPath><clipPath id="eaf-f3e7-15"><path d="m0 0l1429.7977 0l0 17.811l-1429.7977 0l0 -17.811z" clip-rule="evenodd" transform="matrix(1 0 0 -1 251.0089 538)" class="svg-elem-15"></path></clipPath><clipPath id="eaf-f3e7-16"><path d="m0 0l1429.7977 0l0 17.811l-1429.7977 0l0 -17.811z" clip-rule="evenodd" transform="matrix(1 0 0 -1 251.0089 555)" class="svg-elem-16"></path></clipPath><clipPath id="eaf-f3e7-17"><path d="m0 0l1429.7977 0l0 17.811l-1429.7977 0l0 -17.811z" clip-rule="evenodd" transform="matrix(1 0 0 -1 251.0089 572)" class="svg-elem-17"></path></clipPath><clipPath id="eaf-f3e7-18"><path d="m0 0l1429.7977 0l0 17.811l-1429.7977 0l0 -17.811z" clip-rule="evenodd" transform="matrix(1 0 0 -1 251.0089 589)" class="svg-elem-18"></path></clipPath><clipPath id="eaf-f3e7-19"><path d="m0 0l1429.7977 0l0 17.811l-1429.7977 0l0 -17.811z" clip-rule="evenodd" transform="matrix(1 0 0 -1 251.0089 606)" class="svg-elem-19"></path></clipPath><clipPath id="eaf-f3e7-20"><path d="m0 0l1429.7977 0l0 17.811l-1429.7977 0l0 -17.811z" clip-rule="evenodd" transform="matrix(1 0 0 -1 251.0089 623)" class="svg-elem-20"></path></clipPath><clipPath id="eaf-f3e7-21"><path d="m0 0l1429.7977 0l0 17.811l-1429.7977 0l0 -17.811z" clip-rule="evenodd" transform="matrix(1 0 0 -1 251.0089 684)" class="svg-elem-21"></path></clipPath><clipPath id="eaf-f3e7-22"><path d="m0 0l1429.7977 0l0 17.811l-1429.7977 0l0 -17.811z" clip-rule="evenodd" transform="matrix(1 0 0 -1 251.0089 667)" class="svg-elem-22"></path></clipPath><clipPath id="eaf-f3e7-23"><path d="m0 0l1429.7977 0l0 17.811l-1429.7977 0l0 -17.811z" clip-rule="evenodd" transform="matrix(1 0 0 -1 251.0089 650)" class="svg-elem-23"></path></clipPath><clipPath id="eaf-f3e7-24"><path d="m0 0l1429.7977 0l0 17.811l-1429.7977 0l0 -17.811z" clip-rule="evenodd" transform="matrix(1 0 0 -1 251.0089 639)" class="svg-elem-24"></path></clipPath><clipPath id="eaf-f3e7-25"><path d="m0 0l1429.7977 0l0 17.811l-1429.7977 0l0 -17.811z" clip-rule="evenodd" transform="matrix(1 0 0 -1 251.0089 701)" class="svg-elem-25"></path></clipPath><clipPath id="eaf-f3e7-26"><path d="m0 0l1429.7977 0l0 17.811l-1429.7977 0l0 -17.811z" clip-rule="evenodd" transform="matrix(1 0 0 -1 251.0089 718)" class="svg-elem-26"></path></clipPath><clipPath id="eaf-f3e7-27"><path d="m0 0l1429.7977 0l0 17.811l-1429.7977 0l0 -17.811z" clip-rule="evenodd" transform="matrix(1 0 0 -1 251.0089 735)" class="svg-elem-27"></path></clipPath><style>#eaf-f3e7-0 * {animation: 5000ms linear infinite normal both running;offset-rotate:0deg}@keyframes eaf-f3e7-28{0%,100%{transform:translate(251.0089px,307.776px)}}@keyframes eaf-f3e7-29{0%{transform:scale(0,1);animation-timing-function:cubic-bezier(1,0.01,0.44,0.99)}10%,100%{transform:scale(1,1)}}@keyframes eaf-f3e7-30{0%,100%{transform:translate(-251.0089px,-307.776px)}}@keyframes eaf-f3e7-31{0%,100%{transform:translate(251.0089px,324.776px)}}@keyframes eaf-f3e7-32{0%{transform:scale(0,1);animation-timing-function:cubic-bezier(1,0.01,0.44,0.99)}11%,100%{transform:scale(1,1)}}@keyframes eaf-f3e7-33{0%,100%{transform:translate(-251.0089px,-324.776px)}}@keyframes eaf-f3e7-34{0%{transform:scale(0,1);animation-timing-function:cubic-bezier(1,0.01,0.44,0.99)}12%,100%{transform:scale(1,1)}}@keyframes eaf-f3e7-35{0%{transform:scale(0,1);animation-timing-function:cubic-bezier(1,0.01,0.44,0.99)}13%,100%{transform:scale(1,1)}}@keyframes eaf-f3e7-36{0%,100%{transform:translate(251.0089px,383.587px)}}@keyframes eaf-f3e7-37{0%{transform:scale(0,1);animation-timing-function:cubic-bezier(1,0.01,0.44,0.99)}14%,100%{transform:scale(1,1)}}@keyframes eaf-f3e7-38{0%,100%{transform:translate(-251.0089px,-384.587px)}}@keyframes eaf-f3e7-39{0%{transform:scale(0,1);animation-timing-function:cubic-bezier(1,0.01,0.44,0.99)}15%,100%{transform:scale(1,1)}}@keyframes eaf-f3e7-40{0%,100%{transform:translate(251.0089px,417.9014px)}}@keyframes eaf-f3e7-41{0%{transform:scale(0,1);animation-timing-function:cubic-bezier(1,0.01,0.44,0.99)}16%,100%{transform:scale(1,1)}}@keyframes eaf-f3e7-42{0%,100%{transform:translate(-251.0089px,-418.9014px)}}@keyframes eaf-f3e7-43{0%{transform:scale(0,1);animation-timing-function:cubic-bezier(1,0.01,0.44,0.99)}17%,100%{transform:scale(1,1)}}@keyframes eaf-f3e7-44{0%{transform:scale(0,1);animation-timing-function:cubic-bezier(1,0.01,0.44,0.99)}18%,100%{transform:scale(1,1)}}@keyframes eaf-f3e7-45{0%{transform:scale(0,1);animation-timing-function:cubic-bezier(1,0.01,0.44,0.99)}19%,100%{transform:scale(1,1)}}@keyframes eaf-f3e7-46{0%{transform:scale(0,1);animation-timing-function:cubic-bezier(1,0.01,0.44,0.99)}20%,100%{transform:scale(1,1)}}@keyframes eaf-f3e7-47{0%{transform:scale(0,1);animation-timing-function:cubic-bezier(1,0.01,0.44,0.99)}21%,100%{transform:scale(1,1)}}@keyframes eaf-f3e7-48{0%{transform:scale(0,1);animation-timing-function:cubic-bezier(1,0.01,0.44,0.99)}22%,100%{transform:scale(1,1)}}@keyframes eaf-f3e7-49{0%{transform:scale(0,1);animation-timing-function:cubic-bezier(1,0.01,0.44,0.99)}23%,100%{transform:scale(1,1)}}@keyframes eaf-f3e7-50{0%{transform:scale(0,1);animation-timing-function:cubic-bezier(1,0.01,0.44,0.99)}24%,100%{transform:scale(1,1)}}@keyframes eaf-f3e7-51{0%{transform:scale(0,1);animation-timing-function:cubic-bezier(1,0.01,0.44,0.99)}25%,100%{transform:scale(1,1)}}@keyframes eaf-f3e7-52{0%{transform:scale(0,1);animation-timing-function:cubic-bezier(1,0.01,0.44,0.99)}26%,100%{transform:scale(1,1)}}@keyframes eaf-f3e7-53{0%{transform:scale(0,1);animation-timing-function:cubic-bezier(1,0.01,0.44,0.99)}27%,100%{transform:scale(1,1)}}@keyframes eaf-f3e7-54{0%{transform:scale(0,1);animation-timing-function:cubic-bezier(1,0.01,0.44,0.99)}28%,100%{transform:scale(1,1)}}@keyframes eaf-f3e7-55{0%{transform:scale(0,1);animation-timing-function:cubic-bezier(1,0.01,0.44,0.99)}29%,100%{transform:scale(1,1)}}@keyframes eaf-f3e7-56{0%{transform:scale(0,1);animation-timing-function:cubic-bezier(1,0.01,0.44,0.99)}30%,100%{transform:scale(1,1)}}@keyframes eaf-f3e7-57{0%,100%{transform:translate(250.0506px,708.1274px)}}@keyframes eaf-f3e7-58{0%{transform:scale(0,1);animation-timing-function:cubic-bezier(1,0.01,0.44,0.99)}31%,100%{transform:scale(1,1)}}@keyframes eaf-f3e7-59{0%,100%{transform:translate(-251.0089px,-709.0945px)}}@keyframes eaf-f3e7-60{0%,100%{transform:translate(248.6621px,725.1774px)}}@keyframes eaf-f3e7-61{0%{transform:scale(0,1);animation-timing-function:cubic-bezier(1,0.01,0.44,0.99)}31.66%,100%{transform:scale(1,1)}}@keyframes eaf-f3e7-62{0%,100%{transform:translate(-251.009px,-726.0945px)}}</style></defs><g clip-path="url('#eaf-f3e7-1')" style="isolation: isolate;"><g><g transform="matrix(0 0 0 1 251.0089 0)" clip-path="url('#eaf-f3e7-2')" style="animation-name: eaf-f3e7-28, eaf-f3e7-29, eaf-f3e7-30; animation-composition: replace, add, add;"><g transform="matrix(7.0565 0 0 7.2355 258.8644 222.7104)"><g><path fill="#e72427" d="m22.5 27.5c0 -0.7 -0.5 -1.5 -1.6 -1.8l-4.8 -1.3c-3.7 -1 -5.3 -3.7 -5.3 -6.5c0 -2.8 2.7 -7.2 7.2 -7.2l8.8 0l0 5.4l-8.4 0c-1.2 0 -1.9 0.8 -1.9 1.6c0 0.8 0.4 1.2 1.3 1.5l5.2 1.4c3.7 1 5.3 3.8 5.3 6.6c0 2.8 -2.8 7.3 -7.8 7.3l-9.5 0l0 -5.4l9.4 0c1.2 0 1.9 -0.8 1.9 -1.7l0.2 0.1z" class="svg-elem-28"></path><path fill="#e72427" d="m30 11.1l5 0l0 5.1l-5 0l0 -5.1zm0 6.8l5 0l0 16.7l-5 0l0 -16.7z" class="svg-elem-29"></path><path fill="#e72427" d="m52.4 25.7l0 8.9l-5 0l0 -8.9c0 -2.4 -0.7 -3.5 -2.6 -3.5c-1.9 0 -2.6 1.1 -2.6 3.5l0 8.9l-5 0l0 -9.6c0 -4.6 2.4 -7.5 6.9 -7.5c4.5 0 4.7 1.2 5.8 3.2c1 -2 2.9 -3.2 5.7 -3.2c4.5 0 6.9 2.9 6.9 7.5l0 9.6l-5 0l0 -8.9c0 -2.4 -0.7 -3.5 -2.6 -3.5c-1.9 0 -2.6 1.1 -2.6 3.5l0.1 0z" class="svg-elem-30"></path><path fill="#e72427" d="m22.5 56.5c0 -0.7 -0.5 -1.5 -1.6 -1.8l-4.8 -1.3c-3.7 -1 -5.3 -3.7 -5.3 -6.5c0 -2.8 2.7 -7.2 7.2 -7.2l8.8 0l0 5.4l-8.4 0c-1.2 0 -1.9 0.8 -1.9 1.6c0 0.8 0.4 1.2 1.3 1.5l5.2 1.4c3.7 1 5.3 3.8 5.3 6.6c0 2.8 -2.8 7.3 -7.8 7.3l-9.5 0l0 -5.4l9.4 0c1.2 0 1.9 -0.8 1.9 -1.7l0.2 0.1z" class="svg-elem-31"></path><path fill="#e72427" d="m29.3 55.2c0 -5.1 3.7 -8.7 8.8 -8.7c5.1 0 8.8 3.6 8.8 8.8c0 5.2 0 1 0 1.4l-12.6 0c0.5 1.8 1.8 2.9 3.8 2.9c2 0 2.7 -0.6 3.3 -1.6l5.2 0c-1.1 3.5 -4.2 5.9 -8.4 5.9c-4.2 0 -8.8 -3.6 -8.8 -8.7l-0.1 0zm12.5 -1.9c-0.4 -1.6 -1.7 -2.6 -3.6 -2.6c-1.9 0 -3.2 1 -3.8 2.6l7.4 0z" class="svg-elem-32"></path><path fill="#e72427" d="m50 46.9l0 -4.8l5 0l0 4.8l4.6 0l0 4.2l-4.6 0l0 5.1c0 2 0.8 3 2.6 3l2.3 0l0 4.4l-2.8 0c-4.3 0 -7.1 -2.4 -7.1 -7l0 -5.4l-3.5 0l0 -4.2l3.5 0l0 -0.1z" class="svg-elem-33"></path><path fill="#e72427" d="m70.9 56.1l0 -9.2l5 0l0 10c0 4.3 -3.1 7 -7.6 7c-4.5 0 -7.6 -2.8 -7.6 -7l0 -10l5 0l0 9.2c0 2 0.9 3.1 2.6 3.1c1.7 0 2.6 -1 2.6 -3.1z" class="svg-elem-34"></path><path fill="#e72427" d="m77.8 46.9l5 0l0 2.4c1 -1.8 3.3 -2.9 5.6 -2.9c4.4 0 8 3.8 8 8.6c0 4.8 -3.5 8.5 -8 8.5c-4.5 0 -4.6 -1 -5.6 -2.9l0 8.9l-5 0l0 -22.7l0 0.1zm9.4 12.3c2.2 0 4.1 -1.6 4.1 -4.2c0 -2.6 -1.9 -4.2 -4.1 -4.2c-2.2 0 -4.1 1.7 -4.1 4.2c0 2.5 2 4.2 4.1 4.2z" class="svg-elem-35"></path><path fill="#e72427" d="m97.8 59.3l7.1 0c0.7 0 1.2 -0.5 1.2 -1c0 -0.5 -0.3 -0.9 -1.1 -1l-3.6 -0.5c-2.7 -0.4 -4.1 -2.5 -4.1 -4.7c0 -2.2 1.9 -5.2 5.7 -5.2l6.6 0l0 4.2l-6.4 0c-0.7 0 -1 0.5 -1 1c0 0.5 0.2 0.8 0.8 0.9l3.5 0.5c3.1 0.4 4.6 2.7 4.6 4.9c0 2.2 -1.9 5.2 -5.4 5.2l-7.9 0l0 -4.2l0 -0.1z" class="svg-elem-36"></path></g></g></g><g transform="matrix(0 0 0 1 251.0089 0)" clip-path="url('#eaf-f3e7-3')" style="animation-name: eaf-f3e7-31, eaf-f3e7-32, eaf-f3e7-33; animation-composition: replace, add, add;"><g transform="matrix(7.0565 0 0 7.2355 258.8644 222.7104)"><g><path fill="#e72427" d="m22.5 27.5c0 -0.7 -0.5 -1.5 -1.6 -1.8l-4.8 -1.3c-3.7 -1 -5.3 -3.7 -5.3 -6.5c0 -2.8 2.7 -7.2 7.2 -7.2l8.8 0l0 5.4l-8.4 0c-1.2 0 -1.9 0.8 -1.9 1.6c0 0.8 0.4 1.2 1.3 1.5l5.2 1.4c3.7 1 5.3 3.8 5.3 6.6c0 2.8 -2.8 7.3 -7.8 7.3l-9.5 0l0 -5.4l9.4 0c1.2 0 1.9 -0.8 1.9 -1.7l0.2 0.1z" class="svg-elem-37"></path><path fill="#e72427" d="m30 11.1l5 0l0 5.1l-5 0l0 -5.1zm0 6.8l5 0l0 16.7l-5 0l0 -16.7z" class="svg-elem-38"></path><path fill="#e72427" d="m52.4 25.7l0 8.9l-5 0l0 -8.9c0 -2.4 -0.7 -3.5 -2.6 -3.5c-1.9 0 -2.6 1.1 -2.6 3.5l0 8.9l-5 0l0 -9.6c0 -4.6 2.4 -7.5 6.9 -7.5c4.5 0 4.7 1.2 5.8 3.2c1 -2 2.9 -3.2 5.7 -3.2c4.5 0 6.9 2.9 6.9 7.5l0 9.6l-5 0l0 -8.9c0 -2.4 -0.7 -3.5 -2.6 -3.5c-1.9 0 -2.6 1.1 -2.6 3.5l0.1 0z" class="svg-elem-39"></path><path fill="#e72427" d="m22.5 56.5c0 -0.7 -0.5 -1.5 -1.6 -1.8l-4.8 -1.3c-3.7 -1 -5.3 -3.7 -5.3 -6.5c0 -2.8 2.7 -7.2 7.2 -7.2l8.8 0l0 5.4l-8.4 0c-1.2 0 -1.9 0.8 -1.9 1.6c0 0.8 0.4 1.2 1.3 1.5l5.2 1.4c3.7 1 5.3 3.8 5.3 6.6c0 2.8 -2.8 7.3 -7.8 7.3l-9.5 0l0 -5.4l9.4 0c1.2 0 1.9 -0.8 1.9 -1.7l0.2 0.1z" class="svg-elem-40"></path><path fill="#e72427" d="m29.3 55.2c0 -5.1 3.7 -8.7 8.8 -8.7c5.1 0 8.8 3.6 8.8 8.8c0 5.2 0 1 0 1.4l-12.6 0c0.5 1.8 1.8 2.9 3.8 2.9c2 0 2.7 -0.6 3.3 -1.6l5.2 0c-1.1 3.5 -4.2 5.9 -8.4 5.9c-4.2 0 -8.8 -3.6 -8.8 -8.7l-0.1 0zm12.5 -1.9c-0.4 -1.6 -1.7 -2.6 -3.6 -2.6c-1.9 0 -3.2 1 -3.8 2.6l7.4 0z" class="svg-elem-41"></path><path fill="#e72427" d="m50 46.9l0 -4.8l5 0l0 4.8l4.6 0l0 4.2l-4.6 0l0 5.1c0 2 0.8 3 2.6 3l2.3 0l0 4.4l-2.8 0c-4.3 0 -7.1 -2.4 -7.1 -7l0 -5.4l-3.5 0l0 -4.2l3.5 0l0 -0.1z" class="svg-elem-42"></path><path fill="#e72427" d="m70.9 56.1l0 -9.2l5 0l0 10c0 4.3 -3.1 7 -7.6 7c-4.5 0 -7.6 -2.8 -7.6 -7l0 -10l5 0l0 9.2c0 2 0.9 3.1 2.6 3.1c1.7 0 2.6 -1 2.6 -3.1z" class="svg-elem-43"></path><path fill="#e72427" d="m77.8 46.9l5 0l0 2.4c1 -1.8 3.3 -2.9 5.6 -2.9c4.4 0 8 3.8 8 8.6c0 4.8 -3.5 8.5 -8 8.5c-4.5 0 -4.6 -1 -5.6 -2.9l0 8.9l-5 0l0 -22.7l0 0.1zm9.4 12.3c2.2 0 4.1 -1.6 4.1 -4.2c0 -2.6 -1.9 -4.2 -4.1 -4.2c-2.2 0 -4.1 1.7 -4.1 4.2c0 2.5 2 4.2 4.1 4.2z" class="svg-elem-44"></path><path fill="#e72427" d="m97.8 59.3l7.1 0c0.7 0 1.2 -0.5 1.2 -1c0 -0.5 -0.3 -0.9 -1.1 -1l-3.6 -0.5c-2.7 -0.4 -4.1 -2.5 -4.1 -4.7c0 -2.2 1.9 -5.2 5.7 -5.2l6.6 0l0 4.2l-6.4 0c-0.7 0 -1 0.5 -1 1c0 0.5 0.2 0.8 0.8 0.9l3.5 0.5c3.1 0.4 4.6 2.7 4.6 4.9c0 2.2 -1.9 5.2 -5.4 5.2l-7.9 0l0 -4.2l0 -0.1z" class="svg-elem-45"></path></g></g></g><g transform="matrix(0 0 0 1 251.0089 0)" clip-path="url('#eaf-f3e7-4')" style="animation-name: eaf-f3e7-28, eaf-f3e7-34, eaf-f3e7-30; animation-composition: replace, add, add;"><g transform="matrix(7.0565 0 0 7.2355 258.8644 222.7104)"><g><path fill="#e72427" d="m22.5 27.5c0 -0.7 -0.5 -1.5 -1.6 -1.8l-4.8 -1.3c-3.7 -1 -5.3 -3.7 -5.3 -6.5c0 -2.8 2.7 -7.2 7.2 -7.2l8.8 0l0 5.4l-8.4 0c-1.2 0 -1.9 0.8 -1.9 1.6c0 0.8 0.4 1.2 1.3 1.5l5.2 1.4c3.7 1 5.3 3.8 5.3 6.6c0 2.8 -2.8 7.3 -7.8 7.3l-9.5 0l0 -5.4l9.4 0c1.2 0 1.9 -0.8 1.9 -1.7l0.2 0.1z" class="svg-elem-46"></path><path fill="#e72427" d="m30 11.1l5 0l0 5.1l-5 0l0 -5.1zm0 6.8l5 0l0 16.7l-5 0l0 -16.7z" class="svg-elem-47"></path><path fill="#e72427" d="m52.4 25.7l0 8.9l-5 0l0 -8.9c0 -2.4 -0.7 -3.5 -2.6 -3.5c-1.9 0 -2.6 1.1 -2.6 3.5l0 8.9l-5 0l0 -9.6c0 -4.6 2.4 -7.5 6.9 -7.5c4.5 0 4.7 1.2 5.8 3.2c1 -2 2.9 -3.2 5.7 -3.2c4.5 0 6.9 2.9 6.9 7.5l0 9.6l-5 0l0 -8.9c0 -2.4 -0.7 -3.5 -2.6 -3.5c-1.9 0 -2.6 1.1 -2.6 3.5l0.1 0z" class="svg-elem-48"></path><path fill="#e72427" d="m22.5 56.5c0 -0.7 -0.5 -1.5 -1.6 -1.8l-4.8 -1.3c-3.7 -1 -5.3 -3.7 -5.3 -6.5c0 -2.8 2.7 -7.2 7.2 -7.2l8.8 0l0 5.4l-8.4 0c-1.2 0 -1.9 0.8 -1.9 1.6c0 0.8 0.4 1.2 1.3 1.5l5.2 1.4c3.7 1 5.3 3.8 5.3 6.6c0 2.8 -2.8 7.3 -7.8 7.3l-9.5 0l0 -5.4l9.4 0c1.2 0 1.9 -0.8 1.9 -1.7l0.2 0.1z" class="svg-elem-49"></path><path fill="#e72427" d="m29.3 55.2c0 -5.1 3.7 -8.7 8.8 -8.7c5.1 0 8.8 3.6 8.8 8.8c0 5.2 0 1 0 1.4l-12.6 0c0.5 1.8 1.8 2.9 3.8 2.9c2 0 2.7 -0.6 3.3 -1.6l5.2 0c-1.1 3.5 -4.2 5.9 -8.4 5.9c-4.2 0 -8.8 -3.6 -8.8 -8.7l-0.1 0zm12.5 -1.9c-0.4 -1.6 -1.7 -2.6 -3.6 -2.6c-1.9 0 -3.2 1 -3.8 2.6l7.4 0z" class="svg-elem-50"></path><path fill="#e72427" d="m50 46.9l0 -4.8l5 0l0 4.8l4.6 0l0 4.2l-4.6 0l0 5.1c0 2 0.8 3 2.6 3l2.3 0l0 4.4l-2.8 0c-4.3 0 -7.1 -2.4 -7.1 -7l0 -5.4l-3.5 0l0 -4.2l3.5 0l0 -0.1z" class="svg-elem-51"></path><path fill="#e72427" d="m70.9 56.1l0 -9.2l5 0l0 10c0 4.3 -3.1 7 -7.6 7c-4.5 0 -7.6 -2.8 -7.6 -7l0 -10l5 0l0 9.2c0 2 0.9 3.1 2.6 3.1c1.7 0 2.6 -1 2.6 -3.1z" class="svg-elem-52"></path><path fill="#e72427" d="m77.8 46.9l5 0l0 2.4c1 -1.8 3.3 -2.9 5.6 -2.9c4.4 0 8 3.8 8 8.6c0 4.8 -3.5 8.5 -8 8.5c-4.5 0 -4.6 -1 -5.6 -2.9l0 8.9l-5 0l0 -22.7l0 0.1zm9.4 12.3c2.2 0 4.1 -1.6 4.1 -4.2c0 -2.6 -1.9 -4.2 -4.1 -4.2c-2.2 0 -4.1 1.7 -4.1 4.2c0 2.5 2 4.2 4.1 4.2z" class="svg-elem-53"></path><path fill="#e72427" d="m97.8 59.3l7.1 0c0.7 0 1.2 -0.5 1.2 -1c0 -0.5 -0.3 -0.9 -1.1 -1l-3.6 -0.5c-2.7 -0.4 -4.1 -2.5 -4.1 -4.7c0 -2.2 1.9 -5.2 5.7 -5.2l6.6 0l0 4.2l-6.4 0c-0.7 0 -1 0.5 -1 1c0 0.5 0.2 0.8 0.8 0.9l3.5 0.5c3.1 0.4 4.6 2.7 4.6 4.9c0 2.2 -1.9 5.2 -5.4 5.2l-7.9 0l0 -4.2l0 -0.1z" class="svg-elem-54"></path></g></g></g><g transform="matrix(0 0 0 1 251.0089 0)" clip-path="url('#eaf-f3e7-5')" style="animation-name: eaf-f3e7-28, eaf-f3e7-35, eaf-f3e7-30; animation-composition: replace, add, add;"><g transform="matrix(7.0565 0 0 7.2355 258.8644 222.7104)"><g><path fill="#e72427" d="m22.5 27.5c0 -0.7 -0.5 -1.5 -1.6 -1.8l-4.8 -1.3c-3.7 -1 -5.3 -3.7 -5.3 -6.5c0 -2.8 2.7 -7.2 7.2 -7.2l8.8 0l0 5.4l-8.4 0c-1.2 0 -1.9 0.8 -1.9 1.6c0 0.8 0.4 1.2 1.3 1.5l5.2 1.4c3.7 1 5.3 3.8 5.3 6.6c0 2.8 -2.8 7.3 -7.8 7.3l-9.5 0l0 -5.4l9.4 0c1.2 0 1.9 -0.8 1.9 -1.7l0.2 0.1z" class="svg-elem-55"></path><path fill="#e72427" d="m30 11.1l5 0l0 5.1l-5 0l0 -5.1zm0 6.8l5 0l0 16.7l-5 0l0 -16.7z" class="svg-elem-56"></path><path fill="#e72427" d="m52.4 25.7l0 8.9l-5 0l0 -8.9c0 -2.4 -0.7 -3.5 -2.6 -3.5c-1.9 0 -2.6 1.1 -2.6 3.5l0 8.9l-5 0l0 -9.6c0 -4.6 2.4 -7.5 6.9 -7.5c4.5 0 4.7 1.2 5.8 3.2c1 -2 2.9 -3.2 5.7 -3.2c4.5 0 6.9 2.9 6.9 7.5l0 9.6l-5 0l0 -8.9c0 -2.4 -0.7 -3.5 -2.6 -3.5c-1.9 0 -2.6 1.1 -2.6 3.5l0.1 0z" class="svg-elem-57"></path><path fill="#e72427" d="m22.5 56.5c0 -0.7 -0.5 -1.5 -1.6 -1.8l-4.8 -1.3c-3.7 -1 -5.3 -3.7 -5.3 -6.5c0 -2.8 2.7 -7.2 7.2 -7.2l8.8 0l0 5.4l-8.4 0c-1.2 0 -1.9 0.8 -1.9 1.6c0 0.8 0.4 1.2 1.3 1.5l5.2 1.4c3.7 1 5.3 3.8 5.3 6.6c0 2.8 -2.8 7.3 -7.8 7.3l-9.5 0l0 -5.4l9.4 0c1.2 0 1.9 -0.8 1.9 -1.7l0.2 0.1z" class="svg-elem-58"></path><path fill="#e72427" d="m29.3 55.2c0 -5.1 3.7 -8.7 8.8 -8.7c5.1 0 8.8 3.6 8.8 8.8c0 5.2 0 1 0 1.4l-12.6 0c0.5 1.8 1.8 2.9 3.8 2.9c2 0 2.7 -0.6 3.3 -1.6l5.2 0c-1.1 3.5 -4.2 5.9 -8.4 5.9c-4.2 0 -8.8 -3.6 -8.8 -8.7l-0.1 0zm12.5 -1.9c-0.4 -1.6 -1.7 -2.6 -3.6 -2.6c-1.9 0 -3.2 1 -3.8 2.6l7.4 0z" class="svg-elem-59"></path><path fill="#e72427" d="m50 46.9l0 -4.8l5 0l0 4.8l4.6 0l0 4.2l-4.6 0l0 5.1c0 2 0.8 3 2.6 3l2.3 0l0 4.4l-2.8 0c-4.3 0 -7.1 -2.4 -7.1 -7l0 -5.4l-3.5 0l0 -4.2l3.5 0l0 -0.1z" class="svg-elem-60"></path><path fill="#e72427" d="m70.9 56.1l0 -9.2l5 0l0 10c0 4.3 -3.1 7 -7.6 7c-4.5 0 -7.6 -2.8 -7.6 -7l0 -10l5 0l0 9.2c0 2 0.9 3.1 2.6 3.1c1.7 0 2.6 -1 2.6 -3.1z" class="svg-elem-61"></path><path fill="#e72427" d="m77.8 46.9l5 0l0 2.4c1 -1.8 3.3 -2.9 5.6 -2.9c4.4 0 8 3.8 8 8.6c0 4.8 -3.5 8.5 -8 8.5c-4.5 0 -4.6 -1 -5.6 -2.9l0 8.9l-5 0l0 -22.7l0 0.1zm9.4 12.3c2.2 0 4.1 -1.6 4.1 -4.2c0 -2.6 -1.9 -4.2 -4.1 -4.2c-2.2 0 -4.1 1.7 -4.1 4.2c0 2.5 2 4.2 4.1 4.2z" class="svg-elem-62"></path><path fill="#e72427" d="m97.8 59.3l7.1 0c0.7 0 1.2 -0.5 1.2 -1c0 -0.5 -0.3 -0.9 -1.1 -1l-3.6 -0.5c-2.7 -0.4 -4.1 -2.5 -4.1 -4.7c0 -2.2 1.9 -5.2 5.7 -5.2l6.6 0l0 4.2l-6.4 0c-0.7 0 -1 0.5 -1 1c0 0.5 0.2 0.8 0.8 0.9l3.5 0.5c3.1 0.4 4.6 2.7 4.6 4.9c0 2.2 -1.9 5.2 -5.4 5.2l-7.9 0l0 -4.2l0 -0.1z" class="svg-elem-63"></path></g></g></g><g transform="matrix(0 0 0 1 251.0089 -1)" clip-path="url('#eaf-f3e7-6')" style="animation-name: eaf-f3e7-36, eaf-f3e7-37, eaf-f3e7-38; animation-composition: replace, add, add;"><g transform="matrix(7.0565 0 0 7.2355 258.8644 223.7104)"><g><path fill="#e72427" d="m22.5 27.5c0 -0.7 -0.5 -1.5 -1.6 -1.8l-4.8 -1.3c-3.7 -1 -5.3 -3.7 -5.3 -6.5c0 -2.8 2.7 -7.2 7.2 -7.2l8.8 0l0 5.4l-8.4 0c-1.2 0 -1.9 0.8 -1.9 1.6c0 0.8 0.4 1.2 1.3 1.5l5.2 1.4c3.7 1 5.3 3.8 5.3 6.6c0 2.8 -2.8 7.3 -7.8 7.3l-9.5 0l0 -5.4l9.4 0c1.2 0 1.9 -0.8 1.9 -1.7l0.2 0.1z" class="svg-elem-64"></path><path fill="#e72427" d="m30 11.1l5 0l0 5.1l-5 0l0 -5.1zm0 6.8l5 0l0 16.7l-5 0l0 -16.7z" class="svg-elem-65"></path><path fill="#e72427" d="m52.4 25.7l0 8.9l-5 0l0 -8.9c0 -2.4 -0.7 -3.5 -2.6 -3.5c-1.9 0 -2.6 1.1 -2.6 3.5l0 8.9l-5 0l0 -9.6c0 -4.6 2.4 -7.5 6.9 -7.5c4.5 0 4.7 1.2 5.8 3.2c1 -2 2.9 -3.2 5.7 -3.2c4.5 0 6.9 2.9 6.9 7.5l0 9.6l-5 0l0 -8.9c0 -2.4 -0.7 -3.5 -2.6 -3.5c-1.9 0 -2.6 1.1 -2.6 3.5l0.1 0z" class="svg-elem-66"></path><path fill="#e72427" d="m22.5 56.5c0 -0.7 -0.5 -1.5 -1.6 -1.8l-4.8 -1.3c-3.7 -1 -5.3 -3.7 -5.3 -6.5c0 -2.8 2.7 -7.2 7.2 -7.2l8.8 0l0 5.4l-8.4 0c-1.2 0 -1.9 0.8 -1.9 1.6c0 0.8 0.4 1.2 1.3 1.5l5.2 1.4c3.7 1 5.3 3.8 5.3 6.6c0 2.8 -2.8 7.3 -7.8 7.3l-9.5 0l0 -5.4l9.4 0c1.2 0 1.9 -0.8 1.9 -1.7l0.2 0.1z" class="svg-elem-67"></path><path fill="#e72427" d="m29.3 55.2c0 -5.1 3.7 -8.7 8.8 -8.7c5.1 0 8.8 3.6 8.8 8.8c0 5.2 0 1 0 1.4l-12.6 0c0.5 1.8 1.8 2.9 3.8 2.9c2 0 2.7 -0.6 3.3 -1.6l5.2 0c-1.1 3.5 -4.2 5.9 -8.4 5.9c-4.2 0 -8.8 -3.6 -8.8 -8.7l-0.1 0zm12.5 -1.9c-0.4 -1.6 -1.7 -2.6 -3.6 -2.6c-1.9 0 -3.2 1 -3.8 2.6l7.4 0z" class="svg-elem-68"></path><path fill="#e72427" d="m50 46.9l0 -4.8l5 0l0 4.8l4.6 0l0 4.2l-4.6 0l0 5.1c0 2 0.8 3 2.6 3l2.3 0l0 4.4l-2.8 0c-4.3 0 -7.1 -2.4 -7.1 -7l0 -5.4l-3.5 0l0 -4.2l3.5 0l0 -0.1z" class="svg-elem-69"></path><path fill="#e72427" d="m70.9 56.1l0 -9.2l5 0l0 10c0 4.3 -3.1 7 -7.6 7c-4.5 0 -7.6 -2.8 -7.6 -7l0 -10l5 0l0 9.2c0 2 0.9 3.1 2.6 3.1c1.7 0 2.6 -1 2.6 -3.1z" class="svg-elem-70"></path><path fill="#e72427" d="m77.8 46.9l5 0l0 2.4c1 -1.8 3.3 -2.9 5.6 -2.9c4.4 0 8 3.8 8 8.6c0 4.8 -3.5 8.5 -8 8.5c-4.5 0 -4.6 -1 -5.6 -2.9l0 8.9l-5 0l0 -22.7l0 0.1zm9.4 12.3c2.2 0 4.1 -1.6 4.1 -4.2c0 -2.6 -1.9 -4.2 -4.1 -4.2c-2.2 0 -4.1 1.7 -4.1 4.2c0 2.5 2 4.2 4.1 4.2z" class="svg-elem-71"></path><path fill="#e72427" d="m97.8 59.3l7.1 0c0.7 0 1.2 -0.5 1.2 -1c0 -0.5 -0.3 -0.9 -1.1 -1l-3.6 -0.5c-2.7 -0.4 -4.1 -2.5 -4.1 -4.7c0 -2.2 1.9 -5.2 5.7 -5.2l6.6 0l0 4.2l-6.4 0c-0.7 0 -1 0.5 -1 1c0 0.5 0.2 0.8 0.8 0.9l3.5 0.5c3.1 0.4 4.6 2.7 4.6 4.9c0 2.2 -1.9 5.2 -5.4 5.2l-7.9 0l0 -4.2l0 -0.1z" class="svg-elem-72"></path></g></g></g><g transform="matrix(0 0 0 1 251.0089 -1)" clip-path="url('#eaf-f3e7-7')" style="animation-name: eaf-f3e7-36, eaf-f3e7-39, eaf-f3e7-38; animation-composition: replace, add, add;"><g transform="matrix(7.0565 0 0 7.2355 258.8644 223.7104)"><g><path fill="#e72427" d="m22.5 27.5c0 -0.7 -0.5 -1.5 -1.6 -1.8l-4.8 -1.3c-3.7 -1 -5.3 -3.7 -5.3 -6.5c0 -2.8 2.7 -7.2 7.2 -7.2l8.8 0l0 5.4l-8.4 0c-1.2 0 -1.9 0.8 -1.9 1.6c0 0.8 0.4 1.2 1.3 1.5l5.2 1.4c3.7 1 5.3 3.8 5.3 6.6c0 2.8 -2.8 7.3 -7.8 7.3l-9.5 0l0 -5.4l9.4 0c1.2 0 1.9 -0.8 1.9 -1.7l0.2 0.1z" class="svg-elem-73"></path><path fill="#e72427" d="m30 11.1l5 0l0 5.1l-5 0l0 -5.1zm0 6.8l5 0l0 16.7l-5 0l0 -16.7z" class="svg-elem-74"></path><path fill="#e72427" d="m52.4 25.7l0 8.9l-5 0l0 -8.9c0 -2.4 -0.7 -3.5 -2.6 -3.5c-1.9 0 -2.6 1.1 -2.6 3.5l0 8.9l-5 0l0 -9.6c0 -4.6 2.4 -7.5 6.9 -7.5c4.5 0 4.7 1.2 5.8 3.2c1 -2 2.9 -3.2 5.7 -3.2c4.5 0 6.9 2.9 6.9 7.5l0 9.6l-5 0l0 -8.9c0 -2.4 -0.7 -3.5 -2.6 -3.5c-1.9 0 -2.6 1.1 -2.6 3.5l0.1 0z" class="svg-elem-75"></path><path fill="#e72427" d="m22.5 56.5c0 -0.7 -0.5 -1.5 -1.6 -1.8l-4.8 -1.3c-3.7 -1 -5.3 -3.7 -5.3 -6.5c0 -2.8 2.7 -7.2 7.2 -7.2l8.8 0l0 5.4l-8.4 0c-1.2 0 -1.9 0.8 -1.9 1.6c0 0.8 0.4 1.2 1.3 1.5l5.2 1.4c3.7 1 5.3 3.8 5.3 6.6c0 2.8 -2.8 7.3 -7.8 7.3l-9.5 0l0 -5.4l9.4 0c1.2 0 1.9 -0.8 1.9 -1.7l0.2 0.1z" class="svg-elem-76"></path><path fill="#e72427" d="m29.3 55.2c0 -5.1 3.7 -8.7 8.8 -8.7c5.1 0 8.8 3.6 8.8 8.8c0 5.2 0 1 0 1.4l-12.6 0c0.5 1.8 1.8 2.9 3.8 2.9c2 0 2.7 -0.6 3.3 -1.6l5.2 0c-1.1 3.5 -4.2 5.9 -8.4 5.9c-4.2 0 -8.8 -3.6 -8.8 -8.7l-0.1 0zm12.5 -1.9c-0.4 -1.6 -1.7 -2.6 -3.6 -2.6c-1.9 0 -3.2 1 -3.8 2.6l7.4 0z" class="svg-elem-77"></path><path fill="#e72427" d="m50 46.9l0 -4.8l5 0l0 4.8l4.6 0l0 4.2l-4.6 0l0 5.1c0 2 0.8 3 2.6 3l2.3 0l0 4.4l-2.8 0c-4.3 0 -7.1 -2.4 -7.1 -7l0 -5.4l-3.5 0l0 -4.2l3.5 0l0 -0.1z" class="svg-elem-78"></path><path fill="#e72427" d="m70.9 56.1l0 -9.2l5 0l0 10c0 4.3 -3.1 7 -7.6 7c-4.5 0 -7.6 -2.8 -7.6 -7l0 -10l5 0l0 9.2c0 2 0.9 3.1 2.6 3.1c1.7 0 2.6 -1 2.6 -3.1z" class="svg-elem-79"></path><path fill="#e72427" d="m77.8 46.9l5 0l0 2.4c1 -1.8 3.3 -2.9 5.6 -2.9c4.4 0 8 3.8 8 8.6c0 4.8 -3.5 8.5 -8 8.5c-4.5 0 -4.6 -1 -5.6 -2.9l0 8.9l-5 0l0 -22.7l0 0.1zm9.4 12.3c2.2 0 4.1 -1.6 4.1 -4.2c0 -2.6 -1.9 -4.2 -4.1 -4.2c-2.2 0 -4.1 1.7 -4.1 4.2c0 2.5 2 4.2 4.1 4.2z" class="svg-elem-80"></path><path fill="#e72427" d="m97.8 59.3l7.1 0c0.7 0 1.2 -0.5 1.2 -1c0 -0.5 -0.3 -0.9 -1.1 -1l-3.6 -0.5c-2.7 -0.4 -4.1 -2.5 -4.1 -4.7c0 -2.2 1.9 -5.2 5.7 -5.2l6.6 0l0 4.2l-6.4 0c-0.7 0 -1 0.5 -1 1c0 0.5 0.2 0.8 0.8 0.9l3.5 0.5c3.1 0.4 4.6 2.7 4.6 4.9c0 2.2 -1.9 5.2 -5.4 5.2l-7.9 0l0 -4.2l0 -0.1z" class="svg-elem-81"></path></g></g></g><g transform="matrix(0 0 0 1 251.0089 -1)" clip-path="url('#eaf-f3e7-8')" style="animation-name: eaf-f3e7-40, eaf-f3e7-41, eaf-f3e7-42; animation-composition: replace, add, add;"><g transform="matrix(7.0565 0 0 7.2355 258.8644 223.7104)"><g><path fill="#e72427" d="m22.5 27.5c0 -0.7 -0.5 -1.5 -1.6 -1.8l-4.8 -1.3c-3.7 -1 -5.3 -3.7 -5.3 -6.5c0 -2.8 2.7 -7.2 7.2 -7.2l8.8 0l0 5.4l-8.4 0c-1.2 0 -1.9 0.8 -1.9 1.6c0 0.8 0.4 1.2 1.3 1.5l5.2 1.4c3.7 1 5.3 3.8 5.3 6.6c0 2.8 -2.8 7.3 -7.8 7.3l-9.5 0l0 -5.4l9.4 0c1.2 0 1.9 -0.8 1.9 -1.7l0.2 0.1z" class="svg-elem-82"></path><path fill="#e72427" d="m30 11.1l5 0l0 5.1l-5 0l0 -5.1zm0 6.8l5 0l0 16.7l-5 0l0 -16.7z" class="svg-elem-83"></path><path fill="#e72427" d="m52.4 25.7l0 8.9l-5 0l0 -8.9c0 -2.4 -0.7 -3.5 -2.6 -3.5c-1.9 0 -2.6 1.1 -2.6 3.5l0 8.9l-5 0l0 -9.6c0 -4.6 2.4 -7.5 6.9 -7.5c4.5 0 4.7 1.2 5.8 3.2c1 -2 2.9 -3.2 5.7 -3.2c4.5 0 6.9 2.9 6.9 7.5l0 9.6l-5 0l0 -8.9c0 -2.4 -0.7 -3.5 -2.6 -3.5c-1.9 0 -2.6 1.1 -2.6 3.5l0.1 0z" class="svg-elem-84"></path><path fill="#e72427" d="m22.5 56.5c0 -0.7 -0.5 -1.5 -1.6 -1.8l-4.8 -1.3c-3.7 -1 -5.3 -3.7 -5.3 -6.5c0 -2.8 2.7 -7.2 7.2 -7.2l8.8 0l0 5.4l-8.4 0c-1.2 0 -1.9 0.8 -1.9 1.6c0 0.8 0.4 1.2 1.3 1.5l5.2 1.4c3.7 1 5.3 3.8 5.3 6.6c0 2.8 -2.8 7.3 -7.8 7.3l-9.5 0l0 -5.4l9.4 0c1.2 0 1.9 -0.8 1.9 -1.7l0.2 0.1z" class="svg-elem-85"></path><path fill="#e72427" d="m29.3 55.2c0 -5.1 3.7 -8.7 8.8 -8.7c5.1 0 8.8 3.6 8.8 8.8c0 5.2 0 1 0 1.4l-12.6 0c0.5 1.8 1.8 2.9 3.8 2.9c2 0 2.7 -0.6 3.3 -1.6l5.2 0c-1.1 3.5 -4.2 5.9 -8.4 5.9c-4.2 0 -8.8 -3.6 -8.8 -8.7l-0.1 0zm12.5 -1.9c-0.4 -1.6 -1.7 -2.6 -3.6 -2.6c-1.9 0 -3.2 1 -3.8 2.6l7.4 0z" class="svg-elem-86"></path><path fill="#e72427" d="m50 46.9l0 -4.8l5 0l0 4.8l4.6 0l0 4.2l-4.6 0l0 5.1c0 2 0.8 3 2.6 3l2.3 0l0 4.4l-2.8 0c-4.3 0 -7.1 -2.4 -7.1 -7l0 -5.4l-3.5 0l0 -4.2l3.5 0l0 -0.1z" class="svg-elem-87"></path><path fill="#e72427" d="m70.9 56.1l0 -9.2l5 0l0 10c0 4.3 -3.1 7 -7.6 7c-4.5 0 -7.6 -2.8 -7.6 -7l0 -10l5 0l0 9.2c0 2 0.9 3.1 2.6 3.1c1.7 0 2.6 -1 2.6 -3.1z" class="svg-elem-88"></path><path fill="#e72427" d="m77.8 46.9l5 0l0 2.4c1 -1.8 3.3 -2.9 5.6 -2.9c4.4 0 8 3.8 8 8.6c0 4.8 -3.5 8.5 -8 8.5c-4.5 0 -4.6 -1 -5.6 -2.9l0 8.9l-5 0l0 -22.7l0 0.1zm9.4 12.3c2.2 0 4.1 -1.6 4.1 -4.2c0 -2.6 -1.9 -4.2 -4.1 -4.2c-2.2 0 -4.1 1.7 -4.1 4.2c0 2.5 2 4.2 4.1 4.2z" class="svg-elem-89"></path><path fill="#e72427" d="m97.8 59.3l7.1 0c0.7 0 1.2 -0.5 1.2 -1c0 -0.5 -0.3 -0.9 -1.1 -1l-3.6 -0.5c-2.7 -0.4 -4.1 -2.5 -4.1 -4.7c0 -2.2 1.9 -5.2 5.7 -5.2l6.6 0l0 4.2l-6.4 0c-0.7 0 -1 0.5 -1 1c0 0.5 0.2 0.8 0.8 0.9l3.5 0.5c3.1 0.4 4.6 2.7 4.6 4.9c0 2.2 -1.9 5.2 -5.4 5.2l-7.9 0l0 -4.2l0 -0.1z" class="svg-elem-90"></path></g></g></g><g transform="matrix(0 0 0 1 251.0089 -1)" clip-path="url('#eaf-f3e7-9')" style="animation-name: eaf-f3e7-36, eaf-f3e7-43, eaf-f3e7-38; animation-composition: replace, add, add;"><g transform="matrix(7.0565 0 0 7.2355 258.8644 223.7104)"><g><path fill="#e72427" d="m22.5 27.5c0 -0.7 -0.5 -1.5 -1.6 -1.8l-4.8 -1.3c-3.7 -1 -5.3 -3.7 -5.3 -6.5c0 -2.8 2.7 -7.2 7.2 -7.2l8.8 0l0 5.4l-8.4 0c-1.2 0 -1.9 0.8 -1.9 1.6c0 0.8 0.4 1.2 1.3 1.5l5.2 1.4c3.7 1 5.3 3.8 5.3 6.6c0 2.8 -2.8 7.3 -7.8 7.3l-9.5 0l0 -5.4l9.4 0c1.2 0 1.9 -0.8 1.9 -1.7l0.2 0.1z" class="svg-elem-91"></path><path fill="#e72427" d="m30 11.1l5 0l0 5.1l-5 0l0 -5.1zm0 6.8l5 0l0 16.7l-5 0l0 -16.7z" class="svg-elem-92"></path><path fill="#e72427" d="m52.4 25.7l0 8.9l-5 0l0 -8.9c0 -2.4 -0.7 -3.5 -2.6 -3.5c-1.9 0 -2.6 1.1 -2.6 3.5l0 8.9l-5 0l0 -9.6c0 -4.6 2.4 -7.5 6.9 -7.5c4.5 0 4.7 1.2 5.8 3.2c1 -2 2.9 -3.2 5.7 -3.2c4.5 0 6.9 2.9 6.9 7.5l0 9.6l-5 0l0 -8.9c0 -2.4 -0.7 -3.5 -2.6 -3.5c-1.9 0 -2.6 1.1 -2.6 3.5l0.1 0z" class="svg-elem-93"></path><path fill="#e72427" d="m22.5 56.5c0 -0.7 -0.5 -1.5 -1.6 -1.8l-4.8 -1.3c-3.7 -1 -5.3 -3.7 -5.3 -6.5c0 -2.8 2.7 -7.2 7.2 -7.2l8.8 0l0 5.4l-8.4 0c-1.2 0 -1.9 0.8 -1.9 1.6c0 0.8 0.4 1.2 1.3 1.5l5.2 1.4c3.7 1 5.3 3.8 5.3 6.6c0 2.8 -2.8 7.3 -7.8 7.3l-9.5 0l0 -5.4l9.4 0c1.2 0 1.9 -0.8 1.9 -1.7l0.2 0.1z" class="svg-elem-94"></path><path fill="#e72427" d="m29.3 55.2c0 -5.1 3.7 -8.7 8.8 -8.7c5.1 0 8.8 3.6 8.8 8.8c0 5.2 0 1 0 1.4l-12.6 0c0.5 1.8 1.8 2.9 3.8 2.9c2 0 2.7 -0.6 3.3 -1.6l5.2 0c-1.1 3.5 -4.2 5.9 -8.4 5.9c-4.2 0 -8.8 -3.6 -8.8 -8.7l-0.1 0zm12.5 -1.9c-0.4 -1.6 -1.7 -2.6 -3.6 -2.6c-1.9 0 -3.2 1 -3.8 2.6l7.4 0z" class="svg-elem-95"></path><path fill="#e72427" d="m50 46.9l0 -4.8l5 0l0 4.8l4.6 0l0 4.2l-4.6 0l0 5.1c0 2 0.8 3 2.6 3l2.3 0l0 4.4l-2.8 0c-4.3 0 -7.1 -2.4 -7.1 -7l0 -5.4l-3.5 0l0 -4.2l3.5 0l0 -0.1z" class="svg-elem-96"></path><path fill="#e72427" d="m70.9 56.1l0 -9.2l5 0l0 10c0 4.3 -3.1 7 -7.6 7c-4.5 0 -7.6 -2.8 -7.6 -7l0 -10l5 0l0 9.2c0 2 0.9 3.1 2.6 3.1c1.7 0 2.6 -1 2.6 -3.1z" class="svg-elem-97"></path><path fill="#e72427" d="m77.8 46.9l5 0l0 2.4c1 -1.8 3.3 -2.9 5.6 -2.9c4.4 0 8 3.8 8 8.6c0 4.8 -3.5 8.5 -8 8.5c-4.5 0 -4.6 -1 -5.6 -2.9l0 8.9l-5 0l0 -22.7l0 0.1zm9.4 12.3c2.2 0 4.1 -1.6 4.1 -4.2c0 -2.6 -1.9 -4.2 -4.1 -4.2c-2.2 0 -4.1 1.7 -4.1 4.2c0 2.5 2 4.2 4.1 4.2z" class="svg-elem-98"></path><path fill="#e72427" d="m97.8 59.3l7.1 0c0.7 0 1.2 -0.5 1.2 -1c0 -0.5 -0.3 -0.9 -1.1 -1l-3.6 -0.5c-2.7 -0.4 -4.1 -2.5 -4.1 -4.7c0 -2.2 1.9 -5.2 5.7 -5.2l6.6 0l0 4.2l-6.4 0c-0.7 0 -1 0.5 -1 1c0 0.5 0.2 0.8 0.8 0.9l3.5 0.5c3.1 0.4 4.6 2.7 4.6 4.9c0 2.2 -1.9 5.2 -5.4 5.2l-7.9 0l0 -4.2l0 -0.1z" class="svg-elem-99"></path></g></g></g><g transform="matrix(0 0 0 1 251.0089 -1)" clip-path="url('#eaf-f3e7-10')" style="animation-name: eaf-f3e7-36, eaf-f3e7-44, eaf-f3e7-38; animation-composition: replace, add, add;"><g transform="matrix(7.0565 0 0 7.2355 258.8644 223.7104)"><g><path fill="#e72427" d="m22.5 27.5c0 -0.7 -0.5 -1.5 -1.6 -1.8l-4.8 -1.3c-3.7 -1 -5.3 -3.7 -5.3 -6.5c0 -2.8 2.7 -7.2 7.2 -7.2l8.8 0l0 5.4l-8.4 0c-1.2 0 -1.9 0.8 -1.9 1.6c0 0.8 0.4 1.2 1.3 1.5l5.2 1.4c3.7 1 5.3 3.8 5.3 6.6c0 2.8 -2.8 7.3 -7.8 7.3l-9.5 0l0 -5.4l9.4 0c1.2 0 1.9 -0.8 1.9 -1.7l0.2 0.1z" class="svg-elem-100"></path><path fill="#e72427" d="m30 11.1l5 0l0 5.1l-5 0l0 -5.1zm0 6.8l5 0l0 16.7l-5 0l0 -16.7z" class="svg-elem-101"></path><path fill="#e72427" d="m52.4 25.7l0 8.9l-5 0l0 -8.9c0 -2.4 -0.7 -3.5 -2.6 -3.5c-1.9 0 -2.6 1.1 -2.6 3.5l0 8.9l-5 0l0 -9.6c0 -4.6 2.4 -7.5 6.9 -7.5c4.5 0 4.7 1.2 5.8 3.2c1 -2 2.9 -3.2 5.7 -3.2c4.5 0 6.9 2.9 6.9 7.5l0 9.6l-5 0l0 -8.9c0 -2.4 -0.7 -3.5 -2.6 -3.5c-1.9 0 -2.6 1.1 -2.6 3.5l0.1 0z" class="svg-elem-102"></path><path fill="#e72427" d="m22.5 56.5c0 -0.7 -0.5 -1.5 -1.6 -1.8l-4.8 -1.3c-3.7 -1 -5.3 -3.7 -5.3 -6.5c0 -2.8 2.7 -7.2 7.2 -7.2l8.8 0l0 5.4l-8.4 0c-1.2 0 -1.9 0.8 -1.9 1.6c0 0.8 0.4 1.2 1.3 1.5l5.2 1.4c3.7 1 5.3 3.8 5.3 6.6c0 2.8 -2.8 7.3 -7.8 7.3l-9.5 0l0 -5.4l9.4 0c1.2 0 1.9 -0.8 1.9 -1.7l0.2 0.1z" class="svg-elem-103"></path><path fill="#e72427" d="m29.3 55.2c0 -5.1 3.7 -8.7 8.8 -8.7c5.1 0 8.8 3.6 8.8 8.8c0 5.2 0 1 0 1.4l-12.6 0c0.5 1.8 1.8 2.9 3.8 2.9c2 0 2.7 -0.6 3.3 -1.6l5.2 0c-1.1 3.5 -4.2 5.9 -8.4 5.9c-4.2 0 -8.8 -3.6 -8.8 -8.7l-0.1 0zm12.5 -1.9c-0.4 -1.6 -1.7 -2.6 -3.6 -2.6c-1.9 0 -3.2 1 -3.8 2.6l7.4 0z" class="svg-elem-104"></path><path fill="#e72427" d="m50 46.9l0 -4.8l5 0l0 4.8l4.6 0l0 4.2l-4.6 0l0 5.1c0 2 0.8 3 2.6 3l2.3 0l0 4.4l-2.8 0c-4.3 0 -7.1 -2.4 -7.1 -7l0 -5.4l-3.5 0l0 -4.2l3.5 0l0 -0.1z" class="svg-elem-105"></path><path fill="#e72427" d="m70.9 56.1l0 -9.2l5 0l0 10c0 4.3 -3.1 7 -7.6 7c-4.5 0 -7.6 -2.8 -7.6 -7l0 -10l5 0l0 9.2c0 2 0.9 3.1 2.6 3.1c1.7 0 2.6 -1 2.6 -3.1z" class="svg-elem-106"></path><path fill="#e72427" d="m77.8 46.9l5 0l0 2.4c1 -1.8 3.3 -2.9 5.6 -2.9c4.4 0 8 3.8 8 8.6c0 4.8 -3.5 8.5 -8 8.5c-4.5 0 -4.6 -1 -5.6 -2.9l0 8.9l-5 0l0 -22.7l0 0.1zm9.4 12.3c2.2 0 4.1 -1.6 4.1 -4.2c0 -2.6 -1.9 -4.2 -4.1 -4.2c-2.2 0 -4.1 1.7 -4.1 4.2c0 2.5 2 4.2 4.1 4.2z" class="svg-elem-107"></path><path fill="#e72427" d="m97.8 59.3l7.1 0c0.7 0 1.2 -0.5 1.2 -1c0 -0.5 -0.3 -0.9 -1.1 -1l-3.6 -0.5c-2.7 -0.4 -4.1 -2.5 -4.1 -4.7c0 -2.2 1.9 -5.2 5.7 -5.2l6.6 0l0 4.2l-6.4 0c-0.7 0 -1 0.5 -1 1c0 0.5 0.2 0.8 0.8 0.9l3.5 0.5c3.1 0.4 4.6 2.7 4.6 4.9c0 2.2 -1.9 5.2 -5.4 5.2l-7.9 0l0 -4.2l0 -0.1z" class="svg-elem-108"></path></g></g></g><g transform="matrix(0 0 0 1 251.0089 -1)" clip-path="url('#eaf-f3e7-11')" style="animation-name: eaf-f3e7-36, eaf-f3e7-45, eaf-f3e7-38; animation-composition: replace, add, add;"><g transform="matrix(7.0565 0 0 7.2355 258.8644 223.7104)"><g><path fill="#e72427" d="m22.5 27.5c0 -0.7 -0.5 -1.5 -1.6 -1.8l-4.8 -1.3c-3.7 -1 -5.3 -3.7 -5.3 -6.5c0 -2.8 2.7 -7.2 7.2 -7.2l8.8 0l0 5.4l-8.4 0c-1.2 0 -1.9 0.8 -1.9 1.6c0 0.8 0.4 1.2 1.3 1.5l5.2 1.4c3.7 1 5.3 3.8 5.3 6.6c0 2.8 -2.8 7.3 -7.8 7.3l-9.5 0l0 -5.4l9.4 0c1.2 0 1.9 -0.8 1.9 -1.7l0.2 0.1z" class="svg-elem-109"></path><path fill="#e72427" d="m30 11.1l5 0l0 5.1l-5 0l0 -5.1zm0 6.8l5 0l0 16.7l-5 0l0 -16.7z" class="svg-elem-110"></path><path fill="#e72427" d="m52.4 25.7l0 8.9l-5 0l0 -8.9c0 -2.4 -0.7 -3.5 -2.6 -3.5c-1.9 0 -2.6 1.1 -2.6 3.5l0 8.9l-5 0l0 -9.6c0 -4.6 2.4 -7.5 6.9 -7.5c4.5 0 4.7 1.2 5.8 3.2c1 -2 2.9 -3.2 5.7 -3.2c4.5 0 6.9 2.9 6.9 7.5l0 9.6l-5 0l0 -8.9c0 -2.4 -0.7 -3.5 -2.6 -3.5c-1.9 0 -2.6 1.1 -2.6 3.5l0.1 0z" class="svg-elem-111"></path><path fill="#e72427" d="m22.5 56.5c0 -0.7 -0.5 -1.5 -1.6 -1.8l-4.8 -1.3c-3.7 -1 -5.3 -3.7 -5.3 -6.5c0 -2.8 2.7 -7.2 7.2 -7.2l8.8 0l0 5.4l-8.4 0c-1.2 0 -1.9 0.8 -1.9 1.6c0 0.8 0.4 1.2 1.3 1.5l5.2 1.4c3.7 1 5.3 3.8 5.3 6.6c0 2.8 -2.8 7.3 -7.8 7.3l-9.5 0l0 -5.4l9.4 0c1.2 0 1.9 -0.8 1.9 -1.7l0.2 0.1z" class="svg-elem-112"></path><path fill="#e72427" d="m29.3 55.2c0 -5.1 3.7 -8.7 8.8 -8.7c5.1 0 8.8 3.6 8.8 8.8c0 5.2 0 1 0 1.4l-12.6 0c0.5 1.8 1.8 2.9 3.8 2.9c2 0 2.7 -0.6 3.3 -1.6l5.2 0c-1.1 3.5 -4.2 5.9 -8.4 5.9c-4.2 0 -8.8 -3.6 -8.8 -8.7l-0.1 0zm12.5 -1.9c-0.4 -1.6 -1.7 -2.6 -3.6 -2.6c-1.9 0 -3.2 1 -3.8 2.6l7.4 0z" class="svg-elem-113"></path><path fill="#e72427" d="m50 46.9l0 -4.8l5 0l0 4.8l4.6 0l0 4.2l-4.6 0l0 5.1c0 2 0.8 3 2.6 3l2.3 0l0 4.4l-2.8 0c-4.3 0 -7.1 -2.4 -7.1 -7l0 -5.4l-3.5 0l0 -4.2l3.5 0l0 -0.1z" class="svg-elem-114"></path><path fill="#e72427" d="m70.9 56.1l0 -9.2l5 0l0 10c0 4.3 -3.1 7 -7.6 7c-4.5 0 -7.6 -2.8 -7.6 -7l0 -10l5 0l0 9.2c0 2 0.9 3.1 2.6 3.1c1.7 0 2.6 -1 2.6 -3.1z" class="svg-elem-115"></path><path fill="#e72427" d="m77.8 46.9l5 0l0 2.4c1 -1.8 3.3 -2.9 5.6 -2.9c4.4 0 8 3.8 8 8.6c0 4.8 -3.5 8.5 -8 8.5c-4.5 0 -4.6 -1 -5.6 -2.9l0 8.9l-5 0l0 -22.7l0 0.1zm9.4 12.3c2.2 0 4.1 -1.6 4.1 -4.2c0 -2.6 -1.9 -4.2 -4.1 -4.2c-2.2 0 -4.1 1.7 -4.1 4.2c0 2.5 2 4.2 4.1 4.2z" class="svg-elem-116"></path><path fill="#e72427" d="m97.8 59.3l7.1 0c0.7 0 1.2 -0.5 1.2 -1c0 -0.5 -0.3 -0.9 -1.1 -1l-3.6 -0.5c-2.7 -0.4 -4.1 -2.5 -4.1 -4.7c0 -2.2 1.9 -5.2 5.7 -5.2l6.6 0l0 4.2l-6.4 0c-0.7 0 -1 0.5 -1 1c0 0.5 0.2 0.8 0.8 0.9l3.5 0.5c3.1 0.4 4.6 2.7 4.6 4.9c0 2.2 -1.9 5.2 -5.4 5.2l-7.9 0l0 -4.2l0 -0.1z" class="svg-elem-117"></path></g></g></g><g transform="matrix(0 0 0 1 251.0089 -1)" clip-path="url('#eaf-f3e7-12')" style="animation-name: eaf-f3e7-36, eaf-f3e7-46, eaf-f3e7-38; animation-composition: replace, add, add;"><g transform="matrix(7.0565 0 0 7.2355 258.8644 223.7104)"><g><path fill="#e72427" d="m22.5 27.5c0 -0.7 -0.5 -1.5 -1.6 -1.8l-4.8 -1.3c-3.7 -1 -5.3 -3.7 -5.3 -6.5c0 -2.8 2.7 -7.2 7.2 -7.2l8.8 0l0 5.4l-8.4 0c-1.2 0 -1.9 0.8 -1.9 1.6c0 0.8 0.4 1.2 1.3 1.5l5.2 1.4c3.7 1 5.3 3.8 5.3 6.6c0 2.8 -2.8 7.3 -7.8 7.3l-9.5 0l0 -5.4l9.4 0c1.2 0 1.9 -0.8 1.9 -1.7l0.2 0.1z" class="svg-elem-118"></path><path fill="#e72427" d="m30 11.1l5 0l0 5.1l-5 0l0 -5.1zm0 6.8l5 0l0 16.7l-5 0l0 -16.7z" class="svg-elem-119"></path><path fill="#e72427" d="m52.4 25.7l0 8.9l-5 0l0 -8.9c0 -2.4 -0.7 -3.5 -2.6 -3.5c-1.9 0 -2.6 1.1 -2.6 3.5l0 8.9l-5 0l0 -9.6c0 -4.6 2.4 -7.5 6.9 -7.5c4.5 0 4.7 1.2 5.8 3.2c1 -2 2.9 -3.2 5.7 -3.2c4.5 0 6.9 2.9 6.9 7.5l0 9.6l-5 0l0 -8.9c0 -2.4 -0.7 -3.5 -2.6 -3.5c-1.9 0 -2.6 1.1 -2.6 3.5l0.1 0z" class="svg-elem-120"></path><path fill="#e72427" d="m22.5 56.5c0 -0.7 -0.5 -1.5 -1.6 -1.8l-4.8 -1.3c-3.7 -1 -5.3 -3.7 -5.3 -6.5c0 -2.8 2.7 -7.2 7.2 -7.2l8.8 0l0 5.4l-8.4 0c-1.2 0 -1.9 0.8 -1.9 1.6c0 0.8 0.4 1.2 1.3 1.5l5.2 1.4c3.7 1 5.3 3.8 5.3 6.6c0 2.8 -2.8 7.3 -7.8 7.3l-9.5 0l0 -5.4l9.4 0c1.2 0 1.9 -0.8 1.9 -1.7l0.2 0.1z" class="svg-elem-121"></path><path fill="#e72427" d="m29.3 55.2c0 -5.1 3.7 -8.7 8.8 -8.7c5.1 0 8.8 3.6 8.8 8.8c0 5.2 0 1 0 1.4l-12.6 0c0.5 1.8 1.8 2.9 3.8 2.9c2 0 2.7 -0.6 3.3 -1.6l5.2 0c-1.1 3.5 -4.2 5.9 -8.4 5.9c-4.2 0 -8.8 -3.6 -8.8 -8.7l-0.1 0zm12.5 -1.9c-0.4 -1.6 -1.7 -2.6 -3.6 -2.6c-1.9 0 -3.2 1 -3.8 2.6l7.4 0z" class="svg-elem-122"></path><path fill="#e72427" d="m50 46.9l0 -4.8l5 0l0 4.8l4.6 0l0 4.2l-4.6 0l0 5.1c0 2 0.8 3 2.6 3l2.3 0l0 4.4l-2.8 0c-4.3 0 -7.1 -2.4 -7.1 -7l0 -5.4l-3.5 0l0 -4.2l3.5 0l0 -0.1z" class="svg-elem-123"></path><path fill="#e72427" d="m70.9 56.1l0 -9.2l5 0l0 10c0 4.3 -3.1 7 -7.6 7c-4.5 0 -7.6 -2.8 -7.6 -7l0 -10l5 0l0 9.2c0 2 0.9 3.1 2.6 3.1c1.7 0 2.6 -1 2.6 -3.1z" class="svg-elem-124"></path><path fill="#e72427" d="m77.8 46.9l5 0l0 2.4c1 -1.8 3.3 -2.9 5.6 -2.9c4.4 0 8 3.8 8 8.6c0 4.8 -3.5 8.5 -8 8.5c-4.5 0 -4.6 -1 -5.6 -2.9l0 8.9l-5 0l0 -22.7l0 0.1zm9.4 12.3c2.2 0 4.1 -1.6 4.1 -4.2c0 -2.6 -1.9 -4.2 -4.1 -4.2c-2.2 0 -4.1 1.7 -4.1 4.2c0 2.5 2 4.2 4.1 4.2z" class="svg-elem-125"></path><path fill="#e72427" d="m97.8 59.3l7.1 0c0.7 0 1.2 -0.5 1.2 -1c0 -0.5 -0.3 -0.9 -1.1 -1l-3.6 -0.5c-2.7 -0.4 -4.1 -2.5 -4.1 -4.7c0 -2.2 1.9 -5.2 5.7 -5.2l6.6 0l0 4.2l-6.4 0c-0.7 0 -1 0.5 -1 1c0 0.5 0.2 0.8 0.8 0.9l3.5 0.5c3.1 0.4 4.6 2.7 4.6 4.9c0 2.2 -1.9 5.2 -5.4 5.2l-7.9 0l0 -4.2l0 -0.1z" class="svg-elem-126"></path></g></g></g><g transform="matrix(0 0 0 1 251.0089 -1)" clip-path="url('#eaf-f3e7-13')" style="animation-name: eaf-f3e7-36, eaf-f3e7-47, eaf-f3e7-38; animation-composition: replace, add, add;"><g transform="matrix(7.0565 0 0 7.2355 258.8644 223.7104)"><g><path fill="#e72427" d="m22.5 27.5c0 -0.7 -0.5 -1.5 -1.6 -1.8l-4.8 -1.3c-3.7 -1 -5.3 -3.7 -5.3 -6.5c0 -2.8 2.7 -7.2 7.2 -7.2l8.8 0l0 5.4l-8.4 0c-1.2 0 -1.9 0.8 -1.9 1.6c0 0.8 0.4 1.2 1.3 1.5l5.2 1.4c3.7 1 5.3 3.8 5.3 6.6c0 2.8 -2.8 7.3 -7.8 7.3l-9.5 0l0 -5.4l9.4 0c1.2 0 1.9 -0.8 1.9 -1.7l0.2 0.1z" class="svg-elem-127"></path><path fill="#e72427" d="m30 11.1l5 0l0 5.1l-5 0l0 -5.1zm0 6.8l5 0l0 16.7l-5 0l0 -16.7z" class="svg-elem-128"></path><path fill="#e72427" d="m52.4 25.7l0 8.9l-5 0l0 -8.9c0 -2.4 -0.7 -3.5 -2.6 -3.5c-1.9 0 -2.6 1.1 -2.6 3.5l0 8.9l-5 0l0 -9.6c0 -4.6 2.4 -7.5 6.9 -7.5c4.5 0 4.7 1.2 5.8 3.2c1 -2 2.9 -3.2 5.7 -3.2c4.5 0 6.9 2.9 6.9 7.5l0 9.6l-5 0l0 -8.9c0 -2.4 -0.7 -3.5 -2.6 -3.5c-1.9 0 -2.6 1.1 -2.6 3.5l0.1 0z" class="svg-elem-129"></path><path fill="#e72427" d="m22.5 56.5c0 -0.7 -0.5 -1.5 -1.6 -1.8l-4.8 -1.3c-3.7 -1 -5.3 -3.7 -5.3 -6.5c0 -2.8 2.7 -7.2 7.2 -7.2l8.8 0l0 5.4l-8.4 0c-1.2 0 -1.9 0.8 -1.9 1.6c0 0.8 0.4 1.2 1.3 1.5l5.2 1.4c3.7 1 5.3 3.8 5.3 6.6c0 2.8 -2.8 7.3 -7.8 7.3l-9.5 0l0 -5.4l9.4 0c1.2 0 1.9 -0.8 1.9 -1.7l0.2 0.1z" class="svg-elem-130"></path><path fill="#e72427" d="m29.3 55.2c0 -5.1 3.7 -8.7 8.8 -8.7c5.1 0 8.8 3.6 8.8 8.8c0 5.2 0 1 0 1.4l-12.6 0c0.5 1.8 1.8 2.9 3.8 2.9c2 0 2.7 -0.6 3.3 -1.6l5.2 0c-1.1 3.5 -4.2 5.9 -8.4 5.9c-4.2 0 -8.8 -3.6 -8.8 -8.7l-0.1 0zm12.5 -1.9c-0.4 -1.6 -1.7 -2.6 -3.6 -2.6c-1.9 0 -3.2 1 -3.8 2.6l7.4 0z" class="svg-elem-131"></path><path fill="#e72427" d="m50 46.9l0 -4.8l5 0l0 4.8l4.6 0l0 4.2l-4.6 0l0 5.1c0 2 0.8 3 2.6 3l2.3 0l0 4.4l-2.8 0c-4.3 0 -7.1 -2.4 -7.1 -7l0 -5.4l-3.5 0l0 -4.2l3.5 0l0 -0.1z" class="svg-elem-132"></path><path fill="#e72427" d="m70.9 56.1l0 -9.2l5 0l0 10c0 4.3 -3.1 7 -7.6 7c-4.5 0 -7.6 -2.8 -7.6 -7l0 -10l5 0l0 9.2c0 2 0.9 3.1 2.6 3.1c1.7 0 2.6 -1 2.6 -3.1z" class="svg-elem-133"></path><path fill="#e72427" d="m77.8 46.9l5 0l0 2.4c1 -1.8 3.3 -2.9 5.6 -2.9c4.4 0 8 3.8 8 8.6c0 4.8 -3.5 8.5 -8 8.5c-4.5 0 -4.6 -1 -5.6 -2.9l0 8.9l-5 0l0 -22.7l0 0.1zm9.4 12.3c2.2 0 4.1 -1.6 4.1 -4.2c0 -2.6 -1.9 -4.2 -4.1 -4.2c-2.2 0 -4.1 1.7 -4.1 4.2c0 2.5 2 4.2 4.1 4.2z" class="svg-elem-134"></path><path fill="#e72427" d="m97.8 59.3l7.1 0c0.7 0 1.2 -0.5 1.2 -1c0 -0.5 -0.3 -0.9 -1.1 -1l-3.6 -0.5c-2.7 -0.4 -4.1 -2.5 -4.1 -4.7c0 -2.2 1.9 -5.2 5.7 -5.2l6.6 0l0 4.2l-6.4 0c-0.7 0 -1 0.5 -1 1c0 0.5 0.2 0.8 0.8 0.9l3.5 0.5c3.1 0.4 4.6 2.7 4.6 4.9c0 2.2 -1.9 5.2 -5.4 5.2l-7.9 0l0 -4.2l0 -0.1z" class="svg-elem-135"></path></g></g></g><g transform="matrix(0 0 0 1 251.0089 -1)" clip-path="url('#eaf-f3e7-14')" style="animation-name: eaf-f3e7-36, eaf-f3e7-48, eaf-f3e7-38; animation-composition: replace, add, add;"><g transform="matrix(7.0565 0 0 7.2355 258.8644 223.7104)"><g><path fill="#e72427" d="m22.5 27.5c0 -0.7 -0.5 -1.5 -1.6 -1.8l-4.8 -1.3c-3.7 -1 -5.3 -3.7 -5.3 -6.5c0 -2.8 2.7 -7.2 7.2 -7.2l8.8 0l0 5.4l-8.4 0c-1.2 0 -1.9 0.8 -1.9 1.6c0 0.8 0.4 1.2 1.3 1.5l5.2 1.4c3.7 1 5.3 3.8 5.3 6.6c0 2.8 -2.8 7.3 -7.8 7.3l-9.5 0l0 -5.4l9.4 0c1.2 0 1.9 -0.8 1.9 -1.7l0.2 0.1z" class="svg-elem-136"></path><path fill="#e72427" d="m30 11.1l5 0l0 5.1l-5 0l0 -5.1zm0 6.8l5 0l0 16.7l-5 0l0 -16.7z" class="svg-elem-137"></path><path fill="#e72427" d="m52.4 25.7l0 8.9l-5 0l0 -8.9c0 -2.4 -0.7 -3.5 -2.6 -3.5c-1.9 0 -2.6 1.1 -2.6 3.5l0 8.9l-5 0l0 -9.6c0 -4.6 2.4 -7.5 6.9 -7.5c4.5 0 4.7 1.2 5.8 3.2c1 -2 2.9 -3.2 5.7 -3.2c4.5 0 6.9 2.9 6.9 7.5l0 9.6l-5 0l0 -8.9c0 -2.4 -0.7 -3.5 -2.6 -3.5c-1.9 0 -2.6 1.1 -2.6 3.5l0.1 0z" class="svg-elem-138"></path><path fill="#e72427" d="m22.5 56.5c0 -0.7 -0.5 -1.5 -1.6 -1.8l-4.8 -1.3c-3.7 -1 -5.3 -3.7 -5.3 -6.5c0 -2.8 2.7 -7.2 7.2 -7.2l8.8 0l0 5.4l-8.4 0c-1.2 0 -1.9 0.8 -1.9 1.6c0 0.8 0.4 1.2 1.3 1.5l5.2 1.4c3.7 1 5.3 3.8 5.3 6.6c0 2.8 -2.8 7.3 -7.8 7.3l-9.5 0l0 -5.4l9.4 0c1.2 0 1.9 -0.8 1.9 -1.7l0.2 0.1z" class="svg-elem-139"></path><path fill="#e72427" d="m29.3 55.2c0 -5.1 3.7 -8.7 8.8 -8.7c5.1 0 8.8 3.6 8.8 8.8c0 5.2 0 1 0 1.4l-12.6 0c0.5 1.8 1.8 2.9 3.8 2.9c2 0 2.7 -0.6 3.3 -1.6l5.2 0c-1.1 3.5 -4.2 5.9 -8.4 5.9c-4.2 0 -8.8 -3.6 -8.8 -8.7l-0.1 0zm12.5 -1.9c-0.4 -1.6 -1.7 -2.6 -3.6 -2.6c-1.9 0 -3.2 1 -3.8 2.6l7.4 0z" class="svg-elem-140"></path><path fill="#e72427" d="m50 46.9l0 -4.8l5 0l0 4.8l4.6 0l0 4.2l-4.6 0l0 5.1c0 2 0.8 3 2.6 3l2.3 0l0 4.4l-2.8 0c-4.3 0 -7.1 -2.4 -7.1 -7l0 -5.4l-3.5 0l0 -4.2l3.5 0l0 -0.1z" class="svg-elem-141"></path><path fill="#e72427" d="m70.9 56.1l0 -9.2l5 0l0 10c0 4.3 -3.1 7 -7.6 7c-4.5 0 -7.6 -2.8 -7.6 -7l0 -10l5 0l0 9.2c0 2 0.9 3.1 2.6 3.1c1.7 0 2.6 -1 2.6 -3.1z" class="svg-elem-142"></path><path fill="#e72427" d="m77.8 46.9l5 0l0 2.4c1 -1.8 3.3 -2.9 5.6 -2.9c4.4 0 8 3.8 8 8.6c0 4.8 -3.5 8.5 -8 8.5c-4.5 0 -4.6 -1 -5.6 -2.9l0 8.9l-5 0l0 -22.7l0 0.1zm9.4 12.3c2.2 0 4.1 -1.6 4.1 -4.2c0 -2.6 -1.9 -4.2 -4.1 -4.2c-2.2 0 -4.1 1.7 -4.1 4.2c0 2.5 2 4.2 4.1 4.2z" class="svg-elem-143"></path><path fill="#e72427" d="m97.8 59.3l7.1 0c0.7 0 1.2 -0.5 1.2 -1c0 -0.5 -0.3 -0.9 -1.1 -1l-3.6 -0.5c-2.7 -0.4 -4.1 -2.5 -4.1 -4.7c0 -2.2 1.9 -5.2 5.7 -5.2l6.6 0l0 4.2l-6.4 0c-0.7 0 -1 0.5 -1 1c0 0.5 0.2 0.8 0.8 0.9l3.5 0.5c3.1 0.4 4.6 2.7 4.6 4.9c0 2.2 -1.9 5.2 -5.4 5.2l-7.9 0l0 -4.2l0 -0.1z" class="svg-elem-144"></path></g></g></g><g transform="matrix(0 0 0 1 251.0089 -1)" clip-path="url('#eaf-f3e7-15')" style="animation-name: eaf-f3e7-36, eaf-f3e7-49, eaf-f3e7-38; animation-composition: replace, add, add;"><g transform="matrix(7.0565 0 0 7.2355 258.8644 223.7104)"><g><path fill="#e72427" d="m22.5 27.5c0 -0.7 -0.5 -1.5 -1.6 -1.8l-4.8 -1.3c-3.7 -1 -5.3 -3.7 -5.3 -6.5c0 -2.8 2.7 -7.2 7.2 -7.2l8.8 0l0 5.4l-8.4 0c-1.2 0 -1.9 0.8 -1.9 1.6c0 0.8 0.4 1.2 1.3 1.5l5.2 1.4c3.7 1 5.3 3.8 5.3 6.6c0 2.8 -2.8 7.3 -7.8 7.3l-9.5 0l0 -5.4l9.4 0c1.2 0 1.9 -0.8 1.9 -1.7l0.2 0.1z" class="svg-elem-145"></path><path fill="#e72427" d="m30 11.1l5 0l0 5.1l-5 0l0 -5.1zm0 6.8l5 0l0 16.7l-5 0l0 -16.7z" class="svg-elem-146"></path><path fill="#e72427" d="m52.4 25.7l0 8.9l-5 0l0 -8.9c0 -2.4 -0.7 -3.5 -2.6 -3.5c-1.9 0 -2.6 1.1 -2.6 3.5l0 8.9l-5 0l0 -9.6c0 -4.6 2.4 -7.5 6.9 -7.5c4.5 0 4.7 1.2 5.8 3.2c1 -2 2.9 -3.2 5.7 -3.2c4.5 0 6.9 2.9 6.9 7.5l0 9.6l-5 0l0 -8.9c0 -2.4 -0.7 -3.5 -2.6 -3.5c-1.9 0 -2.6 1.1 -2.6 3.5l0.1 0z" class="svg-elem-147"></path><path fill="#e72427" d="m22.5 56.5c0 -0.7 -0.5 -1.5 -1.6 -1.8l-4.8 -1.3c-3.7 -1 -5.3 -3.7 -5.3 -6.5c0 -2.8 2.7 -7.2 7.2 -7.2l8.8 0l0 5.4l-8.4 0c-1.2 0 -1.9 0.8 -1.9 1.6c0 0.8 0.4 1.2 1.3 1.5l5.2 1.4c3.7 1 5.3 3.8 5.3 6.6c0 2.8 -2.8 7.3 -7.8 7.3l-9.5 0l0 -5.4l9.4 0c1.2 0 1.9 -0.8 1.9 -1.7l0.2 0.1z" class="svg-elem-148"></path><path fill="#e72427" d="m29.3 55.2c0 -5.1 3.7 -8.7 8.8 -8.7c5.1 0 8.8 3.6 8.8 8.8c0 5.2 0 1 0 1.4l-12.6 0c0.5 1.8 1.8 2.9 3.8 2.9c2 0 2.7 -0.6 3.3 -1.6l5.2 0c-1.1 3.5 -4.2 5.9 -8.4 5.9c-4.2 0 -8.8 -3.6 -8.8 -8.7l-0.1 0zm12.5 -1.9c-0.4 -1.6 -1.7 -2.6 -3.6 -2.6c-1.9 0 -3.2 1 -3.8 2.6l7.4 0z" class="svg-elem-149"></path><path fill="#e72427" d="m50 46.9l0 -4.8l5 0l0 4.8l4.6 0l0 4.2l-4.6 0l0 5.1c0 2 0.8 3 2.6 3l2.3 0l0 4.4l-2.8 0c-4.3 0 -7.1 -2.4 -7.1 -7l0 -5.4l-3.5 0l0 -4.2l3.5 0l0 -0.1z" class="svg-elem-150"></path><path fill="#e72427" d="m70.9 56.1l0 -9.2l5 0l0 10c0 4.3 -3.1 7 -7.6 7c-4.5 0 -7.6 -2.8 -7.6 -7l0 -10l5 0l0 9.2c0 2 0.9 3.1 2.6 3.1c1.7 0 2.6 -1 2.6 -3.1z" class="svg-elem-151"></path><path fill="#e72427" d="m77.8 46.9l5 0l0 2.4c1 -1.8 3.3 -2.9 5.6 -2.9c4.4 0 8 3.8 8 8.6c0 4.8 -3.5 8.5 -8 8.5c-4.5 0 -4.6 -1 -5.6 -2.9l0 8.9l-5 0l0 -22.7l0 0.1zm9.4 12.3c2.2 0 4.1 -1.6 4.1 -4.2c0 -2.6 -1.9 -4.2 -4.1 -4.2c-2.2 0 -4.1 1.7 -4.1 4.2c0 2.5 2 4.2 4.1 4.2z" class="svg-elem-152"></path><path fill="#e72427" d="m97.8 59.3l7.1 0c0.7 0 1.2 -0.5 1.2 -1c0 -0.5 -0.3 -0.9 -1.1 -1l-3.6 -0.5c-2.7 -0.4 -4.1 -2.5 -4.1 -4.7c0 -2.2 1.9 -5.2 5.7 -5.2l6.6 0l0 4.2l-6.4 0c-0.7 0 -1 0.5 -1 1c0 0.5 0.2 0.8 0.8 0.9l3.5 0.5c3.1 0.4 4.6 2.7 4.6 4.9c0 2.2 -1.9 5.2 -5.4 5.2l-7.9 0l0 -4.2l0 -0.1z" class="svg-elem-153"></path></g></g></g><g transform="matrix(0 0 0 1 251.0089 -1)" clip-path="url('#eaf-f3e7-16')" style="animation-name: eaf-f3e7-36, eaf-f3e7-50, eaf-f3e7-38; animation-composition: replace, add, add;"><g transform="matrix(7.0565 0 0 7.2355 258.8644 223.7104)"><g><path fill="#e72427" d="m22.5 27.5c0 -0.7 -0.5 -1.5 -1.6 -1.8l-4.8 -1.3c-3.7 -1 -5.3 -3.7 -5.3 -6.5c0 -2.8 2.7 -7.2 7.2 -7.2l8.8 0l0 5.4l-8.4 0c-1.2 0 -1.9 0.8 -1.9 1.6c0 0.8 0.4 1.2 1.3 1.5l5.2 1.4c3.7 1 5.3 3.8 5.3 6.6c0 2.8 -2.8 7.3 -7.8 7.3l-9.5 0l0 -5.4l9.4 0c1.2 0 1.9 -0.8 1.9 -1.7l0.2 0.1z" class="svg-elem-154"></path><path fill="#e72427" d="m30 11.1l5 0l0 5.1l-5 0l0 -5.1zm0 6.8l5 0l0 16.7l-5 0l0 -16.7z" class="svg-elem-155"></path><path fill="#e72427" d="m52.4 25.7l0 8.9l-5 0l0 -8.9c0 -2.4 -0.7 -3.5 -2.6 -3.5c-1.9 0 -2.6 1.1 -2.6 3.5l0 8.9l-5 0l0 -9.6c0 -4.6 2.4 -7.5 6.9 -7.5c4.5 0 4.7 1.2 5.8 3.2c1 -2 2.9 -3.2 5.7 -3.2c4.5 0 6.9 2.9 6.9 7.5l0 9.6l-5 0l0 -8.9c0 -2.4 -0.7 -3.5 -2.6 -3.5c-1.9 0 -2.6 1.1 -2.6 3.5l0.1 0z" class="svg-elem-156"></path><path fill="#e72427" d="m22.5 56.5c0 -0.7 -0.5 -1.5 -1.6 -1.8l-4.8 -1.3c-3.7 -1 -5.3 -3.7 -5.3 -6.5c0 -2.8 2.7 -7.2 7.2 -7.2l8.8 0l0 5.4l-8.4 0c-1.2 0 -1.9 0.8 -1.9 1.6c0 0.8 0.4 1.2 1.3 1.5l5.2 1.4c3.7 1 5.3 3.8 5.3 6.6c0 2.8 -2.8 7.3 -7.8 7.3l-9.5 0l0 -5.4l9.4 0c1.2 0 1.9 -0.8 1.9 -1.7l0.2 0.1z" class="svg-elem-157"></path><path fill="#e72427" d="m29.3 55.2c0 -5.1 3.7 -8.7 8.8 -8.7c5.1 0 8.8 3.6 8.8 8.8c0 5.2 0 1 0 1.4l-12.6 0c0.5 1.8 1.8 2.9 3.8 2.9c2 0 2.7 -0.6 3.3 -1.6l5.2 0c-1.1 3.5 -4.2 5.9 -8.4 5.9c-4.2 0 -8.8 -3.6 -8.8 -8.7l-0.1 0zm12.5 -1.9c-0.4 -1.6 -1.7 -2.6 -3.6 -2.6c-1.9 0 -3.2 1 -3.8 2.6l7.4 0z" class="svg-elem-158"></path><path fill="#e72427" d="m50 46.9l0 -4.8l5 0l0 4.8l4.6 0l0 4.2l-4.6 0l0 5.1c0 2 0.8 3 2.6 3l2.3 0l0 4.4l-2.8 0c-4.3 0 -7.1 -2.4 -7.1 -7l0 -5.4l-3.5 0l0 -4.2l3.5 0l0 -0.1z" class="svg-elem-159"></path><path fill="#e72427" d="m70.9 56.1l0 -9.2l5 0l0 10c0 4.3 -3.1 7 -7.6 7c-4.5 0 -7.6 -2.8 -7.6 -7l0 -10l5 0l0 9.2c0 2 0.9 3.1 2.6 3.1c1.7 0 2.6 -1 2.6 -3.1z" class="svg-elem-160"></path><path fill="#e72427" d="m77.8 46.9l5 0l0 2.4c1 -1.8 3.3 -2.9 5.6 -2.9c4.4 0 8 3.8 8 8.6c0 4.8 -3.5 8.5 -8 8.5c-4.5 0 -4.6 -1 -5.6 -2.9l0 8.9l-5 0l0 -22.7l0 0.1zm9.4 12.3c2.2 0 4.1 -1.6 4.1 -4.2c0 -2.6 -1.9 -4.2 -4.1 -4.2c-2.2 0 -4.1 1.7 -4.1 4.2c0 2.5 2 4.2 4.1 4.2z" class="svg-elem-161"></path><path fill="#e72427" d="m97.8 59.3l7.1 0c0.7 0 1.2 -0.5 1.2 -1c0 -0.5 -0.3 -0.9 -1.1 -1l-3.6 -0.5c-2.7 -0.4 -4.1 -2.5 -4.1 -4.7c0 -2.2 1.9 -5.2 5.7 -5.2l6.6 0l0 4.2l-6.4 0c-0.7 0 -1 0.5 -1 1c0 0.5 0.2 0.8 0.8 0.9l3.5 0.5c3.1 0.4 4.6 2.7 4.6 4.9c0 2.2 -1.9 5.2 -5.4 5.2l-7.9 0l0 -4.2l0 -0.1z" class="svg-elem-162"></path></g></g></g><g transform="matrix(0 0 0 1 251.0089 -1)" clip-path="url('#eaf-f3e7-17')" style="animation-name: eaf-f3e7-36, eaf-f3e7-51, eaf-f3e7-38; animation-composition: replace, add, add;"><g transform="matrix(7.0565 0 0 7.2355 258.8644 223.7104)"><g><path fill="#e72427" d="m22.5 27.5c0 -0.7 -0.5 -1.5 -1.6 -1.8l-4.8 -1.3c-3.7 -1 -5.3 -3.7 -5.3 -6.5c0 -2.8 2.7 -7.2 7.2 -7.2l8.8 0l0 5.4l-8.4 0c-1.2 0 -1.9 0.8 -1.9 1.6c0 0.8 0.4 1.2 1.3 1.5l5.2 1.4c3.7 1 5.3 3.8 5.3 6.6c0 2.8 -2.8 7.3 -7.8 7.3l-9.5 0l0 -5.4l9.4 0c1.2 0 1.9 -0.8 1.9 -1.7l0.2 0.1z" class="svg-elem-163"></path><path fill="#e72427" d="m30 11.1l5 0l0 5.1l-5 0l0 -5.1zm0 6.8l5 0l0 16.7l-5 0l0 -16.7z" class="svg-elem-164"></path><path fill="#e72427" d="m52.4 25.7l0 8.9l-5 0l0 -8.9c0 -2.4 -0.7 -3.5 -2.6 -3.5c-1.9 0 -2.6 1.1 -2.6 3.5l0 8.9l-5 0l0 -9.6c0 -4.6 2.4 -7.5 6.9 -7.5c4.5 0 4.7 1.2 5.8 3.2c1 -2 2.9 -3.2 5.7 -3.2c4.5 0 6.9 2.9 6.9 7.5l0 9.6l-5 0l0 -8.9c0 -2.4 -0.7 -3.5 -2.6 -3.5c-1.9 0 -2.6 1.1 -2.6 3.5l0.1 0z" class="svg-elem-165"></path><path fill="#e72427" d="m22.5 56.5c0 -0.7 -0.5 -1.5 -1.6 -1.8l-4.8 -1.3c-3.7 -1 -5.3 -3.7 -5.3 -6.5c0 -2.8 2.7 -7.2 7.2 -7.2l8.8 0l0 5.4l-8.4 0c-1.2 0 -1.9 0.8 -1.9 1.6c0 0.8 0.4 1.2 1.3 1.5l5.2 1.4c3.7 1 5.3 3.8 5.3 6.6c0 2.8 -2.8 7.3 -7.8 7.3l-9.5 0l0 -5.4l9.4 0c1.2 0 1.9 -0.8 1.9 -1.7l0.2 0.1z" class="svg-elem-166"></path><path fill="#e72427" d="m29.3 55.2c0 -5.1 3.7 -8.7 8.8 -8.7c5.1 0 8.8 3.6 8.8 8.8c0 5.2 0 1 0 1.4l-12.6 0c0.5 1.8 1.8 2.9 3.8 2.9c2 0 2.7 -0.6 3.3 -1.6l5.2 0c-1.1 3.5 -4.2 5.9 -8.4 5.9c-4.2 0 -8.8 -3.6 -8.8 -8.7l-0.1 0zm12.5 -1.9c-0.4 -1.6 -1.7 -2.6 -3.6 -2.6c-1.9 0 -3.2 1 -3.8 2.6l7.4 0z" class="svg-elem-167"></path><path fill="#e72427" d="m50 46.9l0 -4.8l5 0l0 4.8l4.6 0l0 4.2l-4.6 0l0 5.1c0 2 0.8 3 2.6 3l2.3 0l0 4.4l-2.8 0c-4.3 0 -7.1 -2.4 -7.1 -7l0 -5.4l-3.5 0l0 -4.2l3.5 0l0 -0.1z" class="svg-elem-168"></path><path fill="#e72427" d="m70.9 56.1l0 -9.2l5 0l0 10c0 4.3 -3.1 7 -7.6 7c-4.5 0 -7.6 -2.8 -7.6 -7l0 -10l5 0l0 9.2c0 2 0.9 3.1 2.6 3.1c1.7 0 2.6 -1 2.6 -3.1z" class="svg-elem-169"></path><path fill="#e72427" d="m77.8 46.9l5 0l0 2.4c1 -1.8 3.3 -2.9 5.6 -2.9c4.4 0 8 3.8 8 8.6c0 4.8 -3.5 8.5 -8 8.5c-4.5 0 -4.6 -1 -5.6 -2.9l0 8.9l-5 0l0 -22.7l0 0.1zm9.4 12.3c2.2 0 4.1 -1.6 4.1 -4.2c0 -2.6 -1.9 -4.2 -4.1 -4.2c-2.2 0 -4.1 1.7 -4.1 4.2c0 2.5 2 4.2 4.1 4.2z" class="svg-elem-170"></path><path fill="#e72427" d="m97.8 59.3l7.1 0c0.7 0 1.2 -0.5 1.2 -1c0 -0.5 -0.3 -0.9 -1.1 -1l-3.6 -0.5c-2.7 -0.4 -4.1 -2.5 -4.1 -4.7c0 -2.2 1.9 -5.2 5.7 -5.2l6.6 0l0 4.2l-6.4 0c-0.7 0 -1 0.5 -1 1c0 0.5 0.2 0.8 0.8 0.9l3.5 0.5c3.1 0.4 4.6 2.7 4.6 4.9c0 2.2 -1.9 5.2 -5.4 5.2l-7.9 0l0 -4.2l0 -0.1z" class="svg-elem-171"></path></g></g></g><g transform="matrix(0 0 0 1 251.0089 -1)" clip-path="url('#eaf-f3e7-18')" style="animation-name: eaf-f3e7-36, eaf-f3e7-52, eaf-f3e7-38; animation-composition: replace, add, add;"><g transform="matrix(7.0565 0 0 7.2355 258.8644 223.7104)"><g><path fill="#e72427" d="m22.5 27.5c0 -0.7 -0.5 -1.5 -1.6 -1.8l-4.8 -1.3c-3.7 -1 -5.3 -3.7 -5.3 -6.5c0 -2.8 2.7 -7.2 7.2 -7.2l8.8 0l0 5.4l-8.4 0c-1.2 0 -1.9 0.8 -1.9 1.6c0 0.8 0.4 1.2 1.3 1.5l5.2 1.4c3.7 1 5.3 3.8 5.3 6.6c0 2.8 -2.8 7.3 -7.8 7.3l-9.5 0l0 -5.4l9.4 0c1.2 0 1.9 -0.8 1.9 -1.7l0.2 0.1z" class="svg-elem-172"></path><path fill="#e72427" d="m30 11.1l5 0l0 5.1l-5 0l0 -5.1zm0 6.8l5 0l0 16.7l-5 0l0 -16.7z" class="svg-elem-173"></path><path fill="#e72427" d="m52.4 25.7l0 8.9l-5 0l0 -8.9c0 -2.4 -0.7 -3.5 -2.6 -3.5c-1.9 0 -2.6 1.1 -2.6 3.5l0 8.9l-5 0l0 -9.6c0 -4.6 2.4 -7.5 6.9 -7.5c4.5 0 4.7 1.2 5.8 3.2c1 -2 2.9 -3.2 5.7 -3.2c4.5 0 6.9 2.9 6.9 7.5l0 9.6l-5 0l0 -8.9c0 -2.4 -0.7 -3.5 -2.6 -3.5c-1.9 0 -2.6 1.1 -2.6 3.5l0.1 0z" class="svg-elem-174"></path><path fill="#e72427" d="m22.5 56.5c0 -0.7 -0.5 -1.5 -1.6 -1.8l-4.8 -1.3c-3.7 -1 -5.3 -3.7 -5.3 -6.5c0 -2.8 2.7 -7.2 7.2 -7.2l8.8 0l0 5.4l-8.4 0c-1.2 0 -1.9 0.8 -1.9 1.6c0 0.8 0.4 1.2 1.3 1.5l5.2 1.4c3.7 1 5.3 3.8 5.3 6.6c0 2.8 -2.8 7.3 -7.8 7.3l-9.5 0l0 -5.4l9.4 0c1.2 0 1.9 -0.8 1.9 -1.7l0.2 0.1z" class="svg-elem-175"></path><path fill="#e72427" d="m29.3 55.2c0 -5.1 3.7 -8.7 8.8 -8.7c5.1 0 8.8 3.6 8.8 8.8c0 5.2 0 1 0 1.4l-12.6 0c0.5 1.8 1.8 2.9 3.8 2.9c2 0 2.7 -0.6 3.3 -1.6l5.2 0c-1.1 3.5 -4.2 5.9 -8.4 5.9c-4.2 0 -8.8 -3.6 -8.8 -8.7l-0.1 0zm12.5 -1.9c-0.4 -1.6 -1.7 -2.6 -3.6 -2.6c-1.9 0 -3.2 1 -3.8 2.6l7.4 0z" class="svg-elem-176"></path><path fill="#e72427" d="m50 46.9l0 -4.8l5 0l0 4.8l4.6 0l0 4.2l-4.6 0l0 5.1c0 2 0.8 3 2.6 3l2.3 0l0 4.4l-2.8 0c-4.3 0 -7.1 -2.4 -7.1 -7l0 -5.4l-3.5 0l0 -4.2l3.5 0l0 -0.1z" class="svg-elem-177"></path><path fill="#e72427" d="m70.9 56.1l0 -9.2l5 0l0 10c0 4.3 -3.1 7 -7.6 7c-4.5 0 -7.6 -2.8 -7.6 -7l0 -10l5 0l0 9.2c0 2 0.9 3.1 2.6 3.1c1.7 0 2.6 -1 2.6 -3.1z" class="svg-elem-178"></path><path fill="#e72427" d="m77.8 46.9l5 0l0 2.4c1 -1.8 3.3 -2.9 5.6 -2.9c4.4 0 8 3.8 8 8.6c0 4.8 -3.5 8.5 -8 8.5c-4.5 0 -4.6 -1 -5.6 -2.9l0 8.9l-5 0l0 -22.7l0 0.1zm9.4 12.3c2.2 0 4.1 -1.6 4.1 -4.2c0 -2.6 -1.9 -4.2 -4.1 -4.2c-2.2 0 -4.1 1.7 -4.1 4.2c0 2.5 2 4.2 4.1 4.2z" class="svg-elem-179"></path><path fill="#e72427" d="m97.8 59.3l7.1 0c0.7 0 1.2 -0.5 1.2 -1c0 -0.5 -0.3 -0.9 -1.1 -1l-3.6 -0.5c-2.7 -0.4 -4.1 -2.5 -4.1 -4.7c0 -2.2 1.9 -5.2 5.7 -5.2l6.6 0l0 4.2l-6.4 0c-0.7 0 -1 0.5 -1 1c0 0.5 0.2 0.8 0.8 0.9l3.5 0.5c3.1 0.4 4.6 2.7 4.6 4.9c0 2.2 -1.9 5.2 -5.4 5.2l-7.9 0l0 -4.2l0 -0.1z" class="svg-elem-180"></path></g></g></g><g transform="matrix(0 0 0 1 251.0089 -1)" clip-path="url('#eaf-f3e7-19')" style="animation-name: eaf-f3e7-36, eaf-f3e7-53, eaf-f3e7-38; animation-composition: replace, add, add;"><g transform="matrix(7.0565 0 0 7.2355 258.8644 223.7104)"><g><path fill="#e72427" d="m22.5 27.5c0 -0.7 -0.5 -1.5 -1.6 -1.8l-4.8 -1.3c-3.7 -1 -5.3 -3.7 -5.3 -6.5c0 -2.8 2.7 -7.2 7.2 -7.2l8.8 0l0 5.4l-8.4 0c-1.2 0 -1.9 0.8 -1.9 1.6c0 0.8 0.4 1.2 1.3 1.5l5.2 1.4c3.7 1 5.3 3.8 5.3 6.6c0 2.8 -2.8 7.3 -7.8 7.3l-9.5 0l0 -5.4l9.4 0c1.2 0 1.9 -0.8 1.9 -1.7l0.2 0.1z" class="svg-elem-181"></path><path fill="#e72427" d="m30 11.1l5 0l0 5.1l-5 0l0 -5.1zm0 6.8l5 0l0 16.7l-5 0l0 -16.7z" class="svg-elem-182"></path><path fill="#e72427" d="m52.4 25.7l0 8.9l-5 0l0 -8.9c0 -2.4 -0.7 -3.5 -2.6 -3.5c-1.9 0 -2.6 1.1 -2.6 3.5l0 8.9l-5 0l0 -9.6c0 -4.6 2.4 -7.5 6.9 -7.5c4.5 0 4.7 1.2 5.8 3.2c1 -2 2.9 -3.2 5.7 -3.2c4.5 0 6.9 2.9 6.9 7.5l0 9.6l-5 0l0 -8.9c0 -2.4 -0.7 -3.5 -2.6 -3.5c-1.9 0 -2.6 1.1 -2.6 3.5l0.1 0z" class="svg-elem-183"></path><path fill="#e72427" d="m22.5 56.5c0 -0.7 -0.5 -1.5 -1.6 -1.8l-4.8 -1.3c-3.7 -1 -5.3 -3.7 -5.3 -6.5c0 -2.8 2.7 -7.2 7.2 -7.2l8.8 0l0 5.4l-8.4 0c-1.2 0 -1.9 0.8 -1.9 1.6c0 0.8 0.4 1.2 1.3 1.5l5.2 1.4c3.7 1 5.3 3.8 5.3 6.6c0 2.8 -2.8 7.3 -7.8 7.3l-9.5 0l0 -5.4l9.4 0c1.2 0 1.9 -0.8 1.9 -1.7l0.2 0.1z" class="svg-elem-184"></path><path fill="#e72427" d="m29.3 55.2c0 -5.1 3.7 -8.7 8.8 -8.7c5.1 0 8.8 3.6 8.8 8.8c0 5.2 0 1 0 1.4l-12.6 0c0.5 1.8 1.8 2.9 3.8 2.9c2 0 2.7 -0.6 3.3 -1.6l5.2 0c-1.1 3.5 -4.2 5.9 -8.4 5.9c-4.2 0 -8.8 -3.6 -8.8 -8.7l-0.1 0zm12.5 -1.9c-0.4 -1.6 -1.7 -2.6 -3.6 -2.6c-1.9 0 -3.2 1 -3.8 2.6l7.4 0z" class="svg-elem-185"></path><path fill="#e72427" d="m50 46.9l0 -4.8l5 0l0 4.8l4.6 0l0 4.2l-4.6 0l0 5.1c0 2 0.8 3 2.6 3l2.3 0l0 4.4l-2.8 0c-4.3 0 -7.1 -2.4 -7.1 -7l0 -5.4l-3.5 0l0 -4.2l3.5 0l0 -0.1z" class="svg-elem-186"></path><path fill="#e72427" d="m70.9 56.1l0 -9.2l5 0l0 10c0 4.3 -3.1 7 -7.6 7c-4.5 0 -7.6 -2.8 -7.6 -7l0 -10l5 0l0 9.2c0 2 0.9 3.1 2.6 3.1c1.7 0 2.6 -1 2.6 -3.1z" class="svg-elem-187"></path><path fill="#e72427" d="m77.8 46.9l5 0l0 2.4c1 -1.8 3.3 -2.9 5.6 -2.9c4.4 0 8 3.8 8 8.6c0 4.8 -3.5 8.5 -8 8.5c-4.5 0 -4.6 -1 -5.6 -2.9l0 8.9l-5 0l0 -22.7l0 0.1zm9.4 12.3c2.2 0 4.1 -1.6 4.1 -4.2c0 -2.6 -1.9 -4.2 -4.1 -4.2c-2.2 0 -4.1 1.7 -4.1 4.2c0 2.5 2 4.2 4.1 4.2z" class="svg-elem-188"></path><path fill="#e72427" d="m97.8 59.3l7.1 0c0.7 0 1.2 -0.5 1.2 -1c0 -0.5 -0.3 -0.9 -1.1 -1l-3.6 -0.5c-2.7 -0.4 -4.1 -2.5 -4.1 -4.7c0 -2.2 1.9 -5.2 5.7 -5.2l6.6 0l0 4.2l-6.4 0c-0.7 0 -1 0.5 -1 1c0 0.5 0.2 0.8 0.8 0.9l3.5 0.5c3.1 0.4 4.6 2.7 4.6 4.9c0 2.2 -1.9 5.2 -5.4 5.2l-7.9 0l0 -4.2l0 -0.1z" class="svg-elem-189"></path></g></g></g><g transform="matrix(0 0 0 1 251.0089 -1)" clip-path="url('#eaf-f3e7-20')" style="animation-name: eaf-f3e7-36, eaf-f3e7-54, eaf-f3e7-38; animation-composition: replace, add, add;"><g transform="matrix(7.0565 0 0 7.2355 258.8644 223.7104)"><g><path fill="#e72427" d="m22.5 27.5c0 -0.7 -0.5 -1.5 -1.6 -1.8l-4.8 -1.3c-3.7 -1 -5.3 -3.7 -5.3 -6.5c0 -2.8 2.7 -7.2 7.2 -7.2l8.8 0l0 5.4l-8.4 0c-1.2 0 -1.9 0.8 -1.9 1.6c0 0.8 0.4 1.2 1.3 1.5l5.2 1.4c3.7 1 5.3 3.8 5.3 6.6c0 2.8 -2.8 7.3 -7.8 7.3l-9.5 0l0 -5.4l9.4 0c1.2 0 1.9 -0.8 1.9 -1.7l0.2 0.1z" class="svg-elem-190"></path><path fill="#e72427" d="m30 11.1l5 0l0 5.1l-5 0l0 -5.1zm0 6.8l5 0l0 16.7l-5 0l0 -16.7z" class="svg-elem-191"></path><path fill="#e72427" d="m52.4 25.7l0 8.9l-5 0l0 -8.9c0 -2.4 -0.7 -3.5 -2.6 -3.5c-1.9 0 -2.6 1.1 -2.6 3.5l0 8.9l-5 0l0 -9.6c0 -4.6 2.4 -7.5 6.9 -7.5c4.5 0 4.7 1.2 5.8 3.2c1 -2 2.9 -3.2 5.7 -3.2c4.5 0 6.9 2.9 6.9 7.5l0 9.6l-5 0l0 -8.9c0 -2.4 -0.7 -3.5 -2.6 -3.5c-1.9 0 -2.6 1.1 -2.6 3.5l0.1 0z" class="svg-elem-192"></path><path fill="#e72427" d="m22.5 56.5c0 -0.7 -0.5 -1.5 -1.6 -1.8l-4.8 -1.3c-3.7 -1 -5.3 -3.7 -5.3 -6.5c0 -2.8 2.7 -7.2 7.2 -7.2l8.8 0l0 5.4l-8.4 0c-1.2 0 -1.9 0.8 -1.9 1.6c0 0.8 0.4 1.2 1.3 1.5l5.2 1.4c3.7 1 5.3 3.8 5.3 6.6c0 2.8 -2.8 7.3 -7.8 7.3l-9.5 0l0 -5.4l9.4 0c1.2 0 1.9 -0.8 1.9 -1.7l0.2 0.1z" class="svg-elem-193"></path><path fill="#e72427" d="m29.3 55.2c0 -5.1 3.7 -8.7 8.8 -8.7c5.1 0 8.8 3.6 8.8 8.8c0 5.2 0 1 0 1.4l-12.6 0c0.5 1.8 1.8 2.9 3.8 2.9c2 0 2.7 -0.6 3.3 -1.6l5.2 0c-1.1 3.5 -4.2 5.9 -8.4 5.9c-4.2 0 -8.8 -3.6 -8.8 -8.7l-0.1 0zm12.5 -1.9c-0.4 -1.6 -1.7 -2.6 -3.6 -2.6c-1.9 0 -3.2 1 -3.8 2.6l7.4 0z" class="svg-elem-194"></path><path fill="#e72427" d="m50 46.9l0 -4.8l5 0l0 4.8l4.6 0l0 4.2l-4.6 0l0 5.1c0 2 0.8 3 2.6 3l2.3 0l0 4.4l-2.8 0c-4.3 0 -7.1 -2.4 -7.1 -7l0 -5.4l-3.5 0l0 -4.2l3.5 0l0 -0.1z" class="svg-elem-195"></path><path fill="#e72427" d="m70.9 56.1l0 -9.2l5 0l0 10c0 4.3 -3.1 7 -7.6 7c-4.5 0 -7.6 -2.8 -7.6 -7l0 -10l5 0l0 9.2c0 2 0.9 3.1 2.6 3.1c1.7 0 2.6 -1 2.6 -3.1z" class="svg-elem-196"></path><path fill="#e72427" d="m77.8 46.9l5 0l0 2.4c1 -1.8 3.3 -2.9 5.6 -2.9c4.4 0 8 3.8 8 8.6c0 4.8 -3.5 8.5 -8 8.5c-4.5 0 -4.6 -1 -5.6 -2.9l0 8.9l-5 0l0 -22.7l0 0.1zm9.4 12.3c2.2 0 4.1 -1.6 4.1 -4.2c0 -2.6 -1.9 -4.2 -4.1 -4.2c-2.2 0 -4.1 1.7 -4.1 4.2c0 2.5 2 4.2 4.1 4.2z" class="svg-elem-197"></path><path fill="#e72427" d="m97.8 59.3l7.1 0c0.7 0 1.2 -0.5 1.2 -1c0 -0.5 -0.3 -0.9 -1.1 -1l-3.6 -0.5c-2.7 -0.4 -4.1 -2.5 -4.1 -4.7c0 -2.2 1.9 -5.2 5.7 -5.2l6.6 0l0 4.2l-6.4 0c-0.7 0 -1 0.5 -1 1c0 0.5 0.2 0.8 0.8 0.9l3.5 0.5c3.1 0.4 4.6 2.7 4.6 4.9c0 2.2 -1.9 5.2 -5.4 5.2l-7.9 0l0 -4.2l0 -0.1z" class="svg-elem-198"></path></g></g></g><g transform="matrix(0 0 0 1 251.0089 -1)" clip-path="url('#eaf-f3e7-21')" style="animation-name: eaf-f3e7-36, eaf-f3e7-55, eaf-f3e7-38; animation-composition: replace, add, add;"><g transform="matrix(7.0565 0 0 7.2355 258.8644 223.7104)"><g><path fill="#e72427" d="m22.5 27.5c0 -0.7 -0.5 -1.5 -1.6 -1.8l-4.8 -1.3c-3.7 -1 -5.3 -3.7 -5.3 -6.5c0 -2.8 2.7 -7.2 7.2 -7.2l8.8 0l0 5.4l-8.4 0c-1.2 0 -1.9 0.8 -1.9 1.6c0 0.8 0.4 1.2 1.3 1.5l5.2 1.4c3.7 1 5.3 3.8 5.3 6.6c0 2.8 -2.8 7.3 -7.8 7.3l-9.5 0l0 -5.4l9.4 0c1.2 0 1.9 -0.8 1.9 -1.7l0.2 0.1z" class="svg-elem-199"></path><path fill="#e72427" d="m30 11.1l5 0l0 5.1l-5 0l0 -5.1zm0 6.8l5 0l0 16.7l-5 0l0 -16.7z" class="svg-elem-200"></path><path fill="#e72427" d="m52.4 25.7l0 8.9l-5 0l0 -8.9c0 -2.4 -0.7 -3.5 -2.6 -3.5c-1.9 0 -2.6 1.1 -2.6 3.5l0 8.9l-5 0l0 -9.6c0 -4.6 2.4 -7.5 6.9 -7.5c4.5 0 4.7 1.2 5.8 3.2c1 -2 2.9 -3.2 5.7 -3.2c4.5 0 6.9 2.9 6.9 7.5l0 9.6l-5 0l0 -8.9c0 -2.4 -0.7 -3.5 -2.6 -3.5c-1.9 0 -2.6 1.1 -2.6 3.5l0.1 0z" class="svg-elem-201"></path><path fill="#e72427" d="m22.5 56.5c0 -0.7 -0.5 -1.5 -1.6 -1.8l-4.8 -1.3c-3.7 -1 -5.3 -3.7 -5.3 -6.5c0 -2.8 2.7 -7.2 7.2 -7.2l8.8 0l0 5.4l-8.4 0c-1.2 0 -1.9 0.8 -1.9 1.6c0 0.8 0.4 1.2 1.3 1.5l5.2 1.4c3.7 1 5.3 3.8 5.3 6.6c0 2.8 -2.8 7.3 -7.8 7.3l-9.5 0l0 -5.4l9.4 0c1.2 0 1.9 -0.8 1.9 -1.7l0.2 0.1z" class="svg-elem-202"></path><path fill="#e72427" d="m29.3 55.2c0 -5.1 3.7 -8.7 8.8 -8.7c5.1 0 8.8 3.6 8.8 8.8c0 5.2 0 1 0 1.4l-12.6 0c0.5 1.8 1.8 2.9 3.8 2.9c2 0 2.7 -0.6 3.3 -1.6l5.2 0c-1.1 3.5 -4.2 5.9 -8.4 5.9c-4.2 0 -8.8 -3.6 -8.8 -8.7l-0.1 0zm12.5 -1.9c-0.4 -1.6 -1.7 -2.6 -3.6 -2.6c-1.9 0 -3.2 1 -3.8 2.6l7.4 0z" class="svg-elem-203"></path><path fill="#e72427" d="m50 46.9l0 -4.8l5 0l0 4.8l4.6 0l0 4.2l-4.6 0l0 5.1c0 2 0.8 3 2.6 3l2.3 0l0 4.4l-2.8 0c-4.3 0 -7.1 -2.4 -7.1 -7l0 -5.4l-3.5 0l0 -4.2l3.5 0l0 -0.1z" class="svg-elem-204"></path><path fill="#e72427" d="m70.9 56.1l0 -9.2l5 0l0 10c0 4.3 -3.1 7 -7.6 7c-4.5 0 -7.6 -2.8 -7.6 -7l0 -10l5 0l0 9.2c0 2 0.9 3.1 2.6 3.1c1.7 0 2.6 -1 2.6 -3.1z" class="svg-elem-205"></path><path fill="#e72427" d="m77.8 46.9l5 0l0 2.4c1 -1.8 3.3 -2.9 5.6 -2.9c4.4 0 8 3.8 8 8.6c0 4.8 -3.5 8.5 -8 8.5c-4.5 0 -4.6 -1 -5.6 -2.9l0 8.9l-5 0l0 -22.7l0 0.1zm9.4 12.3c2.2 0 4.1 -1.6 4.1 -4.2c0 -2.6 -1.9 -4.2 -4.1 -4.2c-2.2 0 -4.1 1.7 -4.1 4.2c0 2.5 2 4.2 4.1 4.2z" class="svg-elem-206"></path><path fill="#e72427" d="m97.8 59.3l7.1 0c0.7 0 1.2 -0.5 1.2 -1c0 -0.5 -0.3 -0.9 -1.1 -1l-3.6 -0.5c-2.7 -0.4 -4.1 -2.5 -4.1 -4.7c0 -2.2 1.9 -5.2 5.7 -5.2l6.6 0l0 4.2l-6.4 0c-0.7 0 -1 0.5 -1 1c0 0.5 0.2 0.8 0.8 0.9l3.5 0.5c3.1 0.4 4.6 2.7 4.6 4.9c0 2.2 -1.9 5.2 -5.4 5.2l-7.9 0l0 -4.2l0 -0.1z" class="svg-elem-207"></path></g></g></g><g transform="matrix(0 0 0 1 251.0089 -1)" clip-path="url('#eaf-f3e7-22')" style="animation-name: eaf-f3e7-36, eaf-f3e7-55, eaf-f3e7-38; animation-composition: replace, add, add;"><g transform="matrix(7.0565 0 0 7.2355 258.8644 223.7104)"><g><path fill="#e72427" d="m22.5 27.5c0 -0.7 -0.5 -1.5 -1.6 -1.8l-4.8 -1.3c-3.7 -1 -5.3 -3.7 -5.3 -6.5c0 -2.8 2.7 -7.2 7.2 -7.2l8.8 0l0 5.4l-8.4 0c-1.2 0 -1.9 0.8 -1.9 1.6c0 0.8 0.4 1.2 1.3 1.5l5.2 1.4c3.7 1 5.3 3.8 5.3 6.6c0 2.8 -2.8 7.3 -7.8 7.3l-9.5 0l0 -5.4l9.4 0c1.2 0 1.9 -0.8 1.9 -1.7l0.2 0.1z" class="svg-elem-208"></path><path fill="#e72427" d="m30 11.1l5 0l0 5.1l-5 0l0 -5.1zm0 6.8l5 0l0 16.7l-5 0l0 -16.7z" class="svg-elem-209"></path><path fill="#e72427" d="m52.4 25.7l0 8.9l-5 0l0 -8.9c0 -2.4 -0.7 -3.5 -2.6 -3.5c-1.9 0 -2.6 1.1 -2.6 3.5l0 8.9l-5 0l0 -9.6c0 -4.6 2.4 -7.5 6.9 -7.5c4.5 0 4.7 1.2 5.8 3.2c1 -2 2.9 -3.2 5.7 -3.2c4.5 0 6.9 2.9 6.9 7.5l0 9.6l-5 0l0 -8.9c0 -2.4 -0.7 -3.5 -2.6 -3.5c-1.9 0 -2.6 1.1 -2.6 3.5l0.1 0z" class="svg-elem-210"></path><path fill="#e72427" d="m22.5 56.5c0 -0.7 -0.5 -1.5 -1.6 -1.8l-4.8 -1.3c-3.7 -1 -5.3 -3.7 -5.3 -6.5c0 -2.8 2.7 -7.2 7.2 -7.2l8.8 0l0 5.4l-8.4 0c-1.2 0 -1.9 0.8 -1.9 1.6c0 0.8 0.4 1.2 1.3 1.5l5.2 1.4c3.7 1 5.3 3.8 5.3 6.6c0 2.8 -2.8 7.3 -7.8 7.3l-9.5 0l0 -5.4l9.4 0c1.2 0 1.9 -0.8 1.9 -1.7l0.2 0.1z" class="svg-elem-211"></path><path fill="#e72427" d="m29.3 55.2c0 -5.1 3.7 -8.7 8.8 -8.7c5.1 0 8.8 3.6 8.8 8.8c0 5.2 0 1 0 1.4l-12.6 0c0.5 1.8 1.8 2.9 3.8 2.9c2 0 2.7 -0.6 3.3 -1.6l5.2 0c-1.1 3.5 -4.2 5.9 -8.4 5.9c-4.2 0 -8.8 -3.6 -8.8 -8.7l-0.1 0zm12.5 -1.9c-0.4 -1.6 -1.7 -2.6 -3.6 -2.6c-1.9 0 -3.2 1 -3.8 2.6l7.4 0z" class="svg-elem-212"></path><path fill="#e72427" d="m50 46.9l0 -4.8l5 0l0 4.8l4.6 0l0 4.2l-4.6 0l0 5.1c0 2 0.8 3 2.6 3l2.3 0l0 4.4l-2.8 0c-4.3 0 -7.1 -2.4 -7.1 -7l0 -5.4l-3.5 0l0 -4.2l3.5 0l0 -0.1z" class="svg-elem-213"></path><path fill="#e72427" d="m70.9 56.1l0 -9.2l5 0l0 10c0 4.3 -3.1 7 -7.6 7c-4.5 0 -7.6 -2.8 -7.6 -7l0 -10l5 0l0 9.2c0 2 0.9 3.1 2.6 3.1c1.7 0 2.6 -1 2.6 -3.1z" class="svg-elem-214"></path><path fill="#e72427" d="m77.8 46.9l5 0l0 2.4c1 -1.8 3.3 -2.9 5.6 -2.9c4.4 0 8 3.8 8 8.6c0 4.8 -3.5 8.5 -8 8.5c-4.5 0 -4.6 -1 -5.6 -2.9l0 8.9l-5 0l0 -22.7l0 0.1zm9.4 12.3c2.2 0 4.1 -1.6 4.1 -4.2c0 -2.6 -1.9 -4.2 -4.1 -4.2c-2.2 0 -4.1 1.7 -4.1 4.2c0 2.5 2 4.2 4.1 4.2z" class="svg-elem-215"></path><path fill="#e72427" d="m97.8 59.3l7.1 0c0.7 0 1.2 -0.5 1.2 -1c0 -0.5 -0.3 -0.9 -1.1 -1l-3.6 -0.5c-2.7 -0.4 -4.1 -2.5 -4.1 -4.7c0 -2.2 1.9 -5.2 5.7 -5.2l6.6 0l0 4.2l-6.4 0c-0.7 0 -1 0.5 -1 1c0 0.5 0.2 0.8 0.8 0.9l3.5 0.5c3.1 0.4 4.6 2.7 4.6 4.9c0 2.2 -1.9 5.2 -5.4 5.2l-7.9 0l0 -4.2l0 -0.1z" class="svg-elem-216"></path></g></g></g><g transform="matrix(0 0 0 1 251.0089 -1)" clip-path="url('#eaf-f3e7-23')" style="animation-name: eaf-f3e7-36, eaf-f3e7-55, eaf-f3e7-38; animation-composition: replace, add, add;"><g transform="matrix(7.0565 0 0 7.2355 258.8644 223.7104)"><g><path fill="#e72427" d="m22.5 27.5c0 -0.7 -0.5 -1.5 -1.6 -1.8l-4.8 -1.3c-3.7 -1 -5.3 -3.7 -5.3 -6.5c0 -2.8 2.7 -7.2 7.2 -7.2l8.8 0l0 5.4l-8.4 0c-1.2 0 -1.9 0.8 -1.9 1.6c0 0.8 0.4 1.2 1.3 1.5l5.2 1.4c3.7 1 5.3 3.8 5.3 6.6c0 2.8 -2.8 7.3 -7.8 7.3l-9.5 0l0 -5.4l9.4 0c1.2 0 1.9 -0.8 1.9 -1.7l0.2 0.1z" class="svg-elem-217"></path><path fill="#e72427" d="m30 11.1l5 0l0 5.1l-5 0l0 -5.1zm0 6.8l5 0l0 16.7l-5 0l0 -16.7z" class="svg-elem-218"></path><path fill="#e72427" d="m52.4 25.7l0 8.9l-5 0l0 -8.9c0 -2.4 -0.7 -3.5 -2.6 -3.5c-1.9 0 -2.6 1.1 -2.6 3.5l0 8.9l-5 0l0 -9.6c0 -4.6 2.4 -7.5 6.9 -7.5c4.5 0 4.7 1.2 5.8 3.2c1 -2 2.9 -3.2 5.7 -3.2c4.5 0 6.9 2.9 6.9 7.5l0 9.6l-5 0l0 -8.9c0 -2.4 -0.7 -3.5 -2.6 -3.5c-1.9 0 -2.6 1.1 -2.6 3.5l0.1 0z" class="svg-elem-219"></path><path fill="#e72427" d="m22.5 56.5c0 -0.7 -0.5 -1.5 -1.6 -1.8l-4.8 -1.3c-3.7 -1 -5.3 -3.7 -5.3 -6.5c0 -2.8 2.7 -7.2 7.2 -7.2l8.8 0l0 5.4l-8.4 0c-1.2 0 -1.9 0.8 -1.9 1.6c0 0.8 0.4 1.2 1.3 1.5l5.2 1.4c3.7 1 5.3 3.8 5.3 6.6c0 2.8 -2.8 7.3 -7.8 7.3l-9.5 0l0 -5.4l9.4 0c1.2 0 1.9 -0.8 1.9 -1.7l0.2 0.1z" class="svg-elem-220"></path><path fill="#e72427" d="m29.3 55.2c0 -5.1 3.7 -8.7 8.8 -8.7c5.1 0 8.8 3.6 8.8 8.8c0 5.2 0 1 0 1.4l-12.6 0c0.5 1.8 1.8 2.9 3.8 2.9c2 0 2.7 -0.6 3.3 -1.6l5.2 0c-1.1 3.5 -4.2 5.9 -8.4 5.9c-4.2 0 -8.8 -3.6 -8.8 -8.7l-0.1 0zm12.5 -1.9c-0.4 -1.6 -1.7 -2.6 -3.6 -2.6c-1.9 0 -3.2 1 -3.8 2.6l7.4 0z" class="svg-elem-221"></path><path fill="#e72427" d="m50 46.9l0 -4.8l5 0l0 4.8l4.6 0l0 4.2l-4.6 0l0 5.1c0 2 0.8 3 2.6 3l2.3 0l0 4.4l-2.8 0c-4.3 0 -7.1 -2.4 -7.1 -7l0 -5.4l-3.5 0l0 -4.2l3.5 0l0 -0.1z" class="svg-elem-222"></path><path fill="#e72427" d="m70.9 56.1l0 -9.2l5 0l0 10c0 4.3 -3.1 7 -7.6 7c-4.5 0 -7.6 -2.8 -7.6 -7l0 -10l5 0l0 9.2c0 2 0.9 3.1 2.6 3.1c1.7 0 2.6 -1 2.6 -3.1z" class="svg-elem-223"></path><path fill="#e72427" d="m77.8 46.9l5 0l0 2.4c1 -1.8 3.3 -2.9 5.6 -2.9c4.4 0 8 3.8 8 8.6c0 4.8 -3.5 8.5 -8 8.5c-4.5 0 -4.6 -1 -5.6 -2.9l0 8.9l-5 0l0 -22.7l0 0.1zm9.4 12.3c2.2 0 4.1 -1.6 4.1 -4.2c0 -2.6 -1.9 -4.2 -4.1 -4.2c-2.2 0 -4.1 1.7 -4.1 4.2c0 2.5 2 4.2 4.1 4.2z" class="svg-elem-224"></path><path fill="#e72427" d="m97.8 59.3l7.1 0c0.7 0 1.2 -0.5 1.2 -1c0 -0.5 -0.3 -0.9 -1.1 -1l-3.6 -0.5c-2.7 -0.4 -4.1 -2.5 -4.1 -4.7c0 -2.2 1.9 -5.2 5.7 -5.2l6.6 0l0 4.2l-6.4 0c-0.7 0 -1 0.5 -1 1c0 0.5 0.2 0.8 0.8 0.9l3.5 0.5c3.1 0.4 4.6 2.7 4.6 4.9c0 2.2 -1.9 5.2 -5.4 5.2l-7.9 0l0 -4.2l0 -0.1z" class="svg-elem-225"></path></g></g></g><g transform="matrix(0 0 0 1 251.0089 -1)" clip-path="url('#eaf-f3e7-24')" style="animation-name: eaf-f3e7-36, eaf-f3e7-55, eaf-f3e7-38; animation-composition: replace, add, add;"><g transform="matrix(7.0565 0 0 7.2355 258.8644 223.7104)"><g><path fill="#e72427" d="m22.5 27.5c0 -0.7 -0.5 -1.5 -1.6 -1.8l-4.8 -1.3c-3.7 -1 -5.3 -3.7 -5.3 -6.5c0 -2.8 2.7 -7.2 7.2 -7.2l8.8 0l0 5.4l-8.4 0c-1.2 0 -1.9 0.8 -1.9 1.6c0 0.8 0.4 1.2 1.3 1.5l5.2 1.4c3.7 1 5.3 3.8 5.3 6.6c0 2.8 -2.8 7.3 -7.8 7.3l-9.5 0l0 -5.4l9.4 0c1.2 0 1.9 -0.8 1.9 -1.7l0.2 0.1z" class="svg-elem-226"></path><path fill="#e72427" d="m30 11.1l5 0l0 5.1l-5 0l0 -5.1zm0 6.8l5 0l0 16.7l-5 0l0 -16.7z" class="svg-elem-227"></path><path fill="#e72427" d="m52.4 25.7l0 8.9l-5 0l0 -8.9c0 -2.4 -0.7 -3.5 -2.6 -3.5c-1.9 0 -2.6 1.1 -2.6 3.5l0 8.9l-5 0l0 -9.6c0 -4.6 2.4 -7.5 6.9 -7.5c4.5 0 4.7 1.2 5.8 3.2c1 -2 2.9 -3.2 5.7 -3.2c4.5 0 6.9 2.9 6.9 7.5l0 9.6l-5 0l0 -8.9c0 -2.4 -0.7 -3.5 -2.6 -3.5c-1.9 0 -2.6 1.1 -2.6 3.5l0.1 0z" class="svg-elem-228"></path><path fill="#e72427" d="m22.5 56.5c0 -0.7 -0.5 -1.5 -1.6 -1.8l-4.8 -1.3c-3.7 -1 -5.3 -3.7 -5.3 -6.5c0 -2.8 2.7 -7.2 7.2 -7.2l8.8 0l0 5.4l-8.4 0c-1.2 0 -1.9 0.8 -1.9 1.6c0 0.8 0.4 1.2 1.3 1.5l5.2 1.4c3.7 1 5.3 3.8 5.3 6.6c0 2.8 -2.8 7.3 -7.8 7.3l-9.5 0l0 -5.4l9.4 0c1.2 0 1.9 -0.8 1.9 -1.7l0.2 0.1z" class="svg-elem-229"></path><path fill="#e72427" d="m29.3 55.2c0 -5.1 3.7 -8.7 8.8 -8.7c5.1 0 8.8 3.6 8.8 8.8c0 5.2 0 1 0 1.4l-12.6 0c0.5 1.8 1.8 2.9 3.8 2.9c2 0 2.7 -0.6 3.3 -1.6l5.2 0c-1.1 3.5 -4.2 5.9 -8.4 5.9c-4.2 0 -8.8 -3.6 -8.8 -8.7l-0.1 0zm12.5 -1.9c-0.4 -1.6 -1.7 -2.6 -3.6 -2.6c-1.9 0 -3.2 1 -3.8 2.6l7.4 0z" class="svg-elem-230"></path><path fill="#e72427" d="m50 46.9l0 -4.8l5 0l0 4.8l4.6 0l0 4.2l-4.6 0l0 5.1c0 2 0.8 3 2.6 3l2.3 0l0 4.4l-2.8 0c-4.3 0 -7.1 -2.4 -7.1 -7l0 -5.4l-3.5 0l0 -4.2l3.5 0l0 -0.1z" class="svg-elem-231"></path><path fill="#e72427" d="m70.9 56.1l0 -9.2l5 0l0 10c0 4.3 -3.1 7 -7.6 7c-4.5 0 -7.6 -2.8 -7.6 -7l0 -10l5 0l0 9.2c0 2 0.9 3.1 2.6 3.1c1.7 0 2.6 -1 2.6 -3.1z" class="svg-elem-232"></path><path fill="#e72427" d="m77.8 46.9l5 0l0 2.4c1 -1.8 3.3 -2.9 5.6 -2.9c4.4 0 8 3.8 8 8.6c0 4.8 -3.5 8.5 -8 8.5c-4.5 0 -4.6 -1 -5.6 -2.9l0 8.9l-5 0l0 -22.7l0 0.1zm9.4 12.3c2.2 0 4.1 -1.6 4.1 -4.2c0 -2.6 -1.9 -4.2 -4.1 -4.2c-2.2 0 -4.1 1.7 -4.1 4.2c0 2.5 2 4.2 4.1 4.2z" class="svg-elem-233"></path><path fill="#e72427" d="m97.8 59.3l7.1 0c0.7 0 1.2 -0.5 1.2 -1c0 -0.5 -0.3 -0.9 -1.1 -1l-3.6 -0.5c-2.7 -0.4 -4.1 -2.5 -4.1 -4.7c0 -2.2 1.9 -5.2 5.7 -5.2l6.6 0l0 4.2l-6.4 0c-0.7 0 -1 0.5 -1 1c0 0.5 0.2 0.8 0.8 0.9l3.5 0.5c3.1 0.4 4.6 2.7 4.6 4.9c0 2.2 -1.9 5.2 -5.4 5.2l-7.9 0l0 -4.2l0 -0.1z" class="svg-elem-234"></path></g></g></g><g transform="matrix(0 0 0 1 251.0089 -1)" clip-path="url('#eaf-f3e7-25')" style="animation-name: eaf-f3e7-36, eaf-f3e7-56, eaf-f3e7-38; animation-composition: replace, add, add;"><g transform="matrix(7.0565 0 0 7.2355 258.8644 223.7104)"><g><path fill="#e72427" d="m22.5 27.5c0 -0.7 -0.5 -1.5 -1.6 -1.8l-4.8 -1.3c-3.7 -1 -5.3 -3.7 -5.3 -6.5c0 -2.8 2.7 -7.2 7.2 -7.2l8.8 0l0 5.4l-8.4 0c-1.2 0 -1.9 0.8 -1.9 1.6c0 0.8 0.4 1.2 1.3 1.5l5.2 1.4c3.7 1 5.3 3.8 5.3 6.6c0 2.8 -2.8 7.3 -7.8 7.3l-9.5 0l0 -5.4l9.4 0c1.2 0 1.9 -0.8 1.9 -1.7l0.2 0.1z" class="svg-elem-235"></path><path fill="#e72427" d="m30 11.1l5 0l0 5.1l-5 0l0 -5.1zm0 6.8l5 0l0 16.7l-5 0l0 -16.7z" class="svg-elem-236"></path><path fill="#e72427" d="m52.4 25.7l0 8.9l-5 0l0 -8.9c0 -2.4 -0.7 -3.5 -2.6 -3.5c-1.9 0 -2.6 1.1 -2.6 3.5l0 8.9l-5 0l0 -9.6c0 -4.6 2.4 -7.5 6.9 -7.5c4.5 0 4.7 1.2 5.8 3.2c1 -2 2.9 -3.2 5.7 -3.2c4.5 0 6.9 2.9 6.9 7.5l0 9.6l-5 0l0 -8.9c0 -2.4 -0.7 -3.5 -2.6 -3.5c-1.9 0 -2.6 1.1 -2.6 3.5l0.1 0z" class="svg-elem-237"></path><path fill="#e72427" d="m22.5 56.5c0 -0.7 -0.5 -1.5 -1.6 -1.8l-4.8 -1.3c-3.7 -1 -5.3 -3.7 -5.3 -6.5c0 -2.8 2.7 -7.2 7.2 -7.2l8.8 0l0 5.4l-8.4 0c-1.2 0 -1.9 0.8 -1.9 1.6c0 0.8 0.4 1.2 1.3 1.5l5.2 1.4c3.7 1 5.3 3.8 5.3 6.6c0 2.8 -2.8 7.3 -7.8 7.3l-9.5 0l0 -5.4l9.4 0c1.2 0 1.9 -0.8 1.9 -1.7l0.2 0.1z" class="svg-elem-238"></path><path fill="#e72427" d="m29.3 55.2c0 -5.1 3.7 -8.7 8.8 -8.7c5.1 0 8.8 3.6 8.8 8.8c0 5.2 0 1 0 1.4l-12.6 0c0.5 1.8 1.8 2.9 3.8 2.9c2 0 2.7 -0.6 3.3 -1.6l5.2 0c-1.1 3.5 -4.2 5.9 -8.4 5.9c-4.2 0 -8.8 -3.6 -8.8 -8.7l-0.1 0zm12.5 -1.9c-0.4 -1.6 -1.7 -2.6 -3.6 -2.6c-1.9 0 -3.2 1 -3.8 2.6l7.4 0z" class="svg-elem-239"></path><path fill="#e72427" d="m50 46.9l0 -4.8l5 0l0 4.8l4.6 0l0 4.2l-4.6 0l0 5.1c0 2 0.8 3 2.6 3l2.3 0l0 4.4l-2.8 0c-4.3 0 -7.1 -2.4 -7.1 -7l0 -5.4l-3.5 0l0 -4.2l3.5 0l0 -0.1z" class="svg-elem-240"></path><path fill="#e72427" d="m70.9 56.1l0 -9.2l5 0l0 10c0 4.3 -3.1 7 -7.6 7c-4.5 0 -7.6 -2.8 -7.6 -7l0 -10l5 0l0 9.2c0 2 0.9 3.1 2.6 3.1c1.7 0 2.6 -1 2.6 -3.1z" class="svg-elem-241"></path><path fill="#e72427" d="m77.8 46.9l5 0l0 2.4c1 -1.8 3.3 -2.9 5.6 -2.9c4.4 0 8 3.8 8 8.6c0 4.8 -3.5 8.5 -8 8.5c-4.5 0 -4.6 -1 -5.6 -2.9l0 8.9l-5 0l0 -22.7l0 0.1zm9.4 12.3c2.2 0 4.1 -1.6 4.1 -4.2c0 -2.6 -1.9 -4.2 -4.1 -4.2c-2.2 0 -4.1 1.7 -4.1 4.2c0 2.5 2 4.2 4.1 4.2z" class="svg-elem-242"></path><path fill="#e72427" d="m97.8 59.3l7.1 0c0.7 0 1.2 -0.5 1.2 -1c0 -0.5 -0.3 -0.9 -1.1 -1l-3.6 -0.5c-2.7 -0.4 -4.1 -2.5 -4.1 -4.7c0 -2.2 1.9 -5.2 5.7 -5.2l6.6 0l0 4.2l-6.4 0c-0.7 0 -1 0.5 -1 1c0 0.5 0.2 0.8 0.8 0.9l3.5 0.5c3.1 0.4 4.6 2.7 4.6 4.9c0 2.2 -1.9 5.2 -5.4 5.2l-7.9 0l0 -4.2l0 -0.1z" class="svg-elem-243"></path></g></g></g><g transform="matrix(0 0 0 1 250.0506 -0.9671)" clip-path="url('#eaf-f3e7-26')" style="animation-name: eaf-f3e7-57, eaf-f3e7-58, eaf-f3e7-59; animation-composition: replace, add, add;"><g transform="matrix(7.0673 0 0 7.2355 258.8764 223.7104)"><g><path fill="#e72427" d="m22.5 27.5c0 -0.7 -0.5 -1.5 -1.6 -1.8l-4.8 -1.3c-3.7 -1 -5.3 -3.7 -5.3 -6.5c0 -2.8 2.7 -7.2 7.2 -7.2l8.8 0l0 5.4l-8.4 0c-1.2 0 -1.9 0.8 -1.9 1.6c0 0.8 0.4 1.2 1.3 1.5l5.2 1.4c3.7 1 5.3 3.8 5.3 6.6c0 2.8 -2.8 7.3 -7.8 7.3l-9.5 0l0 -5.4l9.4 0c1.2 0 1.9 -0.8 1.9 -1.7l0.2 0.1z" class="svg-elem-244"></path><path fill="#e72427" d="m30 11.1l5 0l0 5.1l-5 0l0 -5.1zm0 6.8l5 0l0 16.7l-5 0l0 -16.7z" class="svg-elem-245"></path><path fill="#e72427" d="m52.4 25.7l0 8.9l-5 0l0 -8.9c0 -2.4 -0.7 -3.5 -2.6 -3.5c-1.9 0 -2.6 1.1 -2.6 3.5l0 8.9l-5 0l0 -9.6c0 -4.6 2.4 -7.5 6.9 -7.5c4.5 0 4.7 1.2 5.8 3.2c1 -2 2.9 -3.2 5.7 -3.2c4.5 0 6.9 2.9 6.9 7.5l0 9.6l-5 0l0 -8.9c0 -2.4 -0.7 -3.5 -2.6 -3.5c-1.9 0 -2.6 1.1 -2.6 3.5l0.1 0z" class="svg-elem-246"></path><path fill="#e72427" d="m22.5 56.5c0 -0.7 -0.5 -1.5 -1.6 -1.8l-4.8 -1.3c-3.7 -1 -5.3 -3.7 -5.3 -6.5c0 -2.8 2.7 -7.2 7.2 -7.2l8.8 0l0 5.4l-8.4 0c-1.2 0 -1.9 0.8 -1.9 1.6c0 0.8 0.4 1.2 1.3 1.5l5.2 1.4c3.7 1 5.3 3.8 5.3 6.6c0 2.8 -2.8 7.3 -7.8 7.3l-9.5 0l0 -5.4l9.4 0c1.2 0 1.9 -0.8 1.9 -1.7l0.2 0.1z" class="svg-elem-247"></path><path fill="#e72427" d="m29.3 55.2c0 -5.1 3.7 -8.7 8.8 -8.7c5.1 0 8.8 3.6 8.8 8.8c0 5.2 0 1 0 1.4l-12.6 0c0.5 1.8 1.8 2.9 3.8 2.9c2 0 2.7 -0.6 3.3 -1.6l5.2 0c-1.1 3.5 -4.2 5.9 -8.4 5.9c-4.2 0 -8.8 -3.6 -8.8 -8.7l-0.1 0zm12.5 -1.9c-0.4 -1.6 -1.7 -2.6 -3.6 -2.6c-1.9 0 -3.2 1 -3.8 2.6l7.4 0z" class="svg-elem-248"></path><path fill="#e72427" d="m50 46.9l0 -4.8l5 0l0 4.8l4.6 0l0 4.2l-4.6 0l0 5.1c0 2 0.8 3 2.6 3l2.3 0l0 4.4l-2.8 0c-4.3 0 -7.1 -2.4 -7.1 -7l0 -5.4l-3.5 0l0 -4.2l3.5 0l0 -0.1z" class="svg-elem-249"></path><path fill="#e72427" d="m70.9 56.1l0 -9.2l5 0l0 10c0 4.3 -3.1 7 -7.6 7c-4.5 0 -7.6 -2.8 -7.6 -7l0 -10l5 0l0 9.2c0 2 0.9 3.1 2.6 3.1c1.7 0 2.6 -1 2.6 -3.1z" class="svg-elem-250"></path><path fill="#e72427" d="m77.8 46.9l5 0l0 2.4c1 -1.8 3.3 -2.9 5.6 -2.9c4.4 0 8 3.8 8 8.6c0 4.8 -3.5 8.5 -8 8.5c-4.5 0 -4.6 -1 -5.6 -2.9l0 8.9l-5 0l0 -22.7l0 0.1zm9.4 12.3c2.2 0 4.1 -1.6 4.1 -4.2c0 -2.6 -1.9 -4.2 -4.1 -4.2c-2.2 0 -4.1 1.7 -4.1 4.2c0 2.5 2 4.2 4.1 4.2z" class="svg-elem-251"></path><path fill="#e72427" d="m97.8 59.3l7.1 0c0.7 0 1.2 -0.5 1.2 -1c0 -0.5 -0.3 -0.9 -1.1 -1l-3.6 -0.5c-2.7 -0.4 -4.1 -2.5 -4.1 -4.7c0 -2.2 1.9 -5.2 5.7 -5.2l6.6 0l0 4.2l-6.4 0c-0.7 0 -1 0.5 -1 1c0 0.5 0.2 0.8 0.8 0.9l3.5 0.5c3.1 0.4 4.6 2.7 4.6 4.9c0 2.2 -1.9 5.2 -5.4 5.2l-7.9 0l0 -4.2l0 -0.1z" class="svg-elem-252"></path></g></g></g><g transform="matrix(0 0 0 1 248.6621 -0.9171)" clip-path="url('#eaf-f3e7-27')" style="animation-name: eaf-f3e7-60, eaf-f3e7-61, eaf-f3e7-62; animation-composition: replace, add, add;"><g transform="matrix(7.0837 0 0 7.2355 258.8946 223.7104)"><g><path fill="#e72427" d="m22.5 27.5c0 -0.7 -0.5 -1.5 -1.6 -1.8l-4.8 -1.3c-3.7 -1 -5.3 -3.7 -5.3 -6.5c0 -2.8 2.7 -7.2 7.2 -7.2l8.8 0l0 5.4l-8.4 0c-1.2 0 -1.9 0.8 -1.9 1.6c0 0.8 0.4 1.2 1.3 1.5l5.2 1.4c3.7 1 5.3 3.8 5.3 6.6c0 2.8 -2.8 7.3 -7.8 7.3l-9.5 0l0 -5.4l9.4 0c1.2 0 1.9 -0.8 1.9 -1.7l0.2 0.1z" class="svg-elem-253"></path><path fill="#e72427" d="m30 11.1l5 0l0 5.1l-5 0l0 -5.1zm0 6.8l5 0l0 16.7l-5 0l0 -16.7z" class="svg-elem-254"></path><path fill="#e72427" d="m52.4 25.7l0 8.9l-5 0l0 -8.9c0 -2.4 -0.7 -3.5 -2.6 -3.5c-1.9 0 -2.6 1.1 -2.6 3.5l0 8.9l-5 0l0 -9.6c0 -4.6 2.4 -7.5 6.9 -7.5c4.5 0 4.7 1.2 5.8 3.2c1 -2 2.9 -3.2 5.7 -3.2c4.5 0 6.9 2.9 6.9 7.5l0 9.6l-5 0l0 -8.9c0 -2.4 -0.7 -3.5 -2.6 -3.5c-1.9 0 -2.6 1.1 -2.6 3.5l0.1 0z" class="svg-elem-255"></path><path fill="#e72427" d="m22.5 56.5c0 -0.7 -0.5 -1.5 -1.6 -1.8l-4.8 -1.3c-3.7 -1 -5.3 -3.7 -5.3 -6.5c0 -2.8 2.7 -7.2 7.2 -7.2l8.8 0l0 5.4l-8.4 0c-1.2 0 -1.9 0.8 -1.9 1.6c0 0.8 0.4 1.2 1.3 1.5l5.2 1.4c3.7 1 5.3 3.8 5.3 6.6c0 2.8 -2.8 7.3 -7.8 7.3l-9.5 0l0 -5.4l9.4 0c1.2 0 1.9 -0.8 1.9 -1.7l0.2 0.1z" class="svg-elem-256"></path><path fill="#e72427" d="m29.3 55.2c0 -5.1 3.7 -8.7 8.8 -8.7c5.1 0 8.8 3.6 8.8 8.8c0 5.2 0 1 0 1.4l-12.6 0c0.5 1.8 1.8 2.9 3.8 2.9c2 0 2.7 -0.6 3.3 -1.6l5.2 0c-1.1 3.5 -4.2 5.9 -8.4 5.9c-4.2 0 -8.8 -3.6 -8.8 -8.7l-0.1 0zm12.5 -1.9c-0.4 -1.6 -1.7 -2.6 -3.6 -2.6c-1.9 0 -3.2 1 -3.8 2.6l7.4 0z" class="svg-elem-257"></path><path fill="#e72427" d="m50 46.9l0 -4.8l5 0l0 4.8l4.6 0l0 4.2l-4.6 0l0 5.1c0 2 0.8 3 2.6 3l2.3 0l0 4.4l-2.8 0c-4.3 0 -7.1 -2.4 -7.1 -7l0 -5.4l-3.5 0l0 -4.2l3.5 0l0 -0.1z" class="svg-elem-258"></path><path fill="#e72427" d="m70.9 56.1l0 -9.2l5 0l0 10c0 4.3 -3.1 7 -7.6 7c-4.5 0 -7.6 -2.8 -7.6 -7l0 -10l5 0l0 9.2c0 2 0.9 3.1 2.6 3.1c1.7 0 2.6 -1 2.6 -3.1z" class="svg-elem-259"></path><path fill="#e72427" d="m77.8 46.9l5 0l0 2.4c1 -1.8 3.3 -2.9 5.6 -2.9c4.4 0 8 3.8 8 8.6c0 4.8 -3.5 8.5 -8 8.5c-4.5 0 -4.6 -1 -5.6 -2.9l0 8.9l-5 0l0 -22.7l0 0.1zm9.4 12.3c2.2 0 4.1 -1.6 4.1 -4.2c0 -2.6 -1.9 -4.2 -4.1 -4.2c-2.2 0 -4.1 1.7 -4.1 4.2c0 2.5 2 4.2 4.1 4.2z" class="svg-elem-260"></path><path fill="#e72427" d="m97.8 59.3l7.1 0c0.7 0 1.2 -0.5 1.2 -1c0 -0.5 -0.3 -0.9 -1.1 -1l-3.6 -0.5c-2.7 -0.4 -4.1 -2.5 -4.1 -4.7c0 -2.2 1.9 -5.2 5.7 -5.2l6.6 0l0 4.2l-6.4 0c-0.7 0 -1 0.5 -1 1c0 0.5 0.2 0.8 0.8 0.9l3.5 0.5c3.1 0.4 4.6 2.7 4.6 4.9c0 2.2 -1.9 5.2 -5.4 5.2l-7.9 0l0 -4.2l0 -0.1z" class="svg-elem-261"></path></g></g></g></g></g></svg>