<svg xmlns="http://www.w3.org/2000/svg" viewBox="0 0 1920 1080" overflow="hidden" preserveAspectRatio="xMidYMid meet" id="eaf-15004-0"><defs><clipPath id="eaf-15004-1"><rect x="0" y="0" width="1920" height="1080"></rect></clipPath><clipPath id="eaf-15004-2"><path d="m0 0l1429.7977 0l0 17.811l-1429.7977 0l0 -17.811z" clip-rule="evenodd" transform="matrix(1 0 0 -0.96 251.0089 402)"></path></clipPath><clipPath id="eaf-15004-3"><path d="m0 0l1429.7977 0l0 17.811l-1429.7977 0l0 -17.811z" clip-rule="evenodd" transform="matrix(1 0 0 -1 251.0089 419)"></path></clipPath><clipPath id="eaf-15004-4"><path d="m0 0l1429.7977 0l0 17.811l-1429.7977 0l0 -17.811z" clip-rule="evenodd" transform="matrix(1 0 0 -1 251.0089 436)"></path></clipPath><clipPath id="eaf-15004-5"><path d="m0 0l1429.7977 0l0 17.811l-1429.7977 0l0 -17.811z" clip-rule="evenodd" transform="matrix(1 0 0 -1 251.0089 453)"></path></clipPath><clipPath id="eaf-15004-6"><path d="m0 0l1429.7977 0l0 17.811l-1429.7977 0l0 -17.811z" clip-rule="evenodd" transform="matrix(1 0 0 -1 251.0089 470)"></path></clipPath><clipPath id="eaf-15004-7"><path d="m0 0l1429.7977 0l0 17.811l-1429.7977 0l0 -17.811z" clip-rule="evenodd" transform="matrix(1 0 0 -1 251.0089 487)"></path></clipPath><clipPath id="eaf-15004-8"><path d="m0 0l1429.7977 0l0 17.811l-1429.7977 0l0 -17.811z" clip-rule="evenodd" transform="matrix(1 0 0 -1 251.0089 504)"></path></clipPath><clipPath id="eaf-15004-9"><path d="m0 0l1429.7977 0l0 17.811l-1429.7977 0l0 -17.811z" clip-rule="evenodd" transform="matrix(1 0 0 -1 251.0089 521)"></path></clipPath><clipPath id="eaf-15004-10"><path d="m0 0l1429.7977 0l0 17.811l-1429.7977 0l0 -17.811z" clip-rule="evenodd" transform="matrix(1 0 0 -1 251.0089 538)"></path></clipPath><clipPath id="eaf-15004-11"><path d="m0 0l1429.7977 0l0 17.811l-1429.7977 0l0 -17.811z" clip-rule="evenodd" transform="matrix(1 0 0 -1 251.0089 555)"></path></clipPath><clipPath id="eaf-15004-12"><path d="m0 0l1429.7977 0l0 17.811l-1429.7977 0l0 -17.811z" clip-rule="evenodd" transform="matrix(1 0 0 -1 251.0089 572)"></path></clipPath><clipPath id="eaf-15004-13"><path d="m0 0l1429.7977 0l0 17.811l-1429.7977 0l0 -17.811z" clip-rule="evenodd" transform="matrix(1 0 0 -1 251.0089 589)"></path></clipPath><clipPath id="eaf-15004-14"><path d="m0 0l1429.7977 0l0 17.811l-1429.7977 0l0 -17.811z" clip-rule="evenodd" transform="matrix(1 0 0 -1 251.0089 606)"></path></clipPath><clipPath id="eaf-15004-15"><path d="m0 0l1429.7977 0l0 17.811l-1429.7977 0l0 -17.811z" clip-rule="evenodd" transform="matrix(1 0 0 -1 251.0089 623)"></path></clipPath><clipPath id="eaf-15004-16"><path d="m0 0l1429.7977 0l0 17.811l-1429.7977 0l0 -17.811z" clip-rule="evenodd" transform="matrix(1 0 0 -1 251.0089 650)"></path></clipPath><clipPath id="eaf-15004-17"><path d="m0 0l1429.7977 0l0 17.811l-1429.7977 0l0 -17.811z" clip-rule="evenodd" transform="matrix(1 0 0 -1 251.0089 639)"></path></clipPath><style>#eaf-15004-0 * {animation: 5000ms linear 1 normal both running;offset-rotate:0deg}@keyframes eaf-15004-18{0%,100%{transform:translate(251.0089px,383.587px)}}@keyframes eaf-15004-19{0%{transform:scale(0,1);animation-timing-function:cubic-bezier(1,0.01,0.44,0.99)}15%,100%{transform:scale(1,1)}}@keyframes eaf-15004-20{0%,100%{transform:translate(-251.0089px,-384.587px)}}@keyframes eaf-15004-21{0%,100%{transform:translate(251.0089px,417.9014px)}}@keyframes eaf-15004-22{0%{transform:scale(0,1);animation-timing-function:cubic-bezier(1,0.01,0.44,0.99)}16%,100%{transform:scale(1,1)}}@keyframes eaf-15004-23{0%,100%{transform:translate(-251.0089px,-418.9014px)}}@keyframes eaf-15004-24{0%{transform:scale(0,1);animation-timing-function:cubic-bezier(1,0.01,0.44,0.99)}17%,100%{transform:scale(1,1)}}@keyframes eaf-15004-25{0%{transform:scale(0,1);animation-timing-function:cubic-bezier(1,0.01,0.44,0.99)}18%,100%{transform:scale(1,1)}}@keyframes eaf-15004-26{0%{transform:scale(0,1);animation-timing-function:cubic-bezier(1,0.01,0.44,0.99)}19%,100%{transform:scale(1,1)}}@keyframes eaf-15004-27{0%{transform:scale(0,1);animation-timing-function:cubic-bezier(1,0.01,0.44,0.99)}20%,100%{transform:scale(1,1)}}@keyframes eaf-15004-28{0%{transform:scale(0,1);animation-timing-function:cubic-bezier(1,0.01,0.44,0.99)}21%,100%{transform:scale(1,1)}}@keyframes eaf-15004-29{0%{transform:scale(0,1);animation-timing-function:cubic-bezier(1,0.01,0.44,0.99)}22%,100%{transform:scale(1,1)}}@keyframes eaf-15004-30{0%{transform:scale(0,1);animation-timing-function:cubic-bezier(1,0.01,0.44,0.99)}23%,100%{transform:scale(1,1)}}@keyframes eaf-15004-31{0%{transform:scale(0,1);animation-timing-function:cubic-bezier(1,0.01,0.44,0.99)}24%,100%{transform:scale(1,1)}}@keyframes eaf-15004-32{0%{transform:scale(0,1);animation-timing-function:cubic-bezier(1,0.01,0.44,0.99)}25%,100%{transform:scale(1,1)}}@keyframes eaf-15004-33{0%{transform:scale(0,1);animation-timing-function:cubic-bezier(1,0.01,0.44,0.99)}26%,100%{transform:scale(1,1)}}@keyframes eaf-15004-34{0%{transform:scale(0,1);animation-timing-function:cubic-bezier(1,0.01,0.44,0.99)}27%,100%{transform:scale(1,1)}}@keyframes eaf-15004-35{0%{transform:scale(0,1);animation-timing-function:cubic-bezier(1,0.01,0.44,0.99)}28%,100%{transform:scale(1,1)}}@keyframes eaf-15004-36{0%{transform:scale(0,1);animation-timing-function:cubic-bezier(1,0.01,0.44,0.99)}29%,100%{transform:scale(1,1)}}</style></defs><g clip-path="url('#eaf-15004-1')" style="isolation: isolate;"><g><g transform="matrix(0 0 0 1 251.0089 -1)" clip-path="url('#eaf-15004-2')" style="animation-name: eaf-15004-18, eaf-15004-19, eaf-15004-20; animation-composition: replace, add, add;"><g transform="matrix(7.9218 0 0 7.9218 107.7943 211.0653)"><path fill="#fff" d="m31.7 43.9l0 -20.3l7.1 0l0 21.7c0 5.4 -4 8.9 -9.6 8.9l-4.7 0l0 -6.5l4 0c2.1 0 3.3 -1.3 3.3 -3.9l-0.1 0.1z"></path><path fill="#fff" d="m56.4 23c9.3 0 16 6.9 16 15.7c0 8.8 -6.6 15.7 -16 15.7c-9.4 0 -16 -6.8 -16 -15.7c0 -8.9 6.6 -15.7 16 -15.7zm0 24.9c5.1 0 8.3 -4 8.3 -9.1c0 -5.1 -3.2 -9.1 -8.3 -9.1c-5.1 0 -8.3 4 -8.3 9.1c0 5.1 3.2 9.1 8.3 9.1z"></path><path fill="#fff" d="m74.5 53.8l0 -30.1l7.1 0l0 30.1l-7.1 0z"></path><path fill="#fff" d="m93.2 23c3.2 0 6.4 1.7 7.8 5.8l5.9 17.2c0.3 0.7 0.7 1 1.2 1c0.7 0 1.3 -0.6 1.3 -1.6l0 -21.8l7.1 0l0 23c0 4.7 -3.6 7.8 -8.4 7.8c-4.8 0 -6.3 -1.7 -7.7 -5.8l-5.9 -17.2c-0.3 -0.7 -0.7 -1 -1.2 -1c-0.7 0 -1.3 0.6 -1.3 1.6l0 21.7l-7.1 0l0 -23c0 -4.7 3.7 -7.8 8.3 -7.8l0 0.1z"></path><path fill="#fff" d="m140.3 54.5c-8.7 0 -13.2 -5 -13.2 -13.6l0 -17.2l7.2 0l0 17.8c0 4.2 2 6.4 5.9 6.4c3.9 0 6 -2.2 6 -6.4l0 -17.8l7.2 0l0 17.2c0 8.6 -4.5 13.6 -13.2 13.6l0.1 0z"></path><path fill="#fff" d="m170.3 44.9c0 -0.9 -0.6 -1.8 -2 -2.2l-6 -1.7c-4.6 -1.3 -6.7 -4.7 -6.7 -8.2c0 -3.5 3.4 -9.1 9.1 -9.1l11.1 0l0 6.8l-10.6 0c-1.5 0 -2.4 1 -2.4 2c0 1 0.5 1.5 1.6 1.8l6.6 1.8c4.6 1.2 6.8 4.8 6.8 8.3c0 3.5 -3.6 9.3 -9.9 9.3l-12 0l0 -6.8l11.9 0c1.5 0 2.4 -1 2.4 -2.1l0.1 0.1z"></path></g></g><g transform="matrix(0 0 0 1 251.0089 -1)" clip-path="url('#eaf-15004-3')" style="animation-name: eaf-15004-21, eaf-15004-22, eaf-15004-23; animation-composition: replace, add, add;"><g transform="matrix(7.9218 0 0 7.9218 107.7943 211.0653)"><path fill="#fff" d="m31.7 43.9l0 -20.3l7.1 0l0 21.7c0 5.4 -4 8.9 -9.6 8.9l-4.7 0l0 -6.5l4 0c2.1 0 3.3 -1.3 3.3 -3.9l-0.1 0.1z"></path><path fill="#fff" d="m56.4 23c9.3 0 16 6.9 16 15.7c0 8.8 -6.6 15.7 -16 15.7c-9.4 0 -16 -6.8 -16 -15.7c0 -8.9 6.6 -15.7 16 -15.7zm0 24.9c5.1 0 8.3 -4 8.3 -9.1c0 -5.1 -3.2 -9.1 -8.3 -9.1c-5.1 0 -8.3 4 -8.3 9.1c0 5.1 3.2 9.1 8.3 9.1z"></path><path fill="#fff" d="m74.5 53.8l0 -30.1l7.1 0l0 30.1l-7.1 0z"></path><path fill="#fff" d="m93.2 23c3.2 0 6.4 1.7 7.8 5.8l5.9 17.2c0.3 0.7 0.7 1 1.2 1c0.7 0 1.3 -0.6 1.3 -1.6l0 -21.8l7.1 0l0 23c0 4.7 -3.6 7.8 -8.4 7.8c-4.8 0 -6.3 -1.7 -7.7 -5.8l-5.9 -17.2c-0.3 -0.7 -0.7 -1 -1.2 -1c-0.7 0 -1.3 0.6 -1.3 1.6l0 21.7l-7.1 0l0 -23c0 -4.7 3.7 -7.8 8.3 -7.8l0 0.1z"></path><path fill="#fff" d="m140.3 54.5c-8.7 0 -13.2 -5 -13.2 -13.6l0 -17.2l7.2 0l0 17.8c0 4.2 2 6.4 5.9 6.4c3.9 0 6 -2.2 6 -6.4l0 -17.8l7.2 0l0 17.2c0 8.6 -4.5 13.6 -13.2 13.6l0.1 0z"></path><path fill="#fff" d="m170.3 44.9c0 -0.9 -0.6 -1.8 -2 -2.2l-6 -1.7c-4.6 -1.3 -6.7 -4.7 -6.7 -8.2c0 -3.5 3.4 -9.1 9.1 -9.1l11.1 0l0 6.8l-10.6 0c-1.5 0 -2.4 1 -2.4 2c0 1 0.5 1.5 1.6 1.8l6.6 1.8c4.6 1.2 6.8 4.8 6.8 8.3c0 3.5 -3.6 9.3 -9.9 9.3l-12 0l0 -6.8l11.9 0c1.5 0 2.4 -1 2.4 -2.1l0.1 0.1z"></path></g></g><g transform="matrix(0 0 0 1 251.0089 -1)" clip-path="url('#eaf-15004-4')" style="animation-name: eaf-15004-18, eaf-15004-24, eaf-15004-20; animation-composition: replace, add, add;"><g transform="matrix(7.9218 0 0 7.9218 107.7943 211.0653)"><path fill="#fff" d="m31.7 43.9l0 -20.3l7.1 0l0 21.7c0 5.4 -4 8.9 -9.6 8.9l-4.7 0l0 -6.5l4 0c2.1 0 3.3 -1.3 3.3 -3.9l-0.1 0.1z"></path><path fill="#fff" d="m56.4 23c9.3 0 16 6.9 16 15.7c0 8.8 -6.6 15.7 -16 15.7c-9.4 0 -16 -6.8 -16 -15.7c0 -8.9 6.6 -15.7 16 -15.7zm0 24.9c5.1 0 8.3 -4 8.3 -9.1c0 -5.1 -3.2 -9.1 -8.3 -9.1c-5.1 0 -8.3 4 -8.3 9.1c0 5.1 3.2 9.1 8.3 9.1z"></path><path fill="#fff" d="m74.5 53.8l0 -30.1l7.1 0l0 30.1l-7.1 0z"></path><path fill="#fff" d="m93.2 23c3.2 0 6.4 1.7 7.8 5.8l5.9 17.2c0.3 0.7 0.7 1 1.2 1c0.7 0 1.3 -0.6 1.3 -1.6l0 -21.8l7.1 0l0 23c0 4.7 -3.6 7.8 -8.4 7.8c-4.8 0 -6.3 -1.7 -7.7 -5.8l-5.9 -17.2c-0.3 -0.7 -0.7 -1 -1.2 -1c-0.7 0 -1.3 0.6 -1.3 1.6l0 21.7l-7.1 0l0 -23c0 -4.7 3.7 -7.8 8.3 -7.8l0 0.1z"></path><path fill="#fff" d="m140.3 54.5c-8.7 0 -13.2 -5 -13.2 -13.6l0 -17.2l7.2 0l0 17.8c0 4.2 2 6.4 5.9 6.4c3.9 0 6 -2.2 6 -6.4l0 -17.8l7.2 0l0 17.2c0 8.6 -4.5 13.6 -13.2 13.6l0.1 0z"></path><path fill="#fff" d="m170.3 44.9c0 -0.9 -0.6 -1.8 -2 -2.2l-6 -1.7c-4.6 -1.3 -6.7 -4.7 -6.7 -8.2c0 -3.5 3.4 -9.1 9.1 -9.1l11.1 0l0 6.8l-10.6 0c-1.5 0 -2.4 1 -2.4 2c0 1 0.5 1.5 1.6 1.8l6.6 1.8c4.6 1.2 6.8 4.8 6.8 8.3c0 3.5 -3.6 9.3 -9.9 9.3l-12 0l0 -6.8l11.9 0c1.5 0 2.4 -1 2.4 -2.1l0.1 0.1z"></path></g></g><g transform="matrix(0 0 0 1 251.0089 -1)" clip-path="url('#eaf-15004-5')" style="animation-name: eaf-15004-18, eaf-15004-25, eaf-15004-20; animation-composition: replace, add, add;"><g transform="matrix(7.9218 0 0 7.9218 107.7943 211.0653)"><path fill="#fff" d="m31.7 43.9l0 -20.3l7.1 0l0 21.7c0 5.4 -4 8.9 -9.6 8.9l-4.7 0l0 -6.5l4 0c2.1 0 3.3 -1.3 3.3 -3.9l-0.1 0.1z"></path><path fill="#fff" d="m56.4 23c9.3 0 16 6.9 16 15.7c0 8.8 -6.6 15.7 -16 15.7c-9.4 0 -16 -6.8 -16 -15.7c0 -8.9 6.6 -15.7 16 -15.7zm0 24.9c5.1 0 8.3 -4 8.3 -9.1c0 -5.1 -3.2 -9.1 -8.3 -9.1c-5.1 0 -8.3 4 -8.3 9.1c0 5.1 3.2 9.1 8.3 9.1z"></path><path fill="#fff" d="m74.5 53.8l0 -30.1l7.1 0l0 30.1l-7.1 0z"></path><path fill="#fff" d="m93.2 23c3.2 0 6.4 1.7 7.8 5.8l5.9 17.2c0.3 0.7 0.7 1 1.2 1c0.7 0 1.3 -0.6 1.3 -1.6l0 -21.8l7.1 0l0 23c0 4.7 -3.6 7.8 -8.4 7.8c-4.8 0 -6.3 -1.7 -7.7 -5.8l-5.9 -17.2c-0.3 -0.7 -0.7 -1 -1.2 -1c-0.7 0 -1.3 0.6 -1.3 1.6l0 21.7l-7.1 0l0 -23c0 -4.7 3.7 -7.8 8.3 -7.8l0 0.1z"></path><path fill="#fff" d="m140.3 54.5c-8.7 0 -13.2 -5 -13.2 -13.6l0 -17.2l7.2 0l0 17.8c0 4.2 2 6.4 5.9 6.4c3.9 0 6 -2.2 6 -6.4l0 -17.8l7.2 0l0 17.2c0 8.6 -4.5 13.6 -13.2 13.6l0.1 0z"></path><path fill="#fff" d="m170.3 44.9c0 -0.9 -0.6 -1.8 -2 -2.2l-6 -1.7c-4.6 -1.3 -6.7 -4.7 -6.7 -8.2c0 -3.5 3.4 -9.1 9.1 -9.1l11.1 0l0 6.8l-10.6 0c-1.5 0 -2.4 1 -2.4 2c0 1 0.5 1.5 1.6 1.8l6.6 1.8c4.6 1.2 6.8 4.8 6.8 8.3c0 3.5 -3.6 9.3 -9.9 9.3l-12 0l0 -6.8l11.9 0c1.5 0 2.4 -1 2.4 -2.1l0.1 0.1z"></path></g></g><g transform="matrix(0 0 0 1 251.0089 -1)" clip-path="url('#eaf-15004-6')" style="animation-name: eaf-15004-18, eaf-15004-26, eaf-15004-20; animation-composition: replace, add, add;"><g transform="matrix(7.9218 0 0 7.9218 107.7943 211.0653)"><path fill="#fff" d="m31.7 43.9l0 -20.3l7.1 0l0 21.7c0 5.4 -4 8.9 -9.6 8.9l-4.7 0l0 -6.5l4 0c2.1 0 3.3 -1.3 3.3 -3.9l-0.1 0.1z"></path><path fill="#fff" d="m56.4 23c9.3 0 16 6.9 16 15.7c0 8.8 -6.6 15.7 -16 15.7c-9.4 0 -16 -6.8 -16 -15.7c0 -8.9 6.6 -15.7 16 -15.7zm0 24.9c5.1 0 8.3 -4 8.3 -9.1c0 -5.1 -3.2 -9.1 -8.3 -9.1c-5.1 0 -8.3 4 -8.3 9.1c0 5.1 3.2 9.1 8.3 9.1z"></path><path fill="#fff" d="m74.5 53.8l0 -30.1l7.1 0l0 30.1l-7.1 0z"></path><path fill="#fff" d="m93.2 23c3.2 0 6.4 1.7 7.8 5.8l5.9 17.2c0.3 0.7 0.7 1 1.2 1c0.7 0 1.3 -0.6 1.3 -1.6l0 -21.8l7.1 0l0 23c0 4.7 -3.6 7.8 -8.4 7.8c-4.8 0 -6.3 -1.7 -7.7 -5.8l-5.9 -17.2c-0.3 -0.7 -0.7 -1 -1.2 -1c-0.7 0 -1.3 0.6 -1.3 1.6l0 21.7l-7.1 0l0 -23c0 -4.7 3.7 -7.8 8.3 -7.8l0 0.1z"></path><path fill="#fff" d="m140.3 54.5c-8.7 0 -13.2 -5 -13.2 -13.6l0 -17.2l7.2 0l0 17.8c0 4.2 2 6.4 5.9 6.4c3.9 0 6 -2.2 6 -6.4l0 -17.8l7.2 0l0 17.2c0 8.6 -4.5 13.6 -13.2 13.6l0.1 0z"></path><path fill="#fff" d="m170.3 44.9c0 -0.9 -0.6 -1.8 -2 -2.2l-6 -1.7c-4.6 -1.3 -6.7 -4.7 -6.7 -8.2c0 -3.5 3.4 -9.1 9.1 -9.1l11.1 0l0 6.8l-10.6 0c-1.5 0 -2.4 1 -2.4 2c0 1 0.5 1.5 1.6 1.8l6.6 1.8c4.6 1.2 6.8 4.8 6.8 8.3c0 3.5 -3.6 9.3 -9.9 9.3l-12 0l0 -6.8l11.9 0c1.5 0 2.4 -1 2.4 -2.1l0.1 0.1z"></path></g></g><g transform="matrix(0 0 0 1 251.0089 -1)" clip-path="url('#eaf-15004-7')" style="animation-name: eaf-15004-18, eaf-15004-27, eaf-15004-20; animation-composition: replace, add, add;"><g transform="matrix(7.9218 0 0 7.9218 107.7943 211.0653)"><path fill="#fff" d="m31.7 43.9l0 -20.3l7.1 0l0 21.7c0 5.4 -4 8.9 -9.6 8.9l-4.7 0l0 -6.5l4 0c2.1 0 3.3 -1.3 3.3 -3.9l-0.1 0.1z"></path><path fill="#fff" d="m56.4 23c9.3 0 16 6.9 16 15.7c0 8.8 -6.6 15.7 -16 15.7c-9.4 0 -16 -6.8 -16 -15.7c0 -8.9 6.6 -15.7 16 -15.7zm0 24.9c5.1 0 8.3 -4 8.3 -9.1c0 -5.1 -3.2 -9.1 -8.3 -9.1c-5.1 0 -8.3 4 -8.3 9.1c0 5.1 3.2 9.1 8.3 9.1z"></path><path fill="#fff" d="m74.5 53.8l0 -30.1l7.1 0l0 30.1l-7.1 0z"></path><path fill="#fff" d="m93.2 23c3.2 0 6.4 1.7 7.8 5.8l5.9 17.2c0.3 0.7 0.7 1 1.2 1c0.7 0 1.3 -0.6 1.3 -1.6l0 -21.8l7.1 0l0 23c0 4.7 -3.6 7.8 -8.4 7.8c-4.8 0 -6.3 -1.7 -7.7 -5.8l-5.9 -17.2c-0.3 -0.7 -0.7 -1 -1.2 -1c-0.7 0 -1.3 0.6 -1.3 1.6l0 21.7l-7.1 0l0 -23c0 -4.7 3.7 -7.8 8.3 -7.8l0 0.1z"></path><path fill="#fff" d="m140.3 54.5c-8.7 0 -13.2 -5 -13.2 -13.6l0 -17.2l7.2 0l0 17.8c0 4.2 2 6.4 5.9 6.4c3.9 0 6 -2.2 6 -6.4l0 -17.8l7.2 0l0 17.2c0 8.6 -4.5 13.6 -13.2 13.6l0.1 0z"></path><path fill="#fff" d="m170.3 44.9c0 -0.9 -0.6 -1.8 -2 -2.2l-6 -1.7c-4.6 -1.3 -6.7 -4.7 -6.7 -8.2c0 -3.5 3.4 -9.1 9.1 -9.1l11.1 0l0 6.8l-10.6 0c-1.5 0 -2.4 1 -2.4 2c0 1 0.5 1.5 1.6 1.8l6.6 1.8c4.6 1.2 6.8 4.8 6.8 8.3c0 3.5 -3.6 9.3 -9.9 9.3l-12 0l0 -6.8l11.9 0c1.5 0 2.4 -1 2.4 -2.1l0.1 0.1z"></path></g></g><g transform="matrix(0 0 0 1 251.0089 -1)" clip-path="url('#eaf-15004-8')" style="animation-name: eaf-15004-18, eaf-15004-28, eaf-15004-20; animation-composition: replace, add, add;"><g transform="matrix(7.9218 0 0 7.9218 107.7943 211.0653)"><path fill="#fff" d="m31.7 43.9l0 -20.3l7.1 0l0 21.7c0 5.4 -4 8.9 -9.6 8.9l-4.7 0l0 -6.5l4 0c2.1 0 3.3 -1.3 3.3 -3.9l-0.1 0.1z"></path><path fill="#fff" d="m56.4 23c9.3 0 16 6.9 16 15.7c0 8.8 -6.6 15.7 -16 15.7c-9.4 0 -16 -6.8 -16 -15.7c0 -8.9 6.6 -15.7 16 -15.7zm0 24.9c5.1 0 8.3 -4 8.3 -9.1c0 -5.1 -3.2 -9.1 -8.3 -9.1c-5.1 0 -8.3 4 -8.3 9.1c0 5.1 3.2 9.1 8.3 9.1z"></path><path fill="#fff" d="m74.5 53.8l0 -30.1l7.1 0l0 30.1l-7.1 0z"></path><path fill="#fff" d="m93.2 23c3.2 0 6.4 1.7 7.8 5.8l5.9 17.2c0.3 0.7 0.7 1 1.2 1c0.7 0 1.3 -0.6 1.3 -1.6l0 -21.8l7.1 0l0 23c0 4.7 -3.6 7.8 -8.4 7.8c-4.8 0 -6.3 -1.7 -7.7 -5.8l-5.9 -17.2c-0.3 -0.7 -0.7 -1 -1.2 -1c-0.7 0 -1.3 0.6 -1.3 1.6l0 21.7l-7.1 0l0 -23c0 -4.7 3.7 -7.8 8.3 -7.8l0 0.1z"></path><path fill="#fff" d="m140.3 54.5c-8.7 0 -13.2 -5 -13.2 -13.6l0 -17.2l7.2 0l0 17.8c0 4.2 2 6.4 5.9 6.4c3.9 0 6 -2.2 6 -6.4l0 -17.8l7.2 0l0 17.2c0 8.6 -4.5 13.6 -13.2 13.6l0.1 0z"></path><path fill="#fff" d="m170.3 44.9c0 -0.9 -0.6 -1.8 -2 -2.2l-6 -1.7c-4.6 -1.3 -6.7 -4.7 -6.7 -8.2c0 -3.5 3.4 -9.1 9.1 -9.1l11.1 0l0 6.8l-10.6 0c-1.5 0 -2.4 1 -2.4 2c0 1 0.5 1.5 1.6 1.8l6.6 1.8c4.6 1.2 6.8 4.8 6.8 8.3c0 3.5 -3.6 9.3 -9.9 9.3l-12 0l0 -6.8l11.9 0c1.5 0 2.4 -1 2.4 -2.1l0.1 0.1z"></path></g></g><g transform="matrix(0 0 0 1 251.0089 -1)" clip-path="url('#eaf-15004-9')" style="animation-name: eaf-15004-18, eaf-15004-29, eaf-15004-20; animation-composition: replace, add, add;"><g transform="matrix(7.9218 0 0 7.9218 107.7943 211.0653)"><path fill="#fff" d="m31.7 43.9l0 -20.3l7.1 0l0 21.7c0 5.4 -4 8.9 -9.6 8.9l-4.7 0l0 -6.5l4 0c2.1 0 3.3 -1.3 3.3 -3.9l-0.1 0.1z"></path><path fill="#fff" d="m56.4 23c9.3 0 16 6.9 16 15.7c0 8.8 -6.6 15.7 -16 15.7c-9.4 0 -16 -6.8 -16 -15.7c0 -8.9 6.6 -15.7 16 -15.7zm0 24.9c5.1 0 8.3 -4 8.3 -9.1c0 -5.1 -3.2 -9.1 -8.3 -9.1c-5.1 0 -8.3 4 -8.3 9.1c0 5.1 3.2 9.1 8.3 9.1z"></path><path fill="#fff" d="m74.5 53.8l0 -30.1l7.1 0l0 30.1l-7.1 0z"></path><path fill="#fff" d="m93.2 23c3.2 0 6.4 1.7 7.8 5.8l5.9 17.2c0.3 0.7 0.7 1 1.2 1c0.7 0 1.3 -0.6 1.3 -1.6l0 -21.8l7.1 0l0 23c0 4.7 -3.6 7.8 -8.4 7.8c-4.8 0 -6.3 -1.7 -7.7 -5.8l-5.9 -17.2c-0.3 -0.7 -0.7 -1 -1.2 -1c-0.7 0 -1.3 0.6 -1.3 1.6l0 21.7l-7.1 0l0 -23c0 -4.7 3.7 -7.8 8.3 -7.8l0 0.1z"></path><path fill="#fff" d="m140.3 54.5c-8.7 0 -13.2 -5 -13.2 -13.6l0 -17.2l7.2 0l0 17.8c0 4.2 2 6.4 5.9 6.4c3.9 0 6 -2.2 6 -6.4l0 -17.8l7.2 0l0 17.2c0 8.6 -4.5 13.6 -13.2 13.6l0.1 0z"></path><path fill="#fff" d="m170.3 44.9c0 -0.9 -0.6 -1.8 -2 -2.2l-6 -1.7c-4.6 -1.3 -6.7 -4.7 -6.7 -8.2c0 -3.5 3.4 -9.1 9.1 -9.1l11.1 0l0 6.8l-10.6 0c-1.5 0 -2.4 1 -2.4 2c0 1 0.5 1.5 1.6 1.8l6.6 1.8c4.6 1.2 6.8 4.8 6.8 8.3c0 3.5 -3.6 9.3 -9.9 9.3l-12 0l0 -6.8l11.9 0c1.5 0 2.4 -1 2.4 -2.1l0.1 0.1z"></path></g></g><g transform="matrix(0 0 0 1 251.0089 -1)" clip-path="url('#eaf-15004-10')" style="animation-name: eaf-15004-18, eaf-15004-30, eaf-15004-20; animation-composition: replace, add, add;"><g transform="matrix(7.9218 0 0 7.9218 107.7943 211.0653)"><path fill="#fff" d="m31.7 43.9l0 -20.3l7.1 0l0 21.7c0 5.4 -4 8.9 -9.6 8.9l-4.7 0l0 -6.5l4 0c2.1 0 3.3 -1.3 3.3 -3.9l-0.1 0.1z"></path><path fill="#fff" d="m56.4 23c9.3 0 16 6.9 16 15.7c0 8.8 -6.6 15.7 -16 15.7c-9.4 0 -16 -6.8 -16 -15.7c0 -8.9 6.6 -15.7 16 -15.7zm0 24.9c5.1 0 8.3 -4 8.3 -9.1c0 -5.1 -3.2 -9.1 -8.3 -9.1c-5.1 0 -8.3 4 -8.3 9.1c0 5.1 3.2 9.1 8.3 9.1z"></path><path fill="#fff" d="m74.5 53.8l0 -30.1l7.1 0l0 30.1l-7.1 0z"></path><path fill="#fff" d="m93.2 23c3.2 0 6.4 1.7 7.8 5.8l5.9 17.2c0.3 0.7 0.7 1 1.2 1c0.7 0 1.3 -0.6 1.3 -1.6l0 -21.8l7.1 0l0 23c0 4.7 -3.6 7.8 -8.4 7.8c-4.8 0 -6.3 -1.7 -7.7 -5.8l-5.9 -17.2c-0.3 -0.7 -0.7 -1 -1.2 -1c-0.7 0 -1.3 0.6 -1.3 1.6l0 21.7l-7.1 0l0 -23c0 -4.7 3.7 -7.8 8.3 -7.8l0 0.1z"></path><path fill="#fff" d="m140.3 54.5c-8.7 0 -13.2 -5 -13.2 -13.6l0 -17.2l7.2 0l0 17.8c0 4.2 2 6.4 5.9 6.4c3.9 0 6 -2.2 6 -6.4l0 -17.8l7.2 0l0 17.2c0 8.6 -4.5 13.6 -13.2 13.6l0.1 0z"></path><path fill="#fff" d="m170.3 44.9c0 -0.9 -0.6 -1.8 -2 -2.2l-6 -1.7c-4.6 -1.3 -6.7 -4.7 -6.7 -8.2c0 -3.5 3.4 -9.1 9.1 -9.1l11.1 0l0 6.8l-10.6 0c-1.5 0 -2.4 1 -2.4 2c0 1 0.5 1.5 1.6 1.8l6.6 1.8c4.6 1.2 6.8 4.8 6.8 8.3c0 3.5 -3.6 9.3 -9.9 9.3l-12 0l0 -6.8l11.9 0c1.5 0 2.4 -1 2.4 -2.1l0.1 0.1z"></path></g></g><g transform="matrix(0 0 0 1 251.0089 -1)" clip-path="url('#eaf-15004-11')" style="animation-name: eaf-15004-18, eaf-15004-31, eaf-15004-20; animation-composition: replace, add, add;"><g transform="matrix(7.9218 0 0 7.9218 107.7943 211.0653)"><path fill="#fff" d="m31.7 43.9l0 -20.3l7.1 0l0 21.7c0 5.4 -4 8.9 -9.6 8.9l-4.7 0l0 -6.5l4 0c2.1 0 3.3 -1.3 3.3 -3.9l-0.1 0.1z"></path><path fill="#fff" d="m56.4 23c9.3 0 16 6.9 16 15.7c0 8.8 -6.6 15.7 -16 15.7c-9.4 0 -16 -6.8 -16 -15.7c0 -8.9 6.6 -15.7 16 -15.7zm0 24.9c5.1 0 8.3 -4 8.3 -9.1c0 -5.1 -3.2 -9.1 -8.3 -9.1c-5.1 0 -8.3 4 -8.3 9.1c0 5.1 3.2 9.1 8.3 9.1z"></path><path fill="#fff" d="m74.5 53.8l0 -30.1l7.1 0l0 30.1l-7.1 0z"></path><path fill="#fff" d="m93.2 23c3.2 0 6.4 1.7 7.8 5.8l5.9 17.2c0.3 0.7 0.7 1 1.2 1c0.7 0 1.3 -0.6 1.3 -1.6l0 -21.8l7.1 0l0 23c0 4.7 -3.6 7.8 -8.4 7.8c-4.8 0 -6.3 -1.7 -7.7 -5.8l-5.9 -17.2c-0.3 -0.7 -0.7 -1 -1.2 -1c-0.7 0 -1.3 0.6 -1.3 1.6l0 21.7l-7.1 0l0 -23c0 -4.7 3.7 -7.8 8.3 -7.8l0 0.1z"></path><path fill="#fff" d="m140.3 54.5c-8.7 0 -13.2 -5 -13.2 -13.6l0 -17.2l7.2 0l0 17.8c0 4.2 2 6.4 5.9 6.4c3.9 0 6 -2.2 6 -6.4l0 -17.8l7.2 0l0 17.2c0 8.6 -4.5 13.6 -13.2 13.6l0.1 0z"></path><path fill="#fff" d="m170.3 44.9c0 -0.9 -0.6 -1.8 -2 -2.2l-6 -1.7c-4.6 -1.3 -6.7 -4.7 -6.7 -8.2c0 -3.5 3.4 -9.1 9.1 -9.1l11.1 0l0 6.8l-10.6 0c-1.5 0 -2.4 1 -2.4 2c0 1 0.5 1.5 1.6 1.8l6.6 1.8c4.6 1.2 6.8 4.8 6.8 8.3c0 3.5 -3.6 9.3 -9.9 9.3l-12 0l0 -6.8l11.9 0c1.5 0 2.4 -1 2.4 -2.1l0.1 0.1z"></path></g></g><g transform="matrix(0 0 0 1 251.0089 -1)" clip-path="url('#eaf-15004-12')" style="animation-name: eaf-15004-18, eaf-15004-32, eaf-15004-20; animation-composition: replace, add, add;"><g transform="matrix(7.9218 0 0 7.9218 107.7943 211.0653)"><path fill="#fff" d="m31.7 43.9l0 -20.3l7.1 0l0 21.7c0 5.4 -4 8.9 -9.6 8.9l-4.7 0l0 -6.5l4 0c2.1 0 3.3 -1.3 3.3 -3.9l-0.1 0.1z"></path><path fill="#fff" d="m56.4 23c9.3 0 16 6.9 16 15.7c0 8.8 -6.6 15.7 -16 15.7c-9.4 0 -16 -6.8 -16 -15.7c0 -8.9 6.6 -15.7 16 -15.7zm0 24.9c5.1 0 8.3 -4 8.3 -9.1c0 -5.1 -3.2 -9.1 -8.3 -9.1c-5.1 0 -8.3 4 -8.3 9.1c0 5.1 3.2 9.1 8.3 9.1z"></path><path fill="#fff" d="m74.5 53.8l0 -30.1l7.1 0l0 30.1l-7.1 0z"></path><path fill="#fff" d="m93.2 23c3.2 0 6.4 1.7 7.8 5.8l5.9 17.2c0.3 0.7 0.7 1 1.2 1c0.7 0 1.3 -0.6 1.3 -1.6l0 -21.8l7.1 0l0 23c0 4.7 -3.6 7.8 -8.4 7.8c-4.8 0 -6.3 -1.7 -7.7 -5.8l-5.9 -17.2c-0.3 -0.7 -0.7 -1 -1.2 -1c-0.7 0 -1.3 0.6 -1.3 1.6l0 21.7l-7.1 0l0 -23c0 -4.7 3.7 -7.8 8.3 -7.8l0 0.1z"></path><path fill="#fff" d="m140.3 54.5c-8.7 0 -13.2 -5 -13.2 -13.6l0 -17.2l7.2 0l0 17.8c0 4.2 2 6.4 5.9 6.4c3.9 0 6 -2.2 6 -6.4l0 -17.8l7.2 0l0 17.2c0 8.6 -4.5 13.6 -13.2 13.6l0.1 0z"></path><path fill="#fff" d="m170.3 44.9c0 -0.9 -0.6 -1.8 -2 -2.2l-6 -1.7c-4.6 -1.3 -6.7 -4.7 -6.7 -8.2c0 -3.5 3.4 -9.1 9.1 -9.1l11.1 0l0 6.8l-10.6 0c-1.5 0 -2.4 1 -2.4 2c0 1 0.5 1.5 1.6 1.8l6.6 1.8c4.6 1.2 6.8 4.8 6.8 8.3c0 3.5 -3.6 9.3 -9.9 9.3l-12 0l0 -6.8l11.9 0c1.5 0 2.4 -1 2.4 -2.1l0.1 0.1z"></path></g></g><g transform="matrix(0 0 0 1 251.0089 -1)" clip-path="url('#eaf-15004-13')" style="animation-name: eaf-15004-18, eaf-15004-33, eaf-15004-20; animation-composition: replace, add, add;"><g transform="matrix(7.9218 0 0 7.9218 107.7943 211.0653)"><path fill="#fff" d="m31.7 43.9l0 -20.3l7.1 0l0 21.7c0 5.4 -4 8.9 -9.6 8.9l-4.7 0l0 -6.5l4 0c2.1 0 3.3 -1.3 3.3 -3.9l-0.1 0.1z"></path><path fill="#fff" d="m56.4 23c9.3 0 16 6.9 16 15.7c0 8.8 -6.6 15.7 -16 15.7c-9.4 0 -16 -6.8 -16 -15.7c0 -8.9 6.6 -15.7 16 -15.7zm0 24.9c5.1 0 8.3 -4 8.3 -9.1c0 -5.1 -3.2 -9.1 -8.3 -9.1c-5.1 0 -8.3 4 -8.3 9.1c0 5.1 3.2 9.1 8.3 9.1z"></path><path fill="#fff" d="m74.5 53.8l0 -30.1l7.1 0l0 30.1l-7.1 0z"></path><path fill="#fff" d="m93.2 23c3.2 0 6.4 1.7 7.8 5.8l5.9 17.2c0.3 0.7 0.7 1 1.2 1c0.7 0 1.3 -0.6 1.3 -1.6l0 -21.8l7.1 0l0 23c0 4.7 -3.6 7.8 -8.4 7.8c-4.8 0 -6.3 -1.7 -7.7 -5.8l-5.9 -17.2c-0.3 -0.7 -0.7 -1 -1.2 -1c-0.7 0 -1.3 0.6 -1.3 1.6l0 21.7l-7.1 0l0 -23c0 -4.7 3.7 -7.8 8.3 -7.8l0 0.1z"></path><path fill="#fff" d="m140.3 54.5c-8.7 0 -13.2 -5 -13.2 -13.6l0 -17.2l7.2 0l0 17.8c0 4.2 2 6.4 5.9 6.4c3.9 0 6 -2.2 6 -6.4l0 -17.8l7.2 0l0 17.2c0 8.6 -4.5 13.6 -13.2 13.6l0.1 0z"></path><path fill="#fff" d="m170.3 44.9c0 -0.9 -0.6 -1.8 -2 -2.2l-6 -1.7c-4.6 -1.3 -6.7 -4.7 -6.7 -8.2c0 -3.5 3.4 -9.1 9.1 -9.1l11.1 0l0 6.8l-10.6 0c-1.5 0 -2.4 1 -2.4 2c0 1 0.5 1.5 1.6 1.8l6.6 1.8c4.6 1.2 6.8 4.8 6.8 8.3c0 3.5 -3.6 9.3 -9.9 9.3l-12 0l0 -6.8l11.9 0c1.5 0 2.4 -1 2.4 -2.1l0.1 0.1z"></path></g></g><g transform="matrix(0 0 0 1 251.0089 -1)" clip-path="url('#eaf-15004-14')" style="animation-name: eaf-15004-18, eaf-15004-34, eaf-15004-20; animation-composition: replace, add, add;"><g transform="matrix(7.9218 0 0 7.9218 107.7943 211.0653)"><path fill="#fff" d="m31.7 43.9l0 -20.3l7.1 0l0 21.7c0 5.4 -4 8.9 -9.6 8.9l-4.7 0l0 -6.5l4 0c2.1 0 3.3 -1.3 3.3 -3.9l-0.1 0.1z"></path><path fill="#fff" d="m56.4 23c9.3 0 16 6.9 16 15.7c0 8.8 -6.6 15.7 -16 15.7c-9.4 0 -16 -6.8 -16 -15.7c0 -8.9 6.6 -15.7 16 -15.7zm0 24.9c5.1 0 8.3 -4 8.3 -9.1c0 -5.1 -3.2 -9.1 -8.3 -9.1c-5.1 0 -8.3 4 -8.3 9.1c0 5.1 3.2 9.1 8.3 9.1z"></path><path fill="#fff" d="m74.5 53.8l0 -30.1l7.1 0l0 30.1l-7.1 0z"></path><path fill="#fff" d="m93.2 23c3.2 0 6.4 1.7 7.8 5.8l5.9 17.2c0.3 0.7 0.7 1 1.2 1c0.7 0 1.3 -0.6 1.3 -1.6l0 -21.8l7.1 0l0 23c0 4.7 -3.6 7.8 -8.4 7.8c-4.8 0 -6.3 -1.7 -7.7 -5.8l-5.9 -17.2c-0.3 -0.7 -0.7 -1 -1.2 -1c-0.7 0 -1.3 0.6 -1.3 1.6l0 21.7l-7.1 0l0 -23c0 -4.7 3.7 -7.8 8.3 -7.8l0 0.1z"></path><path fill="#fff" d="m140.3 54.5c-8.7 0 -13.2 -5 -13.2 -13.6l0 -17.2l7.2 0l0 17.8c0 4.2 2 6.4 5.9 6.4c3.9 0 6 -2.2 6 -6.4l0 -17.8l7.2 0l0 17.2c0 8.6 -4.5 13.6 -13.2 13.6l0.1 0z"></path><path fill="#fff" d="m170.3 44.9c0 -0.9 -0.6 -1.8 -2 -2.2l-6 -1.7c-4.6 -1.3 -6.7 -4.7 -6.7 -8.2c0 -3.5 3.4 -9.1 9.1 -9.1l11.1 0l0 6.8l-10.6 0c-1.5 0 -2.4 1 -2.4 2c0 1 0.5 1.5 1.6 1.8l6.6 1.8c4.6 1.2 6.8 4.8 6.8 8.3c0 3.5 -3.6 9.3 -9.9 9.3l-12 0l0 -6.8l11.9 0c1.5 0 2.4 -1 2.4 -2.1l0.1 0.1z"></path></g></g><g transform="matrix(0 0 0 1 251.0089 -1)" clip-path="url('#eaf-15004-15')" style="animation-name: eaf-15004-18, eaf-15004-35, eaf-15004-20; animation-composition: replace, add, add;"><g transform="matrix(7.9218 0 0 7.9218 107.7943 211.0653)"><path fill="#fff" d="m31.7 43.9l0 -20.3l7.1 0l0 21.7c0 5.4 -4 8.9 -9.6 8.9l-4.7 0l0 -6.5l4 0c2.1 0 3.3 -1.3 3.3 -3.9l-0.1 0.1z"></path><path fill="#fff" d="m56.4 23c9.3 0 16 6.9 16 15.7c0 8.8 -6.6 15.7 -16 15.7c-9.4 0 -16 -6.8 -16 -15.7c0 -8.9 6.6 -15.7 16 -15.7zm0 24.9c5.1 0 8.3 -4 8.3 -9.1c0 -5.1 -3.2 -9.1 -8.3 -9.1c-5.1 0 -8.3 4 -8.3 9.1c0 5.1 3.2 9.1 8.3 9.1z"></path><path fill="#fff" d="m74.5 53.8l0 -30.1l7.1 0l0 30.1l-7.1 0z"></path><path fill="#fff" d="m93.2 23c3.2 0 6.4 1.7 7.8 5.8l5.9 17.2c0.3 0.7 0.7 1 1.2 1c0.7 0 1.3 -0.6 1.3 -1.6l0 -21.8l7.1 0l0 23c0 4.7 -3.6 7.8 -8.4 7.8c-4.8 0 -6.3 -1.7 -7.7 -5.8l-5.9 -17.2c-0.3 -0.7 -0.7 -1 -1.2 -1c-0.7 0 -1.3 0.6 -1.3 1.6l0 21.7l-7.1 0l0 -23c0 -4.7 3.7 -7.8 8.3 -7.8l0 0.1z"></path><path fill="#fff" d="m140.3 54.5c-8.7 0 -13.2 -5 -13.2 -13.6l0 -17.2l7.2 0l0 17.8c0 4.2 2 6.4 5.9 6.4c3.9 0 6 -2.2 6 -6.4l0 -17.8l7.2 0l0 17.2c0 8.6 -4.5 13.6 -13.2 13.6l0.1 0z"></path><path fill="#fff" d="m170.3 44.9c0 -0.9 -0.6 -1.8 -2 -2.2l-6 -1.7c-4.6 -1.3 -6.7 -4.7 -6.7 -8.2c0 -3.5 3.4 -9.1 9.1 -9.1l11.1 0l0 6.8l-10.6 0c-1.5 0 -2.4 1 -2.4 2c0 1 0.5 1.5 1.6 1.8l6.6 1.8c4.6 1.2 6.8 4.8 6.8 8.3c0 3.5 -3.6 9.3 -9.9 9.3l-12 0l0 -6.8l11.9 0c1.5 0 2.4 -1 2.4 -2.1l0.1 0.1z"></path></g></g><g transform="matrix(0 0 0 1 251.0089 -1)" clip-path="url('#eaf-15004-16')" style="animation-name: eaf-15004-18, eaf-15004-36, eaf-15004-20; animation-composition: replace, add, add;"><g transform="matrix(7.9218 0 0 7.9218 107.7943 211.0653)"><path fill="#fff" d="m31.7 43.9l0 -20.3l7.1 0l0 21.7c0 5.4 -4 8.9 -9.6 8.9l-4.7 0l0 -6.5l4 0c2.1 0 3.3 -1.3 3.3 -3.9l-0.1 0.1z"></path><path fill="#fff" d="m56.4 23c9.3 0 16 6.9 16 15.7c0 8.8 -6.6 15.7 -16 15.7c-9.4 0 -16 -6.8 -16 -15.7c0 -8.9 6.6 -15.7 16 -15.7zm0 24.9c5.1 0 8.3 -4 8.3 -9.1c0 -5.1 -3.2 -9.1 -8.3 -9.1c-5.1 0 -8.3 4 -8.3 9.1c0 5.1 3.2 9.1 8.3 9.1z"></path><path fill="#fff" d="m74.5 53.8l0 -30.1l7.1 0l0 30.1l-7.1 0z"></path><path fill="#fff" d="m93.2 23c3.2 0 6.4 1.7 7.8 5.8l5.9 17.2c0.3 0.7 0.7 1 1.2 1c0.7 0 1.3 -0.6 1.3 -1.6l0 -21.8l7.1 0l0 23c0 4.7 -3.6 7.8 -8.4 7.8c-4.8 0 -6.3 -1.7 -7.7 -5.8l-5.9 -17.2c-0.3 -0.7 -0.7 -1 -1.2 -1c-0.7 0 -1.3 0.6 -1.3 1.6l0 21.7l-7.1 0l0 -23c0 -4.7 3.7 -7.8 8.3 -7.8l0 0.1z"></path><path fill="#fff" d="m140.3 54.5c-8.7 0 -13.2 -5 -13.2 -13.6l0 -17.2l7.2 0l0 17.8c0 4.2 2 6.4 5.9 6.4c3.9 0 6 -2.2 6 -6.4l0 -17.8l7.2 0l0 17.2c0 8.6 -4.5 13.6 -13.2 13.6l0.1 0z"></path><path fill="#fff" d="m170.3 44.9c0 -0.9 -0.6 -1.8 -2 -2.2l-6 -1.7c-4.6 -1.3 -6.7 -4.7 -6.7 -8.2c0 -3.5 3.4 -9.1 9.1 -9.1l11.1 0l0 6.8l-10.6 0c-1.5 0 -2.4 1 -2.4 2c0 1 0.5 1.5 1.6 1.8l6.6 1.8c4.6 1.2 6.8 4.8 6.8 8.3c0 3.5 -3.6 9.3 -9.9 9.3l-12 0l0 -6.8l11.9 0c1.5 0 2.4 -1 2.4 -2.1l0.1 0.1z"></path></g></g><g transform="matrix(0 0 0 1 251.0089 -1)" clip-path="url('#eaf-15004-17')" style="animation-name: eaf-15004-18, eaf-15004-36, eaf-15004-20; animation-composition: replace, add, add;"><g transform="matrix(7.9218 0 0 7.9218 107.7943 211.0653)"><path fill="#fff" d="m31.7 43.9l0 -20.3l7.1 0l0 21.7c0 5.4 -4 8.9 -9.6 8.9l-4.7 0l0 -6.5l4 0c2.1 0 3.3 -1.3 3.3 -3.9l-0.1 0.1z"></path><path fill="#fff" d="m56.4 23c9.3 0 16 6.9 16 15.7c0 8.8 -6.6 15.7 -16 15.7c-9.4 0 -16 -6.8 -16 -15.7c0 -8.9 6.6 -15.7 16 -15.7zm0 24.9c5.1 0 8.3 -4 8.3 -9.1c0 -5.1 -3.2 -9.1 -8.3 -9.1c-5.1 0 -8.3 4 -8.3 9.1c0 5.1 3.2 9.1 8.3 9.1z"></path><path fill="#fff" d="m74.5 53.8l0 -30.1l7.1 0l0 30.1l-7.1 0z"></path><path fill="#fff" d="m93.2 23c3.2 0 6.4 1.7 7.8 5.8l5.9 17.2c0.3 0.7 0.7 1 1.2 1c0.7 0 1.3 -0.6 1.3 -1.6l0 -21.8l7.1 0l0 23c0 4.7 -3.6 7.8 -8.4 7.8c-4.8 0 -6.3 -1.7 -7.7 -5.8l-5.9 -17.2c-0.3 -0.7 -0.7 -1 -1.2 -1c-0.7 0 -1.3 0.6 -1.3 1.6l0 21.7l-7.1 0l0 -23c0 -4.7 3.7 -7.8 8.3 -7.8l0 0.1z"></path><path fill="#fff" d="m140.3 54.5c-8.7 0 -13.2 -5 -13.2 -13.6l0 -17.2l7.2 0l0 17.8c0 4.2 2 6.4 5.9 6.4c3.9 0 6 -2.2 6 -6.4l0 -17.8l7.2 0l0 17.2c0 8.6 -4.5 13.6 -13.2 13.6l0.1 0z"></path><path fill="#fff" d="m170.3 44.9c0 -0.9 -0.6 -1.8 -2 -2.2l-6 -1.7c-4.6 -1.3 -6.7 -4.7 -6.7 -8.2c0 -3.5 3.4 -9.1 9.1 -9.1l11.1 0l0 6.8l-10.6 0c-1.5 0 -2.4 1 -2.4 2c0 1 0.5 1.5 1.6 1.8l6.6 1.8c4.6 1.2 6.8 4.8 6.8 8.3c0 3.5 -3.6 9.3 -9.9 9.3l-12 0l0 -6.8l11.9 0c1.5 0 2.4 -1 2.4 -2.1l0.1 0.1z"></path></g></g></g></g></svg>